<?xml version="1.0" encoding="UTF-8" standalone="no"?>
<!-- Generator: Adobe Illustrator 18.1.0, SVG Export Plug-In . SVG Version: 6.00 Build 0)  -->

<svg
   xmlns:dc="http://purl.org/dc/elements/1.1/"
   xmlns:cc="http://creativecommons.org/ns#"
   xmlns:rdf="http://www.w3.org/1999/02/22-rdf-syntax-ns#"
   xmlns:svg="http://www.w3.org/2000/svg"
   xmlns="http://www.w3.org/2000/svg"
   xmlns:sodipodi="http://sodipodi.sourceforge.net/DTD/sodipodi-0.dtd"
   xmlns:inkscape="http://www.inkscape.org/namespaces/inkscape"
   version="1.1"
   id="Layer_1"
   x="0px"
   y="0px"
   viewBox="0 0 697.79999 576.29999"
   enable-background="new 0 0 56 36"
   xml:space="preserve"
   sodipodi:docname="boxwood.svg"
   width="697.79999"
   height="576.29999"
   inkscape:export-filename="C:\ML\Projekte\Adventskalender\assets\images\boxwood.png"
   inkscape:export-xdpi="96"
   inkscape:export-ydpi="96"
   inkscape:version="0.92.4 (5da689c313, 2019-01-14)"><metadata
   id="metadata33812"><rdf:RDF><cc:Work
       rdf:about=""><dc:format>image/svg+xml</dc:format><dc:type
         rdf:resource="http://purl.org/dc/dcmitype/StillImage" /><dc:title></dc:title></cc:Work></rdf:RDF></metadata><defs
   id="defs33810">
	
	
	
	
	
	
	
	
	
	
</defs><sodipodi:namedview
   pagecolor="#ffffff"
   bordercolor="#666666"
   borderopacity="1"
   objecttolerance="10"
   gridtolerance="10"
   guidetolerance="10"
   inkscape:pageopacity="0"
   inkscape:pageshadow="2"
   inkscape:window-width="3440"
   inkscape:window-height="1377"
   id="namedview33808"
   showgrid="false"
   fit-margin-top="200"
   fit-margin-left="200"
   fit-margin-right="200"
   fit-margin-bottom="200"
   inkscape:zoom="3.125"
   inkscape:cx="197.28551"
   inkscape:cy="256.84541"
   inkscape:window-x="-8"
   inkscape:window-y="-8"
   inkscape:window-maximized="1"
   inkscape:current-layer="Layer_1" />
<path
   style="opacity:0.11000001"
   inkscape:connector-curvature="0"
   id="path33789-9-3-2"
   d="m 204,199.2 v 8 c 0,0 0.1,0.1 0.3,0.2 0.2,0.1 0.7,0.7 1.1,0.9 0.4,0.1 0.6,0.3 1.1,0.2 0.5,0.4 1,0.7 1.5,0.7 0.5,0.2 1,0 1.5,0.7 0.5,0.2 0.9,-0.1 1.3,0.1 0.7,0.4 1.2,1.2 1.2,1.2 v -8 c 0,0 -0.1,-0.1 -0.3,-0.2 -0.3,-0.1 -1.3,0.4 -1.7,0.2 -0.4,-0.7 -0.1,-1.6 -0.5,-1.3 -0.5,-0.3 -1,-0.3 -1.5,-0.7 -0.5,-0.4 -1,-1.4 -1.5,-0.7 -0.4,-0.6 -1.1,-0.1 -1.5,-0.3 -0.4,-0.2 -0.4,-0.7 -0.7,-0.8 -0.2,-0.1 -0.3,-0.2 -0.3,-0.2 z" /><path
   style="fill:#ffffff;fill-opacity:1"
   inkscape:connector-curvature="0"
   id="path33785-0-7"
   d="m 164,235.2 c 0,0 0.7,-0.2 1.5,-0.6 0.4,-0.2 0.6,-0.4 1.2,-0.7 0.6,-0.6 1.2,-0.7 1.9,-0.9 0.7,-0.8 3.5,-2 4.3,-2.1 0.8,-0.2 1.7,-0.4 2.6,-1.3 0.9,-0.7 1.9,-1.1 2.9,-1.5 0.5,-0.2 0.4,-0.6 0.9,-0.9 0.5,-0.3 1,-0.5 1.5,-0.8 0.9,0.3 2.4,-0.6 3.3,-1.3 1,0.2 3.9,-2.3 4.9,-2.4 1,0.8 1.9,-1.7 2.9,-1.4 0.9,-0.5 1.2,-1.2 2.1,-1.7 1,-0.5 4.8,-1.9 5.8,-2.3 1,-0.8 3.9,-2.4 4.8,-2.4 0.9,-0.2 1.7,-0.4 2.5,-1.2 0.8,-0.8 1.4,-1.2 2.1,-1 0.6,-0.3 0.7,-0.9 1.1,-1.1 0.8,-0.5 1.7,-0.4 1.7,-0.4 v -8 l -8,-4 c 0,0 -2.1,1.3 -2.9,1.7 -0.4,0.2 -1.2,0.4 -1.7,0.7 -0.6,-0.6 -3.2,2.7 -3.9,1.9 -0.7,0.4 -1.5,0.4 -2.3,1.1 -0.8,0.1 -1.7,0.6 -2.6,1.3 -0.9,0.3 -1.9,1.2 -2.8,1.4 -0.5,0.2 -2.3,1.5 -2.8,1.8 -0.5,0.3 -1.7,0.5 -2.2,0.7 -0.9,0.2 -1.9,0.8 -2.9,1.4 -1,1.5 -1.9,0.4 -2.9,1.4 -1,0.2 -1.9,2.2 -2.9,1.4 -0.9,-0.2 -3.9,1.9 -4.8,2.4 -1,0.5 -2,1.2 -3,1.6 -1,0 -2,-0.1 -2.9,1.3 -0.9,-0.4 -1.7,0.6 -2.5,1.2 -0.8,1.9 -1.4,-0.1 -2.1,1 -0.6,-1 -1.1,0.6 -1.6,0.8 -0.7,0.7 -1.2,0.9 -1.2,0.9 v 8 c 0,0 0.1,0.1 0.3,0.2 0.2,0.1 0.7,0.7 1.1,0.9 0.4,0.1 0.6,0.3 1.1,0.2 0.5,0.4 1,0.7 1.5,0.7 0.5,0.2 1,0 1.5,0.7 0.5,0.2 0.9,-0.1 1.3,0.1 0.7,0.4 1.2,1.2 1.2,1.2 z" /><path
   style="opacity:0.28999999"
   inkscape:connector-curvature="0"
   id="path33787-8-2"
   d="m 164,235.2 c 0,0 0.7,-0.2 1.5,-0.6 0.4,-0.2 0.6,-0.4 1.2,-0.7 0.6,-0.6 1.2,-0.7 1.9,-0.9 0.7,-0.8 3.5,-2 4.3,-2.1 0.8,-0.2 1.7,-0.4 2.6,-1.3 0.9,-0.7 1.9,-1.1 2.9,-1.5 0.5,-0.2 0.4,-0.6 0.9,-0.9 0.5,-0.3 1,-0.5 1.5,-0.8 0.9,0.3 2.4,-0.6 3.3,-1.3 1,0.2 3.9,-2.3 4.9,-2.4 1,0.8 1.9,-1.7 2.9,-1.4 0.9,-0.5 1.2,-1.2 2.1,-1.7 1,-0.5 4.8,-1.9 5.8,-2.3 1,-0.8 3.9,-2.4 4.8,-2.4 0.9,-0.2 1.7,-0.4 2.5,-1.2 0.8,-0.8 1.4,-1.2 2.1,-1 0.6,-0.3 0.7,-0.9 1.1,-1.1 0.8,-0.5 1.7,-0.4 1.7,-0.4 v -8 c 0,0 -0.5,0.7 -2.5,1.8 -0.3,0.1 -1.5,0.2 -1.9,0.4 -0.4,0.1 -0.8,1.1 -1.2,0.6 -0.4,-0.3 -0.9,-0.2 -1.3,0.7 -0.5,0.5 -0.9,0.8 -1.4,0.7 -0.5,0.5 -2.8,1.7 -3.3,2.3 -0.5,0.4 -3.2,0.5 -3.7,1.2 -0.5,0.3 -1.1,0.5 -1.6,0.8 -0.6,0.3 -1.4,0.2 -2,0.5 -0.5,0.2 -0.6,0.8 -1.1,1 -0.5,0.2 -0.6,0.8 -1.1,1.3 -0.5,0.4 -1.3,0.2 -1.8,0.1 -0.5,0.7 -1,0.2 -1.4,0.7 -0.5,0.1 -3,2.3 -3.4,1.7 -0.5,-0.1 -1,0.7 -1.4,0.7 -0.5,0.2 -2.2,2.1 -2.7,2.4 -1.9,0.9 -1.1,-0.6 -2.8,0.3 -0.5,0.2 -1.4,1.3 -1.8,1.6 -0.5,0.1 -1.8,0.8 -2.2,0.6 -0.4,0 -2.8,1.3 -3.2,1.6 -0.4,-0.7 -0.8,0.9 -1.1,0.6 -0.4,0.5 -1.1,-1.1 -1.4,-0.3 -0.3,0.4 -0.3,0.5 -0.6,1.3 -0.3,-0.2 -0.7,0.8 -1,1 -1.6,0.6 -2.1,0.4 -2.1,0.4 z" /><path
   style="opacity:0.17600002;fill:#004e04;fill-opacity:1"
   inkscape:connector-curvature="0"
   id="path33791-8-2"
   d="m 196,208.8 c 0,0.4 0.1,0.4 0.3,-0.9 0.2,3 -1.4,-1.1 -1,-0.5 0.5,0.3 0.6,0.3 0.8,-0.1 0.2,1.1 -1.5,0.8 -0.6,1.1 0.6,-1.8 1.1,0.1 1.6,-0.4 0.5,-0.3 2.9,-1.1 3.2,-1.3 0.3,-0.1 0.5,-0.1 0.5,-0.1 0,0 -0.2,0.2 -0.5,0.6 -0.3,0.7 -2.8,2.2 -3.2,2 -0.5,1 -1,-0.5 -1.4,0.5 -0.4,0.6 1,-0.7 0.5,-0.8 -6.1,3.6 1.2,-2.1 0.5,-0.5 -0.4,-0.5 -0.7,1.4 -0.7,0.4 z" /><path
   style="opacity:0.17600002;fill:#004e04;fill-opacity:1"
   inkscape:connector-curvature="0"
   id="path33793-3-7"
   d="m 168,219.8 c 0,0.4 0.1,0.4 0.3,-0.9 0.2,3 -1.4,-1.1 -1,-0.5 0.5,0.3 0.6,0.3 0.8,-0.1 0.2,1.1 -1.5,0.8 -0.6,1.1 0.6,-1.8 1.1,0.1 1.6,-0.4 0.5,-0.3 0.9,-0.1 1.2,-0.3 0.3,-0.1 0.5,-0.1 0.5,-0.1 0,0 -0.2,0.2 -0.5,0.6 -0.3,0.7 -0.8,1.2 -1.2,1 -0.5,1 -1,-0.5 -1.4,0.5 -0.4,0.6 1,-0.7 0.5,-0.8 -6.1,3.6 1.2,-2.1 0.5,-0.5 -0.4,-0.5 -0.7,1.4 -0.7,0.4 z" /><path
   style="opacity:0.17600002;fill:#004e04;fill-opacity:1"
   inkscape:connector-curvature="0"
   id="path33795-4-7"
   d="m 180,215.8 c 0,0.4 0.1,0.4 0.3,-0.9 0.2,3 0.6,-2.1 1,-1.5 0.5,0.3 0.6,0.3 0.8,-0.1 0.2,1.1 0.5,-0.2 1.4,0.1 0.6,-1.8 -0.9,1.1 -0.4,0.6 0.5,-0.3 0.9,-0.1 1.2,-0.3 0.3,-0.1 0.5,-0.1 0.5,-0.1 0,0 -0.2,0.2 -0.5,0.6 -0.3,0.7 -0.8,1.2 -1.2,1 -0.5,1 1,-1.5 0.6,-0.5 -0.4,0.6 -1,0.3 -1.5,0.2 -0.5,0.3 -1.1,-0.5 -1.5,0.5 -0.4,-0.5 -0.7,1.4 -0.7,0.4 z" /><path
   style="opacity:0.17600002;fill:#004e04;fill-opacity:1"
   inkscape:connector-curvature="0"
   id="path33797-3-5"
   d="m 173.4,220.5 c 0,0.4 0.1,0.4 0.3,-0.9 0.2,3 0.6,-2.1 1,-1.5 0.5,0.3 0.6,0.3 0.8,-0.1 0.2,1.1 0.6,-1.3 1.5,-1 0.6,-1.8 1.2,1.1 1.7,0.6 0.5,-0.3 0.9,-0.1 1.2,-0.3 0.3,-0.1 0.5,-0.1 0.5,-0.1 0,0 -0.2,0.2 -0.5,0.6 -0.3,0.7 -0.8,1.2 -1.2,1 -0.5,1 -1.1,-1.5 -1.5,-0.5 -0.4,0.6 -1.1,1.5 -1.6,1.4 -0.6,0.3 -1.1,-0.5 -1.5,0.5 -0.4,-0.5 -0.7,1.4 -0.7,0.3 z" /><path
   style="opacity:0.17600002;fill:#004e04;fill-opacity:1"
   inkscape:connector-curvature="0"
   id="path33799-7-3"
   d="m 203.4,204 c 0,0.4 0.1,0.4 0.3,-0.9 0.2,3 0.6,-2.1 1,-1.5 0.5,0.3 2.7,0.3 2.9,-0.1 0.2,1.1 -1.5,0.8 -0.6,1.1 0.6,-1.8 1.2,1.1 1.7,0.6 0.6,-0.3 -1,1 -0.7,0.7 0.3,-0.1 0.5,-0.1 0.5,-0.1 0,0 -0.2,0.2 -0.5,0.6 -0.3,0.7 1.2,0.2 0.8,0 -0.5,1 -1.1,-1.5 -1.5,-0.5 -0.4,0.6 1,-0.7 0.5,-0.8 -0.5,0.3 -3.2,-0.5 -3.6,0.5 -0.5,-0.4 -0.8,1.4 -0.8,0.4 z" /><path
   style="opacity:0.17600002;fill:#004e04;fill-opacity:1"
   inkscape:connector-curvature="0"
   id="path33801-5-5"
   d="m 163.3,226.1 c 0,0.4 0.1,0.4 0.3,-0.9 0.2,3 0.8,-2.2 1.3,-1.6 0.5,0.3 0.6,0.3 0.8,-0.1 0.2,1.1 0.5,-0.2 1.4,0.1 0.6,-1.8 2.4,-1.2 2.8,-1.6 0.5,-0.3 2.7,-0.8 3,-1.1 0.3,-0.1 1.5,-1.2 1.5,-1.2 0,0 -0.2,0.2 -0.5,0.6 -0.3,0.7 -2.8,2.2 -3.2,2 -0.5,1 2.9,-1.4 2.5,-0.4 -0.4,0.6 -3,1.3 -3.5,1.2 -0.5,0.3 -5.3,1.6 -5.7,2.6 -0.4,-0.4 -0.7,1.4 -0.7,0.4 z" /><path
   style="opacity:0.17600002;fill:#004e04;fill-opacity:1"
   inkscape:connector-curvature="0"
   id="path33803-8-0"
   d="m 183.3,212.1 c 0,0.4 0.1,0.4 0.3,-0.9 0.2,3 6.8,-5.2 7.3,-4.6 0.5,0.3 0.6,0.3 0.8,-0.1 0.2,1.1 0.5,-0.2 1.4,0.1 0.6,-1.8 -1.6,0.8 -1.2,0.4 0.5,-0.3 0.7,0.2 1,-0.1 0.3,-0.1 1.5,-1.2 1.5,-1.2 0,0 -0.2,0.2 -0.5,0.6 -0.3,0.7 -0.8,1.2 -1.2,1 -0.5,1 0.9,-0.4 0.5,0.6 -0.4,0.6 -1,0.3 -1.5,0.2 -0.5,0.3 -7.3,2.6 -7.7,3.6 -0.4,-0.4 -0.7,1.4 -0.7,0.4 z" /><path
   style="fill:#ffffff;fill-opacity:1"
   inkscape:connector-curvature="0"
   id="path33785-3-6-7"
   d="m 200.6,256.5 c 0,0 -0.7,-0.2 -1.5,-0.6 -0.4,-0.2 -0.6,-0.4 -1.2,-0.7 -0.6,-0.6 -1.2,-0.7 -1.9,-0.9 -0.7,-0.8 -3.5,-2 -4.3,-2.1 -0.8,-0.2 -1.7,-0.4 -2.6,-1.3 -0.9,-0.7 -1.9,-1.1 -2.9,-1.5 -0.5,-0.2 -0.4,-0.6 -0.9,-0.9 -0.5,-0.3 -1,-0.5 -1.5,-0.8 -0.9,0.3 -2.4,-0.6 -3.3,-1.3 -1,0.2 -3.9,-2.3 -4.9,-2.4 -1,0.8 -1.9,-1.7 -2.9,-1.4 -0.9,-0.5 -1.2,-1.2 -2.1,-1.7 -1,-0.5 -4.8,-1.9 -5.8,-2.3 -1,-0.8 -3.9,-2.4 -4.8,-2.4 -0.9,-0.2 -1.7,-0.4 -2.5,-1.2 -0.8,-0.8 -1.4,-1.2 -2.1,-1 -0.6,-0.3 -0.7,-0.9 -1.1,-1.1 -0.8,-0.5 -1.7,-0.4 -1.7,-0.4 v -8 l 8,-4 c 0,0 2.1,1.3 2.9,1.7 0.4,0.2 1.2,0.4 1.7,0.7 0.6,-0.6 3.2,2.7 3.9,1.9 0.7,0.4 1.5,0.4 2.3,1.1 0.8,0.1 1.7,0.6 2.6,1.3 0.9,0.3 1.9,1.2 2.8,1.4 0.5,0.2 2.3,1.5 2.8,1.8 0.5,0.3 1.7,0.5 2.2,0.7 0.9,0.2 1.9,0.8 2.9,1.4 1,1.5 1.9,0.4 2.9,1.4 1,0.2 1.9,2.2 2.9,1.4 0.9,-0.2 3.9,1.9 4.8,2.4 1,0.5 2,1.2 3,1.6 1,0 2,-0.1 2.9,1.3 0.9,-0.4 1.7,0.6 2.5,1.2 0.8,1.9 1.4,-0.1 2.1,1 0.6,-1 1.1,0.6 1.6,0.8 0.7,0.7 1.2,0.9 1.2,0.9 v 8 c 0,0 -0.1,0.1 -0.3,0.2 -0.2,0.1 -0.7,0.7 -1.1,0.9 -0.4,0.1 -0.6,0.3 -1.1,0.2 -0.5,0.4 -1,0.7 -1.5,0.7 -0.5,0.2 -1,0 -1.5,0.7 -0.5,0.2 -0.9,-0.1 -1.3,0.1 -0.7,0.4 -1.2,1.2 -1.2,1.2 z" /><path
   style="opacity:0.11000001"
   inkscape:connector-curvature="0"
   id="path33787-4-1-8"
   d="m 200.6,256.5 c 0,0 -0.7,-0.2 -1.5,-0.6 -0.4,-0.2 -0.6,-0.4 -1.2,-0.7 -0.6,-0.6 -1.2,-0.7 -1.9,-0.9 -0.7,-0.8 -3.5,-2 -4.3,-2.1 -0.8,-0.2 -1.7,-0.4 -2.6,-1.3 -0.9,-0.7 -1.9,-1.1 -2.9,-1.5 -0.5,-0.2 -0.4,-0.6 -0.9,-0.9 -0.5,-0.3 -1,-0.5 -1.5,-0.8 -0.9,0.3 -2.4,-0.6 -3.3,-1.3 -1,0.2 -3.9,-2.3 -4.9,-2.4 -1,0.8 -1.9,-1.7 -2.9,-1.4 -0.9,-0.5 -1.2,-1.2 -2.1,-1.7 -1,-0.5 -4.8,-1.9 -5.8,-2.3 -1,-0.8 -3.9,-2.4 -4.8,-2.4 -0.9,-0.2 -1.7,-0.4 -2.5,-1.2 -0.8,-0.8 -1.4,-1.2 -2.1,-1 -0.6,-0.3 -0.7,-0.9 -1.1,-1.1 -0.8,-0.5 -1.7,-0.4 -1.7,-0.4 v -8 c 0,0 0.5,0.7 2.5,1.8 0.3,0.1 1.5,0.2 1.9,0.4 0.4,0.1 0.8,1.1 1.2,0.6 0.4,-0.3 0.9,-0.2 1.3,0.7 0.5,0.5 0.9,0.8 1.4,0.7 0.5,0.5 2.8,1.7 3.3,2.3 0.5,0.4 3.2,0.5 3.7,1.2 0.5,0.3 1.1,0.5 1.6,0.8 0.6,0.3 1.4,0.2 2,0.5 0.5,0.2 0.6,0.8 1.1,1 0.5,0.2 0.6,0.8 1.1,1.3 0.5,0.4 1.3,0.2 1.8,0.1 0.5,0.7 1,0.2 1.4,0.7 0.5,0.1 3,2.3 3.4,1.7 0.5,-0.1 1,0.7 1.4,0.7 0.5,0.2 2.2,2.1 2.7,2.4 1.9,0.9 1.1,-0.6 2.8,0.3 0.5,0.2 1.4,1.3 1.8,1.6 0.5,0.1 1.8,0.8 2.2,0.6 0.4,0 2.8,1.3 3.2,1.6 0.4,-0.7 0.8,0.9 1.1,0.6 0.4,0.5 1.1,-1.1 1.4,-0.3 0.3,0.4 0.3,0.5 0.6,1.3 0.3,-0.2 0.7,0.8 1,1 1.6,0.6 2.1,0.4 2.1,0.4 z" /><path
   style="opacity:0.17600002;fill:#004e04;fill-opacity:1"
   inkscape:connector-curvature="0"
   id="path33791-1-1-7"
   d="m 170.6,230.1 c 0,0.4 -0.1,0.4 -0.3,-0.9 -0.2,3 1.4,-1.1 1,-0.5 -0.5,0.3 -0.6,0.3 -0.8,-0.1 -0.2,1.1 1.5,0.8 0.6,1.1 -0.6,-1.8 -1.1,0.1 -1.6,-0.4 -0.5,-0.3 -2.9,-1.1 -3.2,-1.3 -0.3,-0.1 -0.5,-0.1 -0.5,-0.1 0,0 0.2,0.2 0.5,0.6 0.3,0.7 2.8,2.2 3.2,2 0.5,1 1,-0.5 1.4,0.5 0.4,0.6 -1,-0.7 -0.5,-0.8 6.1,3.6 -1.2,-2.1 -0.5,-0.5 0.4,-0.5 0.7,1.4 0.7,0.4 z" /><path
   style="opacity:0.17600002;fill:#004e04;fill-opacity:1"
   inkscape:connector-curvature="0"
   id="path33793-8-3-5"
   d="m 198.6,241.1 c 0,0.4 -0.1,0.4 -0.3,-0.9 -0.2,3 1.4,-1.1 1,-0.5 -0.5,0.3 -0.6,0.3 -0.8,-0.1 -0.2,1.1 1.5,0.8 0.6,1.1 -0.6,-1.8 -1.1,0.1 -1.6,-0.4 -0.5,-0.3 -0.9,-0.1 -1.2,-0.3 -0.3,-0.1 -0.5,-0.1 -0.5,-0.1 0,0 0.2,0.2 0.5,0.6 0.3,0.7 0.8,1.2 1.2,1 0.5,1 1,-0.5 1.4,0.5 0.4,0.6 -1,-0.7 -0.5,-0.8 6.1,3.6 -1.2,-2.1 -0.5,-0.5 0.4,-0.5 0.7,1.4 0.7,0.4 z" /><path
   style="opacity:0.17600002;fill:#004e04;fill-opacity:1"
   inkscape:connector-curvature="0"
   id="path33795-9-0-9"
   d="m 186.6,237.1 c 0,0.4 -0.1,0.4 -0.3,-0.9 -0.2,3 -0.6,-2.1 -1,-1.5 -0.5,0.3 -0.6,0.3 -0.8,-0.1 -0.2,1.1 -0.5,-0.2 -1.4,0.1 -0.6,-1.8 0.9,1.1 0.4,0.6 -0.5,-0.3 -0.9,-0.1 -1.2,-0.3 -0.3,-0.1 -0.5,-0.1 -0.5,-0.1 0,0 0.2,0.2 0.5,0.6 0.3,0.7 0.8,1.2 1.2,1 0.5,1 -1,-1.5 -0.6,-0.5 0.4,0.6 1,0.3 1.5,0.2 0.5,0.3 1.1,-0.5 1.5,0.5 0.4,-0.5 0.7,1.4 0.7,0.4 z" /><path
   style="opacity:0.17600002;fill:#004e04;fill-opacity:1"
   inkscape:connector-curvature="0"
   id="path33797-0-4-8"
   d="m 191.2,241.8 c 0,0.4 -0.1,0.4 -0.3,-0.9 -0.2,3 -0.6,-2.1 -1,-1.5 -0.5,0.3 -0.6,0.3 -0.8,-0.1 -0.2,1.1 -0.6,-1.3 -1.5,-1 -0.6,-1.8 -1.2,1.1 -1.7,0.6 -0.5,-0.3 -0.9,-0.1 -1.2,-0.3 -0.3,-0.1 -0.5,-0.1 -0.5,-0.1 0,0 0.2,0.2 0.5,0.6 0.3,0.7 0.8,1.2 1.2,1 0.5,1 1.1,-1.5 1.5,-0.5 0.4,0.6 1.1,1.5 1.6,1.4 0.6,0.3 1.1,-0.5 1.5,0.5 0.4,-0.5 0.7,1.4 0.7,0.3 z" /><path
   style="opacity:0.17600002;fill:#004e04;fill-opacity:1"
   inkscape:connector-curvature="0"
   id="path33799-6-2-4"
   d="m 163.2,225.3 c 0,0.4 -0.1,0.4 -0.3,-0.9 -0.2,3 -0.6,-2.1 -1,-1.5 -0.5,0.3 -2.7,0.3 -2.9,-0.1 -0.2,1.1 1.5,0.8 0.6,1.1 -0.6,-1.8 -1.2,1.1 -1.7,0.6 -0.6,-0.3 1,1 0.7,0.7 -0.3,-0.1 -0.5,-0.1 -0.5,-0.1 0,0 0.2,0.2 0.5,0.6 0.3,0.7 -1.2,0.2 -0.8,0 0.5,1 1.1,-1.5 1.5,-0.5 0.4,0.6 -1,-0.7 -0.5,-0.8 0.5,0.3 3.2,-0.5 3.6,0.5 0.5,-0.4 0.8,1.4 0.8,0.4 z" /><path
   style="opacity:0.17600002;fill:#004e04;fill-opacity:1"
   inkscape:connector-curvature="0"
   id="path33801-9-5-5"
   d="m 201.3,247.4 c 0,0.4 -0.1,0.4 -0.3,-0.9 -0.2,3 -0.8,-2.2 -1.3,-1.6 -0.5,0.3 -0.6,0.3 -0.8,-0.1 -0.2,1.1 -0.5,-0.2 -1.4,0.1 -0.6,-1.8 -2.4,-1.2 -2.8,-1.6 -0.5,-0.3 -2.7,-0.8 -3,-1.1 -0.3,-0.1 -1.5,-1.2 -1.5,-1.2 0,0 0.2,0.2 0.5,0.6 0.3,0.7 2.8,2.2 3.2,2 0.5,1 -2.9,-1.4 -2.5,-0.4 0.4,0.6 3,1.3 3.5,1.2 0.5,0.3 5.3,1.6 5.7,2.6 0.4,-0.4 0.7,1.4 0.7,0.4 z" /><path
   style="opacity:0.17600002;fill:#004e04;fill-opacity:1"
   inkscape:connector-curvature="0"
   id="path33803-3-5-9"
   d="m 183.3,233.4 c 0,0.4 -0.1,0.4 -0.3,-0.9 -0.2,3 -6.8,-5.2 -7.3,-4.6 -0.5,0.3 -0.6,0.3 -0.8,-0.1 -0.2,1.1 -0.5,-0.2 -1.4,0.1 -0.6,-1.8 1.6,0.8 1.2,0.4 -0.5,-0.3 -0.7,0.2 -1,-0.1 -0.3,-0.1 -1.5,-1.2 -1.5,-1.2 0,0 0.2,0.2 0.5,0.6 0.3,0.7 0.8,1.2 1.2,1 0.5,1 -0.9,-0.4 -0.5,0.6 0.4,0.6 1,0.3 1.5,0.2 0.5,0.3 7.3,2.6 7.7,3.6 0.4,-0.4 0.7,1.4 0.7,0.4 z" /><path
   style="fill:#ffffff;fill-opacity:1"
   inkscape:connector-curvature="0"
   id="path33785-3-6"
   d="m 248.6,280.5 c 0,0 -0.7,-0.2 -1.5,-0.6 -0.4,-0.2 -0.6,-0.4 -1.2,-0.7 -0.6,-0.6 -1.2,-0.7 -1.9,-0.9 -0.7,-0.8 -3.5,-2 -4.3,-2.1 -0.8,-0.2 -1.7,-0.4 -2.6,-1.3 -0.9,-0.7 -1.9,-1.1 -2.9,-1.5 -0.5,-0.2 -0.4,-0.6 -0.9,-0.9 -0.5,-0.3 -1,-0.5 -1.5,-0.8 -0.9,0.3 -2.4,-0.6 -3.3,-1.3 -1,0.2 -3.9,-2.3 -4.9,-2.4 -1,0.8 -1.9,-1.7 -2.9,-1.4 -0.9,-0.5 -1.2,-1.2 -2.1,-1.7 -1,-0.5 -4.8,-1.9 -5.8,-2.3 -1,-0.8 -3.9,-2.4 -4.8,-2.4 -0.9,-0.2 -1.7,-0.4 -2.5,-1.2 -0.8,-0.8 -1.4,-1.2 -2.1,-1 -0.6,-0.3 -0.7,-0.9 -1.1,-1.1 -0.8,-0.5 -1.7,-0.4 -1.7,-0.4 v -8 l 8,-4 c 0,0 2.1,1.3 2.9,1.7 0.4,0.2 1.2,0.4 1.7,0.7 0.6,-0.6 3.2,2.7 3.9,1.9 0.7,0.4 1.5,0.4 2.3,1.1 0.8,0.1 1.7,0.6 2.6,1.3 0.9,0.3 1.9,1.2 2.8,1.4 0.5,0.2 2.3,1.5 2.8,1.8 0.5,0.3 1.7,0.5 2.2,0.7 0.9,0.2 1.9,0.8 2.9,1.4 1,1.5 1.9,0.4 2.9,1.4 1,0.2 1.9,2.2 2.9,1.4 0.9,-0.2 3.9,1.9 4.8,2.4 1,0.5 2,1.2 3,1.6 1,0 2,-0.1 2.9,1.3 0.9,-0.4 1.7,0.6 2.5,1.2 0.8,1.9 1.4,-0.1 2.1,1 0.6,-1 1.1,0.6 1.6,0.8 0.7,0.7 1.2,0.9 1.2,0.9 v 8 c 0,0 -0.1,0.1 -0.3,0.2 -0.2,0.1 -0.7,0.7 -1.1,0.9 -0.4,0.1 -0.6,0.3 -1.1,0.2 -0.5,0.4 -1,0.7 -1.5,0.7 -0.5,0.2 -1,0 -1.5,0.7 -0.5,0.2 -0.9,-0.1 -1.3,0.1 -0.7,0.4 -1.2,1.2 -1.2,1.2 z" /><path
   style="opacity:0.11000001"
   inkscape:connector-curvature="0"
   id="path33787-4-1"
   d="m 248.6,280.5 c 0,0 -0.7,-0.2 -1.5,-0.6 -0.4,-0.2 -0.6,-0.4 -1.2,-0.7 -0.6,-0.6 -1.2,-0.7 -1.9,-0.9 -0.7,-0.8 -3.5,-2 -4.3,-2.1 -0.8,-0.2 -1.7,-0.4 -2.6,-1.3 -0.9,-0.7 -1.9,-1.1 -2.9,-1.5 -0.5,-0.2 -0.4,-0.6 -0.9,-0.9 -0.5,-0.3 -1,-0.5 -1.5,-0.8 -0.9,0.3 -2.4,-0.6 -3.3,-1.3 -1,0.2 -3.9,-2.3 -4.9,-2.4 -1,0.8 -1.9,-1.7 -2.9,-1.4 -0.9,-0.5 -1.2,-1.2 -2.1,-1.7 -1,-0.5 -4.8,-1.9 -5.8,-2.3 -1,-0.8 -3.9,-2.4 -4.8,-2.4 -0.9,-0.2 -1.7,-0.4 -2.5,-1.2 -0.8,-0.8 -1.4,-1.2 -2.1,-1 -0.6,-0.3 -0.7,-0.9 -1.1,-1.1 -0.8,-0.5 -1.7,-0.4 -1.7,-0.4 v -8 c 0,0 0.5,0.7 2.5,1.8 0.3,0.1 1.5,0.2 1.9,0.4 0.4,0.1 0.8,1.1 1.2,0.6 0.4,-0.3 0.9,-0.2 1.3,0.7 0.5,0.5 0.9,0.8 1.4,0.7 0.5,0.5 2.8,1.7 3.3,2.3 0.5,0.4 3.2,0.5 3.7,1.2 0.5,0.3 1.1,0.5 1.6,0.8 0.6,0.3 1.4,0.2 2,0.5 0.5,0.2 0.6,0.8 1.1,1 0.5,0.2 0.6,0.8 1.1,1.3 0.5,0.4 1.3,0.2 1.8,0.1 0.5,0.7 1,0.2 1.4,0.7 0.5,0.1 3,2.3 3.4,1.7 0.5,-0.1 1,0.7 1.4,0.7 0.5,0.2 2.2,2.1 2.7,2.4 1.9,0.9 1.1,-0.6 2.8,0.3 0.5,0.2 1.4,1.3 1.8,1.6 0.5,0.1 1.8,0.8 2.2,0.6 0.4,0 2.8,1.3 3.2,1.6 0.4,-0.7 0.8,0.9 1.1,0.6 0.4,0.5 1.1,-1.1 1.4,-0.3 0.3,0.4 0.3,0.5 0.6,1.3 0.3,-0.2 0.7,0.8 1,1 1.6,0.6 2.1,0.4 2.1,0.4 z" /><path
   style="opacity:0.17600002;fill:#004e04;fill-opacity:1"
   inkscape:connector-curvature="0"
   id="path33791-1-1"
   d="m 218.6,254.1 c 0,0.4 -0.1,0.4 -0.3,-0.9 -0.2,3 1.4,-1.1 1,-0.5 -0.5,0.3 -0.6,0.3 -0.8,-0.1 -0.2,1.1 1.5,0.8 0.6,1.1 -0.6,-1.8 -1.1,0.1 -1.6,-0.4 -0.5,-0.3 -2.9,-1.1 -3.2,-1.3 -0.3,-0.1 -0.5,-0.1 -0.5,-0.1 0,0 0.2,0.2 0.5,0.6 0.3,0.7 2.8,2.2 3.2,2 0.5,1 1,-0.5 1.4,0.5 0.4,0.6 -1,-0.7 -0.5,-0.8 6.1,3.6 -1.2,-2.1 -0.5,-0.5 0.4,-0.5 0.7,1.4 0.7,0.4 z" /><path
   style="opacity:0.17600002;fill:#004e04;fill-opacity:1"
   inkscape:connector-curvature="0"
   id="path33793-8-3"
   d="m 246.6,265.1 c 0,0.4 -0.1,0.4 -0.3,-0.9 -0.2,3 1.4,-1.1 1,-0.5 -0.5,0.3 -0.6,0.3 -0.8,-0.1 -0.2,1.1 1.5,0.8 0.6,1.1 -0.6,-1.8 -1.1,0.1 -1.6,-0.4 -0.5,-0.3 -0.9,-0.1 -1.2,-0.3 -0.3,-0.1 -0.5,-0.1 -0.5,-0.1 0,0 0.2,0.2 0.5,0.6 0.3,0.7 0.8,1.2 1.2,1 0.5,1 1,-0.5 1.4,0.5 0.4,0.6 -1,-0.7 -0.5,-0.8 6.1,3.6 -1.2,-2.1 -0.5,-0.5 0.4,-0.5 0.7,1.4 0.7,0.4 z" /><path
   style="opacity:0.17600002;fill:#004e04;fill-opacity:1"
   inkscape:connector-curvature="0"
   id="path33795-9-0"
   d="m 234.6,261.1 c 0,0.4 -0.1,0.4 -0.3,-0.9 -0.2,3 -0.6,-2.1 -1,-1.5 -0.5,0.3 -0.6,0.3 -0.8,-0.1 -0.2,1.1 -0.5,-0.2 -1.4,0.1 -0.6,-1.8 0.9,1.1 0.4,0.6 -0.5,-0.3 -0.9,-0.1 -1.2,-0.3 -0.3,-0.1 -0.5,-0.1 -0.5,-0.1 0,0 0.2,0.2 0.5,0.6 0.3,0.7 0.8,1.2 1.2,1 0.5,1 -1,-1.5 -0.6,-0.5 0.4,0.6 1,0.3 1.5,0.2 0.5,0.3 1.1,-0.5 1.5,0.5 0.4,-0.5 0.7,1.4 0.7,0.4 z" /><path
   style="opacity:0.17600002;fill:#004e04;fill-opacity:1"
   inkscape:connector-curvature="0"
   id="path33797-0-4"
   d="m 239.2,265.8 c 0,0.4 -0.1,0.4 -0.3,-0.9 -0.2,3 -0.6,-2.1 -1,-1.5 -0.5,0.3 -0.6,0.3 -0.8,-0.1 -0.2,1.1 -0.6,-1.3 -1.5,-1 -0.6,-1.8 -1.2,1.1 -1.7,0.6 -0.5,-0.3 -0.9,-0.1 -1.2,-0.3 -0.3,-0.1 -0.5,-0.1 -0.5,-0.1 0,0 0.2,0.2 0.5,0.6 0.3,0.7 0.8,1.2 1.2,1 0.5,1 1.1,-1.5 1.5,-0.5 0.4,0.6 1.1,1.5 1.6,1.4 0.6,0.3 1.1,-0.5 1.5,0.5 0.4,-0.5 0.7,1.4 0.7,0.3 z" /><path
   style="opacity:0.17600002;fill:#004e04;fill-opacity:1"
   inkscape:connector-curvature="0"
   id="path33799-6-2"
   d="m 211.2,249.3 c 0,0.4 -0.1,0.4 -0.3,-0.9 -0.2,3 -0.6,-2.1 -1,-1.5 -0.5,0.3 -2.7,0.3 -2.9,-0.1 -0.2,1.1 1.5,0.8 0.6,1.1 -0.6,-1.8 -1.2,1.1 -1.7,0.6 -0.6,-0.3 1,1 0.7,0.7 -0.3,-0.1 -0.5,-0.1 -0.5,-0.1 0,0 0.2,0.2 0.5,0.6 0.3,0.7 -1.2,0.2 -0.8,0 0.5,1 1.1,-1.5 1.5,-0.5 0.4,0.6 -1,-0.7 -0.5,-0.8 0.5,0.3 3.2,-0.5 3.6,0.5 0.5,-0.4 0.8,1.4 0.8,0.4 z" /><path
   style="opacity:0.17600002;fill:#004e04;fill-opacity:1"
   inkscape:connector-curvature="0"
   id="path33801-9-5"
   d="m 249.3,271.4 c 0,0.4 -0.1,0.4 -0.3,-0.9 -0.2,3 -0.8,-2.2 -1.3,-1.6 -0.5,0.3 -0.6,0.3 -0.8,-0.1 -0.2,1.1 -0.5,-0.2 -1.4,0.1 -0.6,-1.8 -2.4,-1.2 -2.8,-1.6 -0.5,-0.3 -2.7,-0.8 -3,-1.1 -0.3,-0.1 -1.5,-1.2 -1.5,-1.2 0,0 0.2,0.2 0.5,0.6 0.3,0.7 2.8,2.2 3.2,2 0.5,1 -2.9,-1.4 -2.5,-0.4 0.4,0.6 3,1.3 3.5,1.2 0.5,0.3 5.3,1.6 5.7,2.6 0.4,-0.4 0.7,1.4 0.7,0.4 z" /><path
   style="opacity:0.17600002;fill:#004e04;fill-opacity:1"
   inkscape:connector-curvature="0"
   id="path33803-3-5"
   d="m 231.3,257.4 c 0,0.4 -0.1,0.4 -0.3,-0.9 -0.2,3 -6.8,-5.2 -7.3,-4.6 -0.5,0.3 -0.6,0.3 -0.8,-0.1 -0.2,1.1 -0.5,-0.2 -1.4,0.1 -0.6,-1.8 1.6,0.8 1.2,0.4 -0.5,-0.3 -0.7,0.2 -1,-0.1 -0.3,-0.1 -1.5,-1.2 -1.5,-1.2 0,0 0.2,0.2 0.5,0.6 0.3,0.7 0.8,1.2 1.2,1 0.5,1 -0.9,-0.4 -0.5,0.6 0.4,0.6 1,0.3 1.5,0.2 0.5,0.3 7.3,2.6 7.7,3.6 0.4,-0.4 0.7,1.4 0.7,0.4 z" /><path
   style="fill:#ffffff;fill-opacity:1"
   inkscape:connector-curvature="0"
   id="path33785-3-4"
   d="m 296.6,304.5 c 0,0 -0.7,-0.2 -1.5,-0.6 -0.4,-0.2 -0.6,-0.4 -1.2,-0.7 -0.6,-0.6 -1.2,-0.7 -1.9,-0.9 -0.7,-0.8 -3.5,-2 -4.3,-2.1 -0.8,-0.2 -1.7,-0.4 -2.6,-1.3 -0.9,-0.7 -1.9,-1.1 -2.9,-1.5 -0.5,-0.2 -0.4,-0.6 -0.9,-0.9 -0.5,-0.3 -1,-0.5 -1.5,-0.8 -0.9,0.3 -2.4,-0.6 -3.3,-1.3 -1,0.2 -3.9,-2.3 -4.9,-2.4 -1,0.8 -1.9,-1.7 -2.9,-1.4 -0.9,-0.5 -1.2,-1.2 -2.1,-1.7 -1,-0.5 -4.8,-1.9 -5.8,-2.3 -1,-0.8 -3.9,-2.4 -4.8,-2.4 -0.9,-0.2 -1.7,-0.4 -2.5,-1.2 -0.8,-0.8 -1.4,-1.2 -2.1,-1 -0.6,-0.3 -0.7,-0.9 -1.1,-1.1 -0.8,-0.5 -1.7,-0.4 -1.7,-0.4 v -8 l 8,-4 c 0,0 2.1,1.3 2.9,1.7 0.4,0.2 1.2,0.4 1.7,0.7 0.6,-0.6 3.2,2.7 3.9,1.9 0.7,0.4 1.5,0.4 2.3,1.1 0.8,0.1 1.7,0.6 2.6,1.3 0.9,0.3 1.9,1.2 2.8,1.4 0.5,0.2 2.3,1.5 2.8,1.8 0.5,0.3 1.7,0.5 2.2,0.7 0.9,0.2 1.9,0.8 2.9,1.4 1,1.5 1.9,0.4 2.9,1.4 1,0.2 1.9,2.2 2.9,1.4 0.9,-0.2 3.9,1.9 4.8,2.4 1,0.5 2,1.2 3,1.6 1,0 2,-0.1 2.9,1.3 0.9,-0.4 1.7,0.6 2.5,1.2 0.8,1.9 1.4,-0.1 2.1,1 0.6,-1 1.1,0.6 1.6,0.8 0.7,0.7 1.2,0.9 1.2,0.9 v 8 c 0,0 -0.1,0.1 -0.3,0.2 -0.2,0.1 -0.7,0.7 -1.1,0.9 -0.4,0.1 -0.6,0.3 -1.1,0.2 -0.5,0.4 -1,0.7 -1.5,0.7 -0.5,0.2 -1,0 -1.5,0.7 -0.5,0.2 -0.9,-0.1 -1.3,0.1 -0.7,0.4 -1.2,1.2 -1.2,1.2 z" /><path
   style="opacity:0.11000001"
   inkscape:connector-curvature="0"
   id="path33787-4-6"
   d="m 296.6,304.5 c 0,0 -0.7,-0.2 -1.5,-0.6 -0.4,-0.2 -0.6,-0.4 -1.2,-0.7 -0.6,-0.6 -1.2,-0.7 -1.9,-0.9 -0.7,-0.8 -3.5,-2 -4.3,-2.1 -0.8,-0.2 -1.7,-0.4 -2.6,-1.3 -0.9,-0.7 -1.9,-1.1 -2.9,-1.5 -0.5,-0.2 -0.4,-0.6 -0.9,-0.9 -0.5,-0.3 -1,-0.5 -1.5,-0.8 -0.9,0.3 -2.4,-0.6 -3.3,-1.3 -1,0.2 -3.9,-2.3 -4.9,-2.4 -1,0.8 -1.9,-1.7 -2.9,-1.4 -0.9,-0.5 -1.2,-1.2 -2.1,-1.7 -1,-0.5 -4.8,-1.9 -5.8,-2.3 -1,-0.8 -3.9,-2.4 -4.8,-2.4 -0.9,-0.2 -1.7,-0.4 -2.5,-1.2 -0.8,-0.8 -1.4,-1.2 -2.1,-1 -0.6,-0.3 -0.7,-0.9 -1.1,-1.1 -0.8,-0.5 -1.7,-0.4 -1.7,-0.4 v -8 c 0,0 0.5,0.7 2.5,1.8 0.3,0.1 1.5,0.2 1.9,0.4 0.4,0.1 0.8,1.1 1.2,0.6 0.4,-0.3 0.9,-0.2 1.3,0.7 0.5,0.5 0.9,0.8 1.4,0.7 0.5,0.5 2.8,1.7 3.3,2.3 0.5,0.4 3.2,0.5 3.7,1.2 0.5,0.3 1.1,0.5 1.6,0.8 0.6,0.3 1.4,0.2 2,0.5 0.5,0.2 0.6,0.8 1.1,1 0.5,0.2 0.6,0.8 1.1,1.3 0.5,0.4 1.3,0.2 1.8,0.1 0.5,0.7 1,0.2 1.4,0.7 0.5,0.1 3,2.3 3.4,1.7 0.5,-0.1 1,0.7 1.4,0.7 0.5,0.2 2.2,2.1 2.7,2.4 1.9,0.9 1.1,-0.6 2.8,0.3 0.5,0.2 1.4,1.3 1.8,1.6 0.5,0.1 1.8,0.8 2.2,0.6 0.4,0 2.8,1.3 3.2,1.6 0.4,-0.7 0.8,0.9 1.1,0.6 0.4,0.5 1.1,-1.1 1.4,-0.3 0.3,0.4 0.3,0.5 0.6,1.3 0.3,-0.2 0.7,0.8 1,1 1.6,0.6 2.1,0.4 2.1,0.4 z" /><path
   style="opacity:0.17600002;fill:#004e04;fill-opacity:1"
   inkscape:connector-curvature="0"
   id="path33791-1-4"
   d="m 264.6,278.1 c 0,0.4 -0.1,0.4 -0.3,-0.9 -0.2,3 1.4,-1.1 1,-0.5 -0.5,0.3 -0.6,0.3 -0.8,-0.1 -0.2,1.1 1.5,0.8 0.6,1.1 -0.6,-1.8 -1.1,0.1 -1.6,-0.4 -0.5,-0.3 -2.9,-1.1 -3.2,-1.3 -0.3,-0.1 -0.5,-0.1 -0.5,-0.1 0,0 0.2,0.2 0.5,0.6 0.3,0.7 2.8,2.2 3.2,2 0.5,1 1,-0.5 1.4,0.5 0.4,0.6 -1,-0.7 -0.5,-0.8 6.1,3.6 -1.2,-2.1 -0.5,-0.5 0.4,-0.5 0.7,1.4 0.7,0.4 z" /><path
   style="opacity:0.17600002;fill:#004e04;fill-opacity:1"
   inkscape:connector-curvature="0"
   id="path33793-8-2"
   d="m 294.6,289.1 c 0,0.4 -0.1,0.4 -0.3,-0.9 -0.2,3 1.4,-1.1 1,-0.5 -0.5,0.3 -0.6,0.3 -0.8,-0.1 -0.2,1.1 1.5,0.8 0.6,1.1 -0.6,-1.8 -1.1,0.1 -1.6,-0.4 -0.5,-0.3 -0.9,-0.1 -1.2,-0.3 -0.3,-0.1 -0.5,-0.1 -0.5,-0.1 0,0 0.2,0.2 0.5,0.6 0.3,0.7 0.8,1.2 1.2,1 0.5,1 1,-0.5 1.4,0.5 0.4,0.6 -1,-0.7 -0.5,-0.8 6.1,3.6 -1.2,-2.1 -0.5,-0.5 0.4,-0.5 0.7,1.4 0.7,0.4 z" /><path
   style="opacity:0.17600002;fill:#004e04;fill-opacity:1"
   inkscape:connector-curvature="0"
   id="path33795-9-2"
   d="m 280.6,285.1 c 0,0.4 -0.1,0.4 -0.3,-0.9 -0.2,3 -0.6,-2.1 -1,-1.5 -0.5,0.3 -0.6,0.3 -0.8,-0.1 -0.2,1.1 -0.5,-0.2 -1.4,0.1 -0.6,-1.8 0.9,1.1 0.4,0.6 -0.5,-0.3 -0.9,-0.1 -1.2,-0.3 -0.3,-0.1 -0.5,-0.1 -0.5,-0.1 0,0 0.2,0.2 0.5,0.6 0.3,0.7 0.8,1.2 1.2,1 0.5,1 -1,-1.5 -0.6,-0.5 0.4,0.6 1,0.3 1.5,0.2 0.5,0.3 1.1,-0.5 1.5,0.5 0.4,-0.5 0.7,1.4 0.7,0.4 z" /><path
   style="opacity:0.17600002;fill:#004e04;fill-opacity:1"
   inkscape:connector-curvature="0"
   id="path33797-0-1"
   d="m 287.2,289.8 c 0,0.4 -0.1,0.4 -0.3,-0.9 -0.2,3 -0.6,-2.1 -1,-1.5 -0.5,0.3 -0.6,0.3 -0.8,-0.1 -0.2,1.1 -0.6,-1.3 -1.5,-1 -0.6,-1.8 -1.2,1.1 -1.7,0.6 -0.5,-0.3 -0.9,-0.1 -1.2,-0.3 -0.3,-0.1 -0.5,-0.1 -0.5,-0.1 0,0 0.2,0.2 0.5,0.6 0.3,0.7 0.8,1.2 1.2,1 0.5,1 1.1,-1.5 1.5,-0.5 0.4,0.6 1.1,1.5 1.6,1.4 0.6,0.3 1.1,-0.5 1.5,0.5 0.4,-0.5 0.7,1.4 0.7,0.3 z" /><path
   style="opacity:0.17600002;fill:#004e04;fill-opacity:1"
   inkscape:connector-curvature="0"
   id="path33799-6-6"
   d="m 257.2,273.3 c 0,0.4 -0.1,0.4 -0.3,-0.9 -0.2,3 -0.6,-2.1 -1,-1.5 -0.5,0.3 -2.7,0.3 -2.9,-0.1 -0.2,1.1 1.5,0.8 0.6,1.1 -0.6,-1.8 -1.2,1.1 -1.7,0.6 -0.6,-0.3 1,1 0.7,0.7 -0.3,-0.1 -0.5,-0.1 -0.5,-0.1 0,0 0.2,0.2 0.5,0.6 0.3,0.7 -1.2,0.2 -0.8,0 0.5,1 1.1,-1.5 1.5,-0.5 0.4,0.6 -1,-0.7 -0.5,-0.8 0.5,0.3 3.2,-0.5 3.6,0.5 0.5,-0.4 0.8,1.4 0.8,0.4 z" /><path
   style="opacity:0.17600002;fill:#004e04;fill-opacity:1"
   inkscape:connector-curvature="0"
   id="path33801-9-7"
   d="m 297.3,295.4 c 0,0.4 -0.1,0.4 -0.3,-0.9 -0.2,3 -0.8,-2.2 -1.3,-1.6 -0.5,0.3 -0.6,0.3 -0.8,-0.1 -0.2,1.1 -0.5,-0.2 -1.4,0.1 -0.6,-1.8 -2.4,-1.2 -2.8,-1.6 -0.5,-0.3 -2.7,-0.8 -3,-1.1 -0.3,-0.1 -1.5,-1.2 -1.5,-1.2 0,0 0.2,0.2 0.5,0.6 0.3,0.7 2.8,2.2 3.2,2 0.5,1 -2.9,-1.4 -2.5,-0.4 0.4,0.6 3,1.3 3.5,1.2 0.5,0.3 5.3,1.6 5.7,2.6 0.4,-0.4 0.7,1.4 0.7,0.4 z" /><path
   style="opacity:0.17600002;fill:#004e04;fill-opacity:1"
   inkscape:connector-curvature="0"
   id="path33803-3-6"
   d="m 277.3,281.4 c 0,0.4 -0.1,0.4 -0.3,-0.9 -0.2,3 -6.8,-5.2 -7.3,-4.6 -0.5,0.3 -0.6,0.3 -0.8,-0.1 -0.2,1.1 -0.5,-0.2 -1.4,0.1 -0.6,-1.8 1.6,0.8 1.2,0.4 -0.5,-0.3 -0.7,0.2 -1,-0.1 -0.3,-0.1 -1.5,-1.2 -1.5,-1.2 0,0 0.2,0.2 0.5,0.6 0.3,0.7 0.8,1.2 1.2,1 0.5,1 -0.9,-0.4 -0.5,0.6 0.4,0.6 1,0.3 1.5,0.2 0.5,0.3 7.3,2.6 7.7,3.6 0.4,-0.4 0.7,1.4 0.7,0.4 z" /><path
   style="fill:#ffffff;fill-opacity:1"
   inkscape:connector-curvature="0"
   id="path33785"
   d="m 399.8,308.5 c 0,0 0.7,-0.2 1.5,-0.6 0.4,-0.2 0.6,-0.4 1.2,-0.7 0.6,-0.6 1.2,-0.7 1.9,-0.9 0.7,-0.8 3.5,-2 4.3,-2.1 0.8,-0.2 1.7,-0.4 2.6,-1.3 0.9,-0.7 1.9,-1.1 2.9,-1.5 0.5,-0.2 0.4,-0.6 0.9,-0.9 0.5,-0.3 1,-0.5 1.5,-0.8 0.9,0.3 2.4,-0.6 3.3,-1.3 1,0.2 3.9,-2.3 4.9,-2.4 1,0.8 1.9,-1.7 2.9,-1.4 0.9,-0.5 1.2,-1.2 2.1,-1.7 1,-0.5 4.8,-1.9 5.8,-2.3 1,-0.8 3.9,-2.4 4.8,-2.4 0.9,-0.2 1.7,-0.4 2.5,-1.2 0.8,-0.8 1.4,-1.2 2.1,-1 0.6,-0.3 0.7,-0.9 1.1,-1.1 0.8,-0.5 1.7,-0.4 1.7,-0.4 v -8 l -8,-4 c 0,0 -2.1,1.3 -2.9,1.7 -0.4,0.2 -1.2,0.4 -1.7,0.7 -0.6,-0.6 -3.2,2.7 -3.9,1.9 -0.7,0.4 -1.5,0.4 -2.3,1.1 -0.8,0.1 -1.7,0.6 -2.6,1.3 -0.9,0.3 -1.9,1.2 -2.8,1.4 -0.5,0.2 -2.3,1.5 -2.8,1.8 -0.5,0.3 -1.7,0.5 -2.2,0.7 -0.9,0.2 -1.9,0.8 -2.9,1.4 -1,1.5 -1.9,0.4 -2.9,1.4 -1,0.2 -1.9,2.2 -2.9,1.4 -0.9,-0.2 -3.9,1.9 -4.8,2.4 -1,0.5 -2,1.2 -3,1.6 -1,0 -2,-0.1 -2.9,1.3 -0.9,-0.4 -1.7,0.6 -2.5,1.2 -0.8,1.9 -1.4,-0.1 -2.1,1 -0.6,-1 -1.1,0.6 -1.6,0.8 -0.7,0.7 -1.2,0.9 -1.2,0.9 v 8 c 0,0 0.1,0.1 0.3,0.2 0.2,0.1 0.7,0.7 1.1,0.9 0.4,0.1 0.6,0.3 1.1,0.2 0.5,0.4 1,0.7 1.5,0.7 0.5,0.2 1,0 1.5,0.7 0.5,0.2 0.9,-0.1 1.3,0.1 0.7,0.4 1.2,1.2 1.2,1.2 z" /><path
   style="opacity:0.28999999"
   inkscape:connector-curvature="0"
   id="path33787"
   d="m 399.8,308.5 c 0,0 0.7,-0.2 1.5,-0.6 0.4,-0.2 0.6,-0.4 1.2,-0.7 0.6,-0.6 1.2,-0.7 1.9,-0.9 0.7,-0.8 3.5,-2 4.3,-2.1 0.8,-0.2 1.7,-0.4 2.6,-1.3 0.9,-0.7 1.9,-1.1 2.9,-1.5 0.5,-0.2 0.4,-0.6 0.9,-0.9 0.5,-0.3 1,-0.5 1.5,-0.8 0.9,0.3 2.4,-0.6 3.3,-1.3 1,0.2 3.9,-2.3 4.9,-2.4 1,0.8 1.9,-1.7 2.9,-1.4 0.9,-0.5 1.2,-1.2 2.1,-1.7 1,-0.5 4.8,-1.9 5.8,-2.3 1,-0.8 3.9,-2.4 4.8,-2.4 0.9,-0.2 1.7,-0.4 2.5,-1.2 0.8,-0.8 1.4,-1.2 2.1,-1 0.6,-0.3 0.7,-0.9 1.1,-1.1 0.8,-0.5 1.7,-0.4 1.7,-0.4 v -8 c 0,0 -0.5,0.7 -2.5,1.8 -0.3,0.1 -1.5,0.2 -1.9,0.4 -0.4,0.1 -0.8,1.1 -1.2,0.6 -0.4,-0.3 -0.9,-0.2 -1.3,0.7 -0.5,0.5 -0.9,0.8 -1.4,0.7 -0.5,0.5 -2.8,1.7 -3.3,2.3 -0.5,0.4 -3.2,0.5 -3.7,1.2 -0.5,0.3 -1.1,0.5 -1.6,0.8 -0.6,0.3 -1.4,0.2 -2,0.5 -0.5,0.2 -0.6,0.8 -1.1,1 -0.5,0.2 -0.6,0.8 -1.1,1.3 -0.5,0.4 -1.3,0.2 -1.8,0.1 -0.5,0.7 -1,0.2 -1.4,0.7 -0.5,0.1 -3,2.3 -3.4,1.7 -0.5,-0.1 -1,0.7 -1.4,0.7 -0.5,0.2 -2.2,2.1 -2.7,2.4 -1.9,0.9 -1.1,-0.6 -2.8,0.3 -0.5,0.2 -1.4,1.3 -1.8,1.6 -0.5,0.1 -1.8,0.8 -2.2,0.6 -0.4,0 -2.8,1.3 -3.2,1.6 -0.4,-0.7 -0.8,0.9 -1.1,0.6 -0.4,0.5 -1.1,-1.1 -1.4,-0.3 -0.3,0.4 -0.3,0.5 -0.6,1.3 -0.3,-0.2 -0.7,0.8 -1,1 -1.6,0.6 -2.1,0.4 -2.1,0.4 z" /><path
   style="opacity:0.11000001"
   inkscape:connector-curvature="0"
   id="path33789"
   d="m 391.8,296.5 v 8 c 0,0 0.1,0.1 0.3,0.2 0.2,0.1 0.7,0.7 1.1,0.9 0.4,0.1 0.6,0.3 1.1,0.2 0.5,0.4 1,0.7 1.5,0.7 0.5,0.2 1,0 1.5,0.7 0.5,0.2 0.9,-0.1 1.3,0.1 0.7,0.4 1.2,1.2 1.2,1.2 v -8 c 0,0 -0.1,-0.1 -0.3,-0.2 -0.3,-0.1 -1.3,0.4 -1.7,0.2 -0.4,-0.7 -0.1,-1.6 -0.5,-1.3 -0.5,-0.3 -1,-0.3 -1.5,-0.7 -0.5,-0.4 -1,-1.4 -1.5,-0.7 -0.4,-0.6 -1.1,-0.1 -1.5,-0.3 -0.4,-0.2 -0.4,-0.7 -0.7,-0.8 -0.2,-0.1 -0.3,-0.2 -0.3,-0.2 z" /><path
   style="opacity:0.17600002;fill:#004e04;fill-opacity:1"
   inkscape:connector-curvature="0"
   id="path33791"
   d="m 431.8,282.1 c 0,0.4 0.1,0.4 0.3,-0.9 0.2,3 -1.4,-1.1 -1,-0.5 0.5,0.3 0.6,0.3 0.8,-0.1 0.2,1.1 -1.5,0.8 -0.6,1.1 0.6,-1.8 1.1,0.1 1.6,-0.4 0.5,-0.3 2.9,-1.1 3.2,-1.3 0.3,-0.1 0.5,-0.1 0.5,-0.1 0,0 -0.2,0.2 -0.5,0.6 -0.3,0.7 -2.8,2.2 -3.2,2 -0.5,1 -1,-0.5 -1.4,0.5 -0.4,0.6 1,-0.7 0.5,-0.8 -6.1,3.6 1.2,-2.1 0.5,-0.5 -0.4,-0.5 -0.7,1.4 -0.7,0.4 z" /><path
   style="opacity:0.17600002;fill:#004e04;fill-opacity:1"
   inkscape:connector-curvature="0"
   id="path33793"
   d="m 401.8,293.1 c 0,0.4 0.1,0.4 0.3,-0.9 0.2,3 -1.4,-1.1 -1,-0.5 0.5,0.3 0.6,0.3 0.8,-0.1 0.2,1.1 -1.5,0.8 -0.6,1.1 0.6,-1.8 1.1,0.1 1.6,-0.4 0.5,-0.3 0.9,-0.1 1.2,-0.3 0.3,-0.1 0.5,-0.1 0.5,-0.1 0,0 -0.2,0.2 -0.5,0.6 -0.3,0.7 -0.8,1.2 -1.2,1 -0.5,1 -1,-0.5 -1.4,0.5 -0.4,0.6 1,-0.7 0.5,-0.8 -6.1,3.6 1.2,-2.1 0.5,-0.5 -0.4,-0.5 -0.7,1.4 -0.7,0.4 z" /><path
   style="opacity:0.17600002;fill:#004e04;fill-opacity:1"
   inkscape:connector-curvature="0"
   id="path33795"
   d="m 415.8,289.1 c 0,0.4 0.1,0.4 0.3,-0.9 0.2,3 0.6,-2.1 1,-1.5 0.5,0.3 0.6,0.3 0.8,-0.1 0.2,1.1 0.5,-0.2 1.4,0.1 0.6,-1.8 -0.9,1.1 -0.4,0.6 0.5,-0.3 0.9,-0.1 1.2,-0.3 0.3,-0.1 0.5,-0.1 0.5,-0.1 0,0 -0.2,0.2 -0.5,0.6 -0.3,0.7 -0.8,1.2 -1.2,1 -0.5,1 1,-1.5 0.6,-0.5 -0.4,0.6 -1,0.3 -1.5,0.2 -0.5,0.3 -1.1,-0.5 -1.5,0.5 -0.4,-0.5 -0.7,1.4 -0.7,0.4 z" /><path
   style="opacity:0.17600002;fill:#004e04;fill-opacity:1"
   inkscape:connector-curvature="0"
   id="path33797"
   d="m 409.2,293.8 c 0,0.4 0.1,0.4 0.3,-0.9 0.2,3 0.6,-2.1 1,-1.5 0.5,0.3 0.6,0.3 0.8,-0.1 0.2,1.1 0.6,-1.3 1.5,-1 0.6,-1.8 1.2,1.1 1.7,0.6 0.5,-0.3 0.9,-0.1 1.2,-0.3 0.3,-0.1 0.5,-0.1 0.5,-0.1 0,0 -0.2,0.2 -0.5,0.6 -0.3,0.7 -0.8,1.2 -1.2,1 -0.5,1 -1.1,-1.5 -1.5,-0.5 -0.4,0.6 -1.1,1.5 -1.6,1.4 -0.6,0.3 -1.1,-0.5 -1.5,0.5 -0.4,-0.5 -0.7,1.4 -0.7,0.3 z" /><path
   style="opacity:0.17600002;fill:#004e04;fill-opacity:1"
   inkscape:connector-curvature="0"
   id="path33799"
   d="m 439.2,277.3 c 0,0.4 0.1,0.4 0.3,-0.9 0.2,3 0.6,-2.1 1,-1.5 0.5,0.3 2.7,0.3 2.9,-0.1 0.2,1.1 -1.5,0.8 -0.6,1.1 0.6,-1.8 1.2,1.1 1.7,0.6 0.6,-0.3 -1,1 -0.7,0.7 0.3,-0.1 0.5,-0.1 0.5,-0.1 0,0 -0.2,0.2 -0.5,0.6 -0.3,0.7 1.2,0.2 0.8,0 -0.5,1 -1.1,-1.5 -1.5,-0.5 -0.4,0.6 1,-0.7 0.5,-0.8 -0.5,0.3 -3.2,-0.5 -3.6,0.5 -0.5,-0.4 -0.8,1.4 -0.8,0.4 z" /><path
   style="opacity:0.17600002;fill:#004e04;fill-opacity:1"
   inkscape:connector-curvature="0"
   id="path33801"
   d="m 399.1,299.4 c 0,0.4 0.1,0.4 0.3,-0.9 0.2,3 0.8,-2.2 1.3,-1.6 0.5,0.3 0.6,0.3 0.8,-0.1 0.2,1.1 0.5,-0.2 1.4,0.1 0.6,-1.8 2.4,-1.2 2.8,-1.6 0.5,-0.3 2.7,-0.8 3,-1.1 0.3,-0.1 1.5,-1.2 1.5,-1.2 0,0 -0.2,0.2 -0.5,0.6 -0.3,0.7 -2.8,2.2 -3.2,2 -0.5,1 2.9,-1.4 2.5,-0.4 -0.4,0.6 -3,1.3 -3.5,1.2 -0.5,0.3 -5.3,1.6 -5.7,2.6 -0.4,-0.4 -0.7,1.4 -0.7,0.4 z" /><path
   style="opacity:0.17600002;fill:#004e04;fill-opacity:1"
   inkscape:connector-curvature="0"
   id="path33803"
   d="m 419.1,285.4 c 0,0.4 0.1,0.4 0.3,-0.9 0.2,3 6.8,-5.2 7.3,-4.6 0.5,0.3 0.6,0.3 0.8,-0.1 0.2,1.1 0.5,-0.2 1.4,0.1 0.6,-1.8 -1.6,0.8 -1.2,0.4 0.5,-0.3 0.7,0.2 1,-0.1 0.3,-0.1 1.5,-1.2 1.5,-1.2 0,0 -0.2,0.2 -0.5,0.6 -0.3,0.7 -0.8,1.2 -1.2,1 -0.5,1 0.9,-0.4 0.5,0.6 -0.4,0.6 -1,0.3 -1.5,0.2 -0.5,0.3 -7.3,2.6 -7.7,3.6 -0.4,-0.4 -0.7,1.4 -0.7,0.4 z" />
<path
   style="fill:#ffffff;fill-opacity:1"
   inkscape:connector-curvature="0"
   id="path33785-3"
   d="m 344.6,328.5 c 0,0 -0.7,-0.2 -1.5,-0.6 -0.4,-0.2 -0.6,-0.4 -1.2,-0.7 -0.6,-0.6 -1.2,-0.7 -1.9,-0.9 -0.7,-0.8 -3.5,-2 -4.3,-2.1 -0.8,-0.2 -1.7,-0.4 -2.6,-1.3 -0.9,-0.7 -1.9,-1.1 -2.9,-1.5 -0.5,-0.2 -0.4,-0.6 -0.9,-0.9 -0.5,-0.3 -1,-0.5 -1.5,-0.8 -0.9,0.3 -2.4,-0.6 -3.3,-1.3 -1,0.2 -3.9,-2.3 -4.9,-2.4 -1,0.8 -1.9,-1.7 -2.9,-1.4 -0.9,-0.5 -1.2,-1.2 -2.1,-1.7 -1,-0.5 -4.8,-1.9 -5.8,-2.3 -1,-0.8 -3.9,-2.4 -4.8,-2.4 -0.9,-0.2 -1.7,-0.4 -2.5,-1.2 -0.8,-0.8 -1.4,-1.2 -2.1,-1 -0.6,-0.3 -0.7,-0.9 -1.1,-1.1 -0.8,-0.5 -1.7,-0.4 -1.7,-0.4 v -8 l 8,-4 c 0,0 2.1,1.3 2.9,1.7 0.4,0.2 1.2,0.4 1.7,0.7 0.6,-0.6 3.2,2.7 3.9,1.9 0.7,0.4 1.5,0.4 2.3,1.1 0.8,0.1 1.7,0.6 2.6,1.3 0.9,0.3 1.9,1.2 2.8,1.4 0.5,0.2 2.3,1.5 2.8,1.8 0.5,0.3 1.7,0.5 2.2,0.7 0.9,0.2 1.9,0.8 2.9,1.4 1,1.5 1.9,0.4 2.9,1.4 1,0.2 1.9,2.2 2.9,1.4 0.9,-0.2 3.9,1.9 4.8,2.4 1,0.5 2,1.2 3,1.6 1,0 2,-0.1 2.9,1.3 0.9,-0.4 1.7,0.6 2.5,1.2 0.8,1.9 1.4,-0.1 2.1,1 0.6,-1 1.1,0.6 1.6,0.8 0.7,0.7 1.2,0.9 1.2,0.9 v 8 c 0,0 -0.1,0.1 -0.3,0.2 -0.2,0.1 -0.7,0.7 -1.1,0.9 -0.4,0.1 -0.6,0.3 -1.1,0.2 -0.5,0.4 -1,0.7 -1.5,0.7 -0.5,0.2 -1,0 -1.5,0.7 -0.5,0.2 -0.9,-0.1 -1.3,0.1 -0.7,0.4 -1.2,1.2 -1.2,1.2 z" /><path
   style="opacity:0.11000001"
   inkscape:connector-curvature="0"
   id="path33787-4"
   d="m 344.6,328.5 c 0,0 -0.7,-0.2 -1.5,-0.6 -0.4,-0.2 -0.6,-0.4 -1.2,-0.7 -0.6,-0.6 -1.2,-0.7 -1.9,-0.9 -0.7,-0.8 -3.5,-2 -4.3,-2.1 -0.8,-0.2 -1.7,-0.4 -2.6,-1.3 -0.9,-0.7 -1.9,-1.1 -2.9,-1.5 -0.5,-0.2 -0.4,-0.6 -0.9,-0.9 -0.5,-0.3 -1,-0.5 -1.5,-0.8 -0.9,0.3 -2.4,-0.6 -3.3,-1.3 -1,0.2 -3.9,-2.3 -4.9,-2.4 -1,0.8 -1.9,-1.7 -2.9,-1.4 -0.9,-0.5 -1.2,-1.2 -2.1,-1.7 -1,-0.5 -4.8,-1.9 -5.8,-2.3 -1,-0.8 -3.9,-2.4 -4.8,-2.4 -0.9,-0.2 -1.7,-0.4 -2.5,-1.2 -0.8,-0.8 -1.4,-1.2 -2.1,-1 -0.6,-0.3 -0.7,-0.9 -1.1,-1.1 -0.8,-0.5 -1.7,-0.4 -1.7,-0.4 v -8 c 0,0 0.5,0.7 2.5,1.8 0.3,0.1 1.5,0.2 1.9,0.4 0.4,0.1 0.8,1.1 1.2,0.6 0.4,-0.3 0.9,-0.2 1.3,0.7 0.5,0.5 0.9,0.8 1.4,0.7 0.5,0.5 2.8,1.7 3.3,2.3 0.5,0.4 3.2,0.5 3.7,1.2 0.5,0.3 1.1,0.5 1.6,0.8 0.6,0.3 1.4,0.2 2,0.5 0.5,0.2 0.6,0.8 1.1,1 0.5,0.2 0.6,0.8 1.1,1.3 0.5,0.4 1.3,0.2 1.8,0.1 0.5,0.7 1,0.2 1.4,0.7 0.5,0.1 3,2.3 3.4,1.7 0.5,-0.1 1,0.7 1.4,0.7 0.5,0.2 2.2,2.1 2.7,2.4 1.9,0.9 1.1,-0.6 2.8,0.3 0.5,0.2 1.4,1.3 1.8,1.6 0.5,0.1 1.8,0.8 2.2,0.6 0.4,0 2.8,1.3 3.2,1.6 0.4,-0.7 0.8,0.9 1.1,0.6 0.4,0.5 1.1,-1.1 1.4,-0.3 0.3,0.4 0.3,0.5 0.6,1.3 0.3,-0.2 0.7,0.8 1,1 1.6,0.6 2.1,0.4 2.1,0.4 z" /><path
   style="opacity:0.17600002;fill:#004e04;fill-opacity:1"
   inkscape:connector-curvature="0"
   id="path33791-1"
   d="m 312.6,302.1 c 0,0.4 -0.1,0.4 -0.3,-0.9 -0.2,3 1.4,-1.1 1,-0.5 -0.5,0.3 -0.6,0.3 -0.8,-0.1 -0.2,1.1 1.5,0.8 0.6,1.1 -0.6,-1.8 -1.1,0.1 -1.6,-0.4 -0.5,-0.3 -2.9,-1.1 -3.2,-1.3 -0.3,-0.1 -0.5,-0.1 -0.5,-0.1 0,0 0.2,0.2 0.5,0.6 0.3,0.7 2.8,2.2 3.2,2 0.5,1 1,-0.5 1.4,0.5 0.4,0.6 -1,-0.7 -0.5,-0.8 6.1,3.6 -1.2,-2.1 -0.5,-0.5 0.4,-0.5 0.7,1.4 0.7,0.4 z" /><path
   style="opacity:0.17600002;fill:#004e04;fill-opacity:1"
   inkscape:connector-curvature="0"
   id="path33793-8"
   d="m 342.6,313.1 c 0,0.4 -0.1,0.4 -0.3,-0.9 -0.2,3 1.4,-1.1 1,-0.5 -0.5,0.3 -0.6,0.3 -0.8,-0.1 -0.2,1.1 1.5,0.8 0.6,1.1 -0.6,-1.8 -1.1,0.1 -1.6,-0.4 -0.5,-0.3 -0.9,-0.1 -1.2,-0.3 -0.3,-0.1 -0.5,-0.1 -0.5,-0.1 0,0 0.2,0.2 0.5,0.6 0.3,0.7 0.8,1.2 1.2,1 0.5,1 1,-0.5 1.4,0.5 0.4,0.6 -1,-0.7 -0.5,-0.8 6.1,3.6 -1.2,-2.1 -0.5,-0.5 0.4,-0.5 0.7,1.4 0.7,0.4 z" /><path
   style="opacity:0.17600002;fill:#004e04;fill-opacity:1"
   inkscape:connector-curvature="0"
   id="path33795-9"
   d="m 328.6,309.1 c 0,0.4 -0.1,0.4 -0.3,-0.9 -0.2,3 -0.6,-2.1 -1,-1.5 -0.5,0.3 -0.6,0.3 -0.8,-0.1 -0.2,1.1 -0.5,-0.2 -1.4,0.1 -0.6,-1.8 0.9,1.1 0.4,0.6 -0.5,-0.3 -0.9,-0.1 -1.2,-0.3 -0.3,-0.1 -0.5,-0.1 -0.5,-0.1 0,0 0.2,0.2 0.5,0.6 0.3,0.7 0.8,1.2 1.2,1 0.5,1 -1,-1.5 -0.6,-0.5 0.4,0.6 1,0.3 1.5,0.2 0.5,0.3 1.1,-0.5 1.5,0.5 0.4,-0.5 0.7,1.4 0.7,0.4 z" /><path
   style="opacity:0.17600002;fill:#004e04;fill-opacity:1"
   inkscape:connector-curvature="0"
   id="path33797-0"
   d="m 335.2,313.8 c 0,0.4 -0.1,0.4 -0.3,-0.9 -0.2,3 -0.6,-2.1 -1,-1.5 -0.5,0.3 -0.6,0.3 -0.8,-0.1 -0.2,1.1 -0.6,-1.3 -1.5,-1 -0.6,-1.8 -1.2,1.1 -1.7,0.6 -0.5,-0.3 -0.9,-0.1 -1.2,-0.3 -0.3,-0.1 -0.5,-0.1 -0.5,-0.1 0,0 0.2,0.2 0.5,0.6 0.3,0.7 0.8,1.2 1.2,1 0.5,1 1.1,-1.5 1.5,-0.5 0.4,0.6 1.1,1.5 1.6,1.4 0.6,0.3 1.1,-0.5 1.5,0.5 0.4,-0.5 0.7,1.4 0.7,0.3 z" /><path
   style="opacity:0.17600002;fill:#004e04;fill-opacity:1"
   inkscape:connector-curvature="0"
   id="path33799-6"
   d="m 305.2,297.3 c 0,0.4 -0.1,0.4 -0.3,-0.9 -0.2,3 -0.6,-2.1 -1,-1.5 -0.5,0.3 -2.7,0.3 -2.9,-0.1 -0.2,1.1 1.5,0.8 0.6,1.1 -0.6,-1.8 -1.2,1.1 -1.7,0.6 -0.6,-0.3 1,1 0.7,0.7 -0.3,-0.1 -0.5,-0.1 -0.5,-0.1 0,0 0.2,0.2 0.5,0.6 0.3,0.7 -1.2,0.2 -0.8,0 0.5,1 1.1,-1.5 1.5,-0.5 0.4,0.6 -1,-0.7 -0.5,-0.8 0.5,0.3 3.2,-0.5 3.6,0.5 0.5,-0.4 0.8,1.4 0.8,0.4 z" /><path
   style="opacity:0.17600002;fill:#004e04;fill-opacity:1"
   inkscape:connector-curvature="0"
   id="path33801-9"
   d="m 345.3,319.4 c 0,0.4 -0.1,0.4 -0.3,-0.9 -0.2,3 -0.8,-2.2 -1.3,-1.6 -0.5,0.3 -0.6,0.3 -0.8,-0.1 -0.2,1.1 -0.5,-0.2 -1.4,0.1 -0.6,-1.8 -2.4,-1.2 -2.8,-1.6 -0.5,-0.3 -2.7,-0.8 -3,-1.1 -0.3,-0.1 -1.5,-1.2 -1.5,-1.2 0,0 0.2,0.2 0.5,0.6 0.3,0.7 2.8,2.2 3.2,2 0.5,1 -2.9,-1.4 -2.5,-0.4 0.4,0.6 3,1.3 3.5,1.2 0.5,0.3 5.3,1.6 5.7,2.6 0.4,-0.4 0.7,1.4 0.7,0.4 z" /><path
   style="opacity:0.17600002;fill:#004e04;fill-opacity:1"
   inkscape:connector-curvature="0"
   id="path33803-3"
   d="m 325.3,305.4 c 0,0.4 -0.1,0.4 -0.3,-0.9 -0.2,3 -6.8,-5.2 -7.3,-4.6 -0.5,0.3 -0.6,0.3 -0.8,-0.1 -0.2,1.1 -0.5,-0.2 -1.4,0.1 -0.6,-1.8 1.6,0.8 1.2,0.4 -0.5,-0.3 -0.7,0.2 -1,-0.1 -0.3,-0.1 -1.5,-1.2 -1.5,-1.2 0,0 0.2,0.2 0.5,0.6 0.3,0.7 0.8,1.2 1.2,1 0.5,1 -0.9,-0.4 -0.5,0.6 0.4,0.6 1,0.3 1.5,0.2 0.5,0.3 7.3,2.6 7.7,3.6 0.4,-0.4 0.7,1.4 0.7,0.4 z" /><path
   style="fill:#ffffff;fill-opacity:1"
   inkscape:connector-curvature="0"
   id="path33785-0"
   d="m 352.1,332.3 c 0,0 0.7,-0.2 1.5,-0.6 0.4,-0.2 0.6,-0.4 1.2,-0.7 0.6,-0.6 1.2,-0.7 1.9,-0.9 0.7,-0.8 3.5,-2 4.3,-2.1 0.8,-0.2 1.7,-0.4 2.6,-1.3 0.9,-0.7 1.9,-1.1 2.9,-1.5 0.5,-0.2 0.4,-0.6 0.9,-0.9 0.5,-0.3 1,-0.5 1.5,-0.8 0.9,0.3 2.4,-0.6 3.3,-1.3 1,0.2 3.9,-2.3 4.9,-2.4 1,0.8 1.9,-1.7 2.9,-1.4 0.9,-0.5 1.2,-1.2 2.1,-1.7 1,-0.5 4.8,-1.9 5.8,-2.3 1,-0.8 3.9,-2.4 4.8,-2.4 0.9,-0.2 1.7,-0.4 2.5,-1.2 0.8,-0.8 1.4,-1.2 2.1,-1 0.6,-0.3 0.7,-0.9 1.1,-1.1 0.8,-0.5 1.7,-0.4 1.7,-0.4 v -8 l -8,-4 c 0,0 -2.1,1.3 -2.9,1.7 -0.4,0.2 -1.2,0.4 -1.7,0.7 -0.6,-0.6 -3.2,2.7 -3.9,1.9 -0.7,0.4 -1.5,0.4 -2.3,1.1 -0.8,0.1 -1.7,0.6 -2.6,1.3 -0.9,0.3 -1.9,1.2 -2.8,1.4 -0.5,0.2 -2.3,1.5 -2.8,1.8 -0.5,0.3 -1.7,0.5 -2.2,0.7 -0.9,0.2 -1.9,0.8 -2.9,1.4 -1,1.5 -1.9,0.4 -2.9,1.4 -1,0.2 -1.9,2.2 -2.9,1.4 -0.9,-0.2 -3.9,1.9 -4.8,2.4 -1,0.5 -2,1.2 -3,1.6 -1,0 -2,-0.1 -2.9,1.3 -0.9,-0.4 -1.7,0.6 -2.5,1.2 -0.8,1.9 -1.4,-0.1 -2.1,1 -0.6,-1 -1.1,0.6 -1.6,0.8 -0.7,0.7 -1.2,0.9 -1.2,0.9 v 8 c 0,0 0.1,0.1 0.3,0.2 0.2,0.1 0.7,0.7 1.1,0.9 0.4,0.1 0.6,0.3 1.1,0.2 0.5,0.4 1,0.7 1.5,0.7 0.5,0.2 1,0 1.5,0.7 0.5,0.2 0.9,-0.1 1.3,0.1 0.7,0.4 1.2,1.2 1.2,1.2 z" /><path
   style="opacity:0.28999999"
   inkscape:connector-curvature="0"
   id="path33787-8"
   d="m 352.1,332.3 c 0,0 0.7,-0.2 1.5,-0.6 0.4,-0.2 0.6,-0.4 1.2,-0.7 0.6,-0.6 1.2,-0.7 1.9,-0.9 0.7,-0.8 3.5,-2 4.3,-2.1 0.8,-0.2 1.7,-0.4 2.6,-1.3 0.9,-0.7 1.9,-1.1 2.9,-1.5 0.5,-0.2 0.4,-0.6 0.9,-0.9 0.5,-0.3 1,-0.5 1.5,-0.8 0.9,0.3 2.4,-0.6 3.3,-1.3 1,0.2 3.9,-2.3 4.9,-2.4 1,0.8 1.9,-1.7 2.9,-1.4 0.9,-0.5 1.2,-1.2 2.1,-1.7 1,-0.5 4.8,-1.9 5.8,-2.3 1,-0.8 3.9,-2.4 4.8,-2.4 0.9,-0.2 1.7,-0.4 2.5,-1.2 0.8,-0.8 1.4,-1.2 2.1,-1 0.6,-0.3 0.7,-0.9 1.1,-1.1 0.8,-0.5 1.7,-0.4 1.7,-0.4 v -8 c 0,0 -0.5,0.7 -2.5,1.8 -0.3,0.1 -1.5,0.2 -1.9,0.4 -0.4,0.1 -0.8,1.1 -1.2,0.6 -0.4,-0.3 -0.9,-0.2 -1.3,0.7 -0.5,0.5 -0.9,0.8 -1.4,0.7 -0.5,0.5 -2.8,1.7 -3.3,2.3 -0.5,0.4 -3.2,0.5 -3.7,1.2 -0.5,0.3 -1.1,0.5 -1.6,0.8 -0.6,0.3 -1.4,0.2 -2,0.5 -0.5,0.2 -0.6,0.8 -1.1,1 -0.5,0.2 -0.6,0.8 -1.1,1.3 -0.5,0.4 -1.3,0.2 -1.8,0.1 -0.5,0.7 -1,0.2 -1.4,0.7 -0.5,0.1 -3,2.3 -3.4,1.7 -0.5,-0.1 -1,0.7 -1.4,0.7 -0.5,0.2 -2.2,2.1 -2.7,2.4 -1.9,0.9 -1.1,-0.6 -2.8,0.3 -0.5,0.2 -1.4,1.3 -1.8,1.6 -0.5,0.1 -1.8,0.8 -2.2,0.6 -0.4,0 -2.8,1.3 -3.2,1.6 -0.4,-0.7 -0.8,0.9 -1.1,0.6 -0.4,0.5 -1.1,-1.1 -1.4,-0.3 -0.3,0.4 -0.3,0.5 -0.6,1.3 -0.3,-0.2 -0.7,0.8 -1,1 -1.6,0.6 -2.1,0.4 -2.1,0.4 z" /><path
   style="opacity:0.11000001"
   inkscape:connector-curvature="0"
   id="path33789-9"
   d="m 344.1,320.3 v 8 c 0,0 0.1,0.1 0.3,0.2 0.2,0.1 0.7,0.7 1.1,0.9 0.4,0.1 0.6,0.3 1.1,0.2 0.5,0.4 1,0.7 1.5,0.7 0.5,0.2 1,0 1.5,0.7 0.5,0.2 0.9,-0.1 1.3,0.1 0.7,0.4 1.2,1.2 1.2,1.2 v -8 c 0,0 -0.1,-0.1 -0.3,-0.2 -0.3,-0.1 -1.3,0.4 -1.7,0.2 -0.4,-0.7 -0.1,-1.6 -0.5,-1.3 -0.5,-0.3 -1,-0.3 -1.5,-0.7 -0.5,-0.4 -1,-1.4 -1.5,-0.7 -0.4,-0.6 -1.1,-0.1 -1.5,-0.3 -0.4,-0.2 -0.4,-0.7 -0.7,-0.8 -0.2,-0.1 -0.3,-0.2 -0.3,-0.2 z" /><path
   style="opacity:0.17600002;fill:#004e04;fill-opacity:1"
   inkscape:connector-curvature="0"
   id="path33791-8"
   d="m 384.1,305.9 c 0,0.4 0.1,0.4 0.3,-0.9 0.2,3 -1.4,-1.1 -1,-0.5 0.5,0.3 0.6,0.3 0.8,-0.1 0.2,1.1 -1.5,0.8 -0.6,1.1 0.6,-1.8 1.1,0.1 1.6,-0.4 0.5,-0.3 2.9,-1.1 3.2,-1.3 0.3,-0.1 0.5,-0.1 0.5,-0.1 0,0 -0.2,0.2 -0.5,0.6 -0.3,0.7 -2.8,2.2 -3.2,2 -0.5,1 -1,-0.5 -1.4,0.5 -0.4,0.6 1,-0.7 0.5,-0.8 -6.1,3.6 1.2,-2.1 0.5,-0.5 -0.4,-0.5 -0.7,1.4 -0.7,0.4 z" /><path
   style="opacity:0.17600002;fill:#004e04;fill-opacity:1"
   inkscape:connector-curvature="0"
   id="path33793-3"
   d="m 354.1,316.9 c 0,0.4 0.1,0.4 0.3,-0.9 0.2,3 -1.4,-1.1 -1,-0.5 0.5,0.3 0.6,0.3 0.8,-0.1 0.2,1.1 -1.5,0.8 -0.6,1.1 0.6,-1.8 1.1,0.1 1.6,-0.4 0.5,-0.3 0.9,-0.1 1.2,-0.3 0.3,-0.1 0.5,-0.1 0.5,-0.1 0,0 -0.2,0.2 -0.5,0.6 -0.3,0.7 -0.8,1.2 -1.2,1 -0.5,1 -1,-0.5 -1.4,0.5 -0.4,0.6 1,-0.7 0.5,-0.8 -6.1,3.6 1.2,-2.1 0.5,-0.5 -0.4,-0.5 -0.7,1.4 -0.7,0.4 z" /><path
   style="opacity:0.17600002;fill:#004e04;fill-opacity:1"
   inkscape:connector-curvature="0"
   id="path33795-4"
   d="m 368.1,312.9 c 0,0.4 0.1,0.4 0.3,-0.9 0.2,3 0.6,-2.1 1,-1.5 0.5,0.3 0.6,0.3 0.8,-0.1 0.2,1.1 0.5,-0.2 1.4,0.1 0.6,-1.8 -0.9,1.1 -0.4,0.6 0.5,-0.3 0.9,-0.1 1.2,-0.3 0.3,-0.1 0.5,-0.1 0.5,-0.1 0,0 -0.2,0.2 -0.5,0.6 -0.3,0.7 -0.8,1.2 -1.2,1 -0.5,1 1,-1.5 0.6,-0.5 -0.4,0.6 -1,0.3 -1.5,0.2 -0.5,0.3 -1.1,-0.5 -1.5,0.5 -0.4,-0.5 -0.7,1.4 -0.7,0.4 z" /><path
   style="opacity:0.17600002;fill:#004e04;fill-opacity:1"
   inkscape:connector-curvature="0"
   id="path33797-3"
   d="m 361.5,317.6 c 0,0.4 0.1,0.4 0.3,-0.9 0.2,3 0.6,-2.1 1,-1.5 0.5,0.3 0.6,0.3 0.8,-0.1 0.2,1.1 0.6,-1.3 1.5,-1 0.6,-1.8 1.2,1.1 1.7,0.6 0.5,-0.3 0.9,-0.1 1.2,-0.3 0.3,-0.1 0.5,-0.1 0.5,-0.1 0,0 -0.2,0.2 -0.5,0.6 -0.3,0.7 -0.8,1.2 -1.2,1 -0.5,1 -1.1,-1.5 -1.5,-0.5 -0.4,0.6 -1.1,1.5 -1.6,1.4 -0.6,0.3 -1.1,-0.5 -1.5,0.5 -0.4,-0.5 -0.7,1.4 -0.7,0.3 z" /><path
   style="opacity:0.17600002;fill:#004e04;fill-opacity:1"
   inkscape:connector-curvature="0"
   id="path33799-7"
   d="m 391.5,301.1 c 0,0.4 0.1,0.4 0.3,-0.9 0.2,3 0.6,-2.1 1,-1.5 0.5,0.3 2.7,0.3 2.9,-0.1 0.2,1.1 -1.5,0.8 -0.6,1.1 0.6,-1.8 1.2,1.1 1.7,0.6 0.6,-0.3 -1,1 -0.7,0.7 0.3,-0.1 0.5,-0.1 0.5,-0.1 0,0 -0.2,0.2 -0.5,0.6 -0.3,0.7 1.2,0.2 0.8,0 -0.5,1 -1.1,-1.5 -1.5,-0.5 -0.4,0.6 1,-0.7 0.5,-0.8 -0.5,0.3 -3.2,-0.5 -3.6,0.5 -0.5,-0.4 -0.8,1.4 -0.8,0.4 z" /><path
   style="opacity:0.17600002;fill:#004e04;fill-opacity:1"
   inkscape:connector-curvature="0"
   id="path33801-5"
   d="m 351.4,323.2 c 0,0.4 0.1,0.4 0.3,-0.9 0.2,3 0.8,-2.2 1.3,-1.6 0.5,0.3 0.6,0.3 0.8,-0.1 0.2,1.1 0.5,-0.2 1.4,0.1 0.6,-1.8 2.4,-1.2 2.8,-1.6 0.5,-0.3 2.7,-0.8 3,-1.1 0.3,-0.1 1.5,-1.2 1.5,-1.2 0,0 -0.2,0.2 -0.5,0.6 -0.3,0.7 -2.8,2.2 -3.2,2 -0.5,1 2.9,-1.4 2.5,-0.4 -0.4,0.6 -3,1.3 -3.5,1.2 -0.5,0.3 -5.3,1.6 -5.7,2.6 -0.4,-0.4 -0.7,1.4 -0.7,0.4 z" /><path
   style="opacity:0.17600002;fill:#004e04;fill-opacity:1"
   inkscape:connector-curvature="0"
   id="path33803-8"
   d="m 371.4,309.2 c 0,0.4 0.1,0.4 0.3,-0.9 0.2,3 6.8,-5.2 7.3,-4.6 0.5,0.3 0.6,0.3 0.8,-0.1 0.2,1.1 0.5,-0.2 1.4,0.1 0.6,-1.8 -1.6,0.8 -1.2,0.4 0.5,-0.3 0.7,0.2 1,-0.1 0.3,-0.1 1.5,-1.2 1.5,-1.2 0,0 -0.2,0.2 -0.5,0.6 -0.3,0.7 -0.8,1.2 -1.2,1 -0.5,1 0.9,-0.4 0.5,0.6 -0.4,0.6 -1,0.3 -1.5,0.2 -0.5,0.3 -7.3,2.6 -7.7,3.6 -0.4,-0.4 -0.7,1.4 -0.7,0.4 z" /></svg>