<?xml version="1.0" encoding="UTF-8" standalone="no"?>
<!-- Generator: Adobe Illustrator 18.1.0, SVG Export Plug-In . SVG Version: 6.00 Build 0)  -->

<svg
   xmlns:dc="http://purl.org/dc/elements/1.1/"
   xmlns:cc="http://creativecommons.org/ns#"
   xmlns:rdf="http://www.w3.org/1999/02/22-rdf-syntax-ns#"
   xmlns:svg="http://www.w3.org/2000/svg"
   xmlns="http://www.w3.org/2000/svg"
   xmlns:sodipodi="http://sodipodi.sourceforge.net/DTD/sodipodi-0.dtd"
   xmlns:inkscape="http://www.inkscape.org/namespaces/inkscape"
   version="1.1"
   id="Layer_1"
   x="0px"
   y="0px"
   viewBox="0 0 64 64"
   enable-background="new 0 0 64 64"
   xml:space="preserve"
   sodipodi:docname="christmas-market.svg"
   inkscape:export-filename="C:\ML\Projekte\Adventskalender\assets\images\Item2.png"
   inkscape:export-xdpi="96"
   inkscape:export-ydpi="96"
   inkscape:version="0.92.4 (5da689c313, 2019-01-14)"><metadata
   id="metadata47593"><rdf:RDF><cc:Work
       rdf:about=""><dc:format>image/svg+xml</dc:format><dc:type
         rdf:resource="http://purl.org/dc/dcmitype/StillImage" /><dc:title></dc:title></cc:Work></rdf:RDF></metadata><defs
   id="defs47591" /><sodipodi:namedview
   pagecolor="#ffffff"
   bordercolor="#666666"
   borderopacity="1"
   objecttolerance="10"
   gridtolerance="10"
   guidetolerance="10"
   inkscape:pageopacity="0"
   inkscape:pageshadow="2"
   inkscape:window-width="3440"
   inkscape:window-height="1377"
   id="namedview47589"
   showgrid="false"
   inkscape:zoom="3.6875"
   inkscape:cx="16.677966"
   inkscape:cy="32"
   inkscape:window-x="-8"
   inkscape:window-y="-8"
   inkscape:window-maximized="1"
   inkscape:current-layer="Layer_1" />
<g
   id="g47504"
   transform="matrix(-1,0,0,1,64,0)">
	<g
   id="g47418">
		<polygon
   points="64,48 64,24 32,40 32,64 "
   id="polygon47396"
   style="fill:#762c07" />
		<polygon
   points="33,63.5 33,61.5 63,46.5 63,48.5 "
   id="polygon47398"
   style="opacity:0.4" />
		<polygon
   points="32,40 32,64 34,63 34,39 "
   id="polygon47400"
   style="fill:#e5e5e5" />
		<polygon
   points="64,24 64,48 62,49 62,25 "
   id="polygon47402"
   style="fill:#e5e5e5" />
		<polygon
   points="40,60 40,36 41,35.5 41,59.5 "
   id="polygon47404"
   style="opacity:0.15" />
		<polygon
   points="35,62.5 35,38.5 36,38 36,62 "
   id="polygon47406"
   style="opacity:0.15" />
		<polygon
   points="45,57.5 45,33.5 46,33 46,57 "
   id="polygon47408"
   style="opacity:0.15" />
		<polygon
   points="55,52.5 55,28.5 56,28 56,52 "
   id="polygon47410"
   style="opacity:0.15" />
		<polygon
   points="60,50 60,26 61,25.5 61,49.5 "
   id="polygon47412"
   style="opacity:0.15" />
		<polygon
   points="50,55 50,31 51,30.5 51,54.5 "
   id="polygon47414"
   style="opacity:0.15" />
		<polygon
   points="32,64 64,48 64,24 32,40 "
   id="polygon47416"
   style="opacity:0.28999999" />
	</g>
	<g
   id="g47494">
		<polygon
   points="32,64 32,40 16,16 0,24 0,48 "
   id="polygon47420"
   style="fill:#762c07" />
		<polygon
   points="2,49 2,47 32,62 32,64 "
   id="polygon47422"
   style="opacity:0.4" />
		<polygon
   points="0,24.6 0,48 2,49 2,23.5 "
   id="polygon47424"
   style="fill:#e5e5e5" />
		<polygon
   points="32,40 32,64 30,63 30,38 "
   id="polygon47426"
   style="fill:#e5e5e5" />
		<g
   id="g47440">
			<polygon
   points="8,51.5 8,20.5 9,21 9,52 "
   id="polygon47428"
   style="opacity:0.15" />
			<polygon
   points="3,49 3,23 4,23.5 4,49.5 "
   id="polygon47430"
   style="opacity:0.15" />
			<polygon
   points="13,54 13,18 14,18.5 14,54.5 "
   id="polygon47432"
   style="opacity:0.15" />
			<polygon
   points="23,59 23,28 24,28.5 24,59.5 "
   id="polygon47434"
   style="opacity:0.15" />
			<polygon
   points="28,61.5 28,35.5 29,36 29,62 "
   id="polygon47436"
   style="opacity:0.15" />
			<polygon
   points="18,56.5 18,20.5 19,21 19,57 "
   id="polygon47438"
   style="opacity:0.15" />
		</g>
		<polygon
   points="0,24 0,26 16,18 32,42 32,40 16,16 "
   id="polygon47442"
   style="fill:#e5e5e5" />
		<g
   id="g47450">
			<polygon
   points="26,52.5 26,40 6,30 6,42.5 "
   id="polygon47444"
   style="fill:#2d3134" />
			<polygon
   points="25,49 25,40.5 7,31.5 7,40 "
   id="polygon47446"
   style="fill:#ff9900" />
			<polygon
   points="25,41.5 25,40.5 7,31.5 7,32.5 "
   id="polygon47448"
   style="opacity:0.15" />
		</g>
		<g
   id="g47460">
			<g
   id="g47458">
				<polygon
   points="7,42 11,44 15,42 15,40 11,38 7,40 "
   id="polygon47452"
   style="fill:#f8ebcb" />
				<polygon
   points="15,42 15,40 11,42 11,44 "
   id="polygon47454"
   style="opacity:0.28999999" />
				<polygon
   points="7,42 7,40 11,42 11,44 "
   id="polygon47456"
   style="opacity:0.11000001" />
			</g>
		</g>
		<g
   id="g47470">
			<g
   id="g47468">
				<polygon
   points="11,44 15,46 19,44 19,42 15,40 11,42 "
   id="polygon47462"
   style="fill:#baa794" />
				<polygon
   points="19,44 19,42 15,44 15,46 "
   id="polygon47464"
   style="opacity:0.28999999" />
				<polygon
   points="11,44 11,42 15,44 15,46 "
   id="polygon47466"
   style="opacity:0.11000001" />
			</g>
		</g>
		<g
   id="g47480">
			<g
   id="g47478">
				<polygon
   points="15,46 19,48 23,46 23,44 19,42 15,44 "
   id="polygon47472"
   style="fill:#f8ebcb" />
				<polygon
   points="23,46 23,44 19,46 19,48 "
   id="polygon47474"
   style="opacity:0.28999999" />
				<polygon
   points="15,46 15,44 19,46 19,48 "
   id="polygon47476"
   style="opacity:0.11000001" />
			</g>
		</g>
		<g
   id="g47490">
			<g
   id="g47488">
				<polygon
   points="19,48 23,50 25,49 25,47 25,45 23,44 19,46 "
   id="polygon47482"
   style="fill:#999999" />
				<polygon
   points="25,49 25,47 23,48 23,50 "
   id="polygon47484"
   style="opacity:0.28999999" />
				<polygon
   points="19,48 19,46 23,48 23,50 "
   id="polygon47486"
   style="opacity:0.11000001" />
			</g>
		</g>
		<polygon
   points="0,24 0,48 32,64 32,40 16,16 "
   id="polygon47492"
   style="opacity:0.11000001" />
	</g>
	<polygon
   points="16,16 48,0 64,24 32,40 "
   id="polygon47496"
   style="fill:#2d3134" />
	<polygon
   points="16,16 48,0 64,24 32,40 "
   id="polygon47498"
   style="opacity:0.38999999" />
	<polygon
   points="16,16 48,0 32,8 0,24 "
   id="polygon47500"
   style="fill:#2d3134" />
	<polygon
   points="16,16 48,0 32,8 0,24 "
   id="polygon47502"
   style="opacity:0.06000001" />
</g>
<g
   id="g47526"
   transform="matrix(-1,0,0,1,64,0)">
	<path
   d="M 5,29.9 V 30 l 4,2 2.1,0.7 1.9,1.3 2,1 2,1 2,0.7 2,1.3 4,2 v 0 l 1,-0.1 c 1,0 1.9,-0.8 1.9,-1.9 L 25,36 22.7,35.2 C 22.5,35.1 22.3,35 22.1,34.9 L 21,34 18,32.5 17,32 14.1,30.9 13,30 9,28 H 6.9 C 5.8,28 5,28.8 5,29.9 Z"
   id="path47506"
   inkscape:connector-curvature="0"
   style="fill:#28896d" />
	<path
   d="M 11,29 9,28 H 7 c -1.1,0 -2,0.9 -2,2 v 0 l 2,1 v 0 c 0,-1.1 0.9,-2 2,-2 z"
   id="path47508"
   inkscape:connector-curvature="0"
   style="fill:#cc291f" />
	<path
   d="m 19,33 -2,-1 h -2 c -1.1,0 -2,0.9 -2,2 v 0 l 2,1 v 0 c 0,-1.1 0.9,-2 2,-2 z"
   id="path47510"
   inkscape:connector-curvature="0"
   style="fill:#cc291f" />
	<path
   d="m 27,37 -2,-1 h -2 c -1.1,0 -2,0.9 -2,2 v 0 l 2,1 v 0 c 0,-1.1 0.9,-2 2,-2 z"
   id="path47512"
   inkscape:connector-curvature="0"
   style="fill:#cc291f" />
	<g
   id="g47518">
		<circle
   cx="11"
   cy="31"
   r="1"
   id="circle47514"
   style="fill:#ffcc00" />
		<circle
   cx="11"
   cy="31"
   r="1"
   id="circle47516"
   style="fill:#ffcc00" />
	</g>
	<g
   id="g47524">
		<circle
   cx="19"
   cy="35"
   r="1"
   id="circle47520"
   style="fill:#ffcc00" />
		<circle
   cx="19"
   cy="35"
   r="1"
   id="circle47522"
   style="fill:#ffcc00" />
	</g>
</g>
<g
   id="g47532"
   transform="matrix(-1,0,0,1,64,0)">
	<circle
   cx="3"
   cy="25"
   r="1"
   id="circle47528"
   style="fill:#ffcc00" />
	<circle
   cx="3"
   cy="25"
   r="1"
   id="circle47530"
   style="fill:#ffcc00" />
</g>
<g
   id="g47538"
   transform="matrix(-1,0,0,1,64,0)">
	<circle
   cx="7"
   cy="23"
   r="1"
   id="circle47534"
   style="fill:#ffcc00" />
	<circle
   cx="7"
   cy="23"
   r="1"
   id="circle47536"
   style="fill:#ffcc00" />
</g>
<g
   id="g47544"
   transform="matrix(-1,0,0,1,64,0)">
	<circle
   cx="11"
   cy="21"
   r="1"
   id="circle47540"
   style="fill:#ffcc00" />
	<circle
   cx="11"
   cy="21"
   r="1"
   id="circle47542"
   style="fill:#ffcc00" />
</g>
<g
   id="g47550"
   transform="matrix(-1,0,0,1,64,0)">
	<circle
   cx="15"
   cy="19"
   r="1"
   id="circle47546"
   style="fill:#ffcc00" />
	<circle
   cx="15"
   cy="19"
   r="1"
   id="circle47548"
   style="fill:#ffcc00" />
</g>
<g
   id="g47556"
   transform="matrix(-1,0,0,1,64,0)">
	<circle
   cx="18"
   cy="22"
   r="1"
   id="circle47552"
   style="fill:#ffcc00" />
	<circle
   cx="18"
   cy="22"
   r="1"
   id="circle47554"
   style="fill:#ffcc00" />
</g>
<g
   id="g47562"
   transform="matrix(-1,0,0,1,64,0)">
	<circle
   cx="20"
   cy="25"
   r="1"
   id="circle47558"
   style="fill:#ffcc00" />
	<circle
   cx="20"
   cy="25"
   r="1"
   id="circle47560"
   style="fill:#ffcc00" />
</g>
<g
   id="g47568"
   transform="matrix(-1,0,0,1,64,0)">
	<circle
   cx="22"
   cy="28"
   r="1"
   id="circle47564"
   style="fill:#ffcc00" />
	<circle
   cx="22"
   cy="28"
   r="1"
   id="circle47566"
   style="fill:#ffcc00" />
</g>
<g
   id="g47574"
   transform="matrix(-1,0,0,1,64,0)">
	<circle
   cx="24"
   cy="31"
   r="1"
   id="circle47570"
   style="fill:#ffcc00" />
	<circle
   cx="24"
   cy="31"
   r="1"
   id="circle47572"
   style="fill:#ffcc00" />
</g>
<g
   id="g47580"
   transform="matrix(-1,0,0,1,64,0)">
	<circle
   cx="26"
   cy="34"
   r="1"
   id="circle47576"
   style="fill:#ffcc00" />
	<circle
   cx="26"
   cy="34"
   r="1"
   id="circle47578"
   style="fill:#ffcc00" />
</g>
<g
   id="g47586"
   transform="matrix(-1,0,0,1,64,0)">
	<circle
   cx="28"
   cy="37"
   r="1"
   id="circle47582"
   style="fill:#ffcc00" />
	<circle
   cx="28"
   cy="37"
   r="1"
   id="circle47584"
   style="fill:#ffcc00" />
</g>
</svg>