<?xml version="1.0" encoding="UTF-8" standalone="no"?>
<!-- Generator: Adobe Illustrator 18.1.0, SVG Export Plug-In . SVG Version: 6.00 Build 0)  -->

<svg
   xmlns:dc="http://purl.org/dc/elements/1.1/"
   xmlns:cc="http://creativecommons.org/ns#"
   xmlns:rdf="http://www.w3.org/1999/02/22-rdf-syntax-ns#"
   xmlns:svg="http://www.w3.org/2000/svg"
   xmlns="http://www.w3.org/2000/svg"
   xmlns:sodipodi="http://sodipodi.sourceforge.net/DTD/sodipodi-0.dtd"
   xmlns:inkscape="http://www.inkscape.org/namespaces/inkscape"
   version="1.1"
   id="Layer_1"
   x="0px"
   y="0px"
   viewBox="0 0 240 320"
   enable-background="new 0 0 240 320"
   xml:space="preserve"
   sodipodi:docname="deer-03.svg"
   inkscape:export-filename="C:\ML\Projekte\Adventskalender\assets\images\Item23.png"
   inkscape:export-xdpi="96"
   inkscape:export-ydpi="96"
   inkscape:version="0.92.4 (5da689c313, 2019-01-14)"><metadata
   id="metadata55554"><rdf:RDF><cc:Work
       rdf:about=""><dc:format>image/svg+xml</dc:format><dc:type
         rdf:resource="http://purl.org/dc/dcmitype/StillImage" /><dc:title></dc:title></cc:Work></rdf:RDF></metadata><defs
   id="defs55552" /><sodipodi:namedview
   pagecolor="#ffffff"
   bordercolor="#666666"
   borderopacity="1"
   objecttolerance="10"
   gridtolerance="10"
   guidetolerance="10"
   inkscape:pageopacity="0"
   inkscape:pageshadow="2"
   inkscape:window-width="3440"
   inkscape:window-height="1377"
   id="namedview55550"
   showgrid="false"
   inkscape:zoom="16.68772"
   inkscape:cx="123.94988"
   inkscape:cy="143.37251"
   inkscape:window-x="-8"
   inkscape:window-y="-8"
   inkscape:window-maximized="1"
   inkscape:current-layer="Layer_1" />
<g
   id="g55545"
   transform="matrix(-0.2,0,0,0.2,142.98964,140.06979)">
	<g
   id="g55529">
		<path
   d="m 85.1,290.8 c -17.5,-9.5 -55.3,-26.4 -29.3,-42.3 24.3,-14.8 57.8,6.3 75,15.4 25.3,13.4 50.7,31.7 35.2,41.4 -15.7,10 -47.9,3.4 -80.9,-14.5 z"
   id="path55491"
   inkscape:connector-curvature="0"
   style="opacity:0.2" />
		<path
   d="m 77.6,248.6 c 0,0 -0.9,4.3 1,5.6 1.9,1.2 6.2,2.8 8.7,1.6 2.5,-1.2 -1,-7.3 -1,-7.3 z"
   id="path55493"
   inkscape:connector-curvature="0"
   style="fill:#2d3134" />
		<path
   d="m 74.6,207.7 c 0,0 1.7,28.3 2.2,33.2 0.5,4.9 -0.6,10.1 1.6,11 2.2,0.9 8.7,-1.4 8.3,-2.8 -1.1,-3.7 -2.5,-19.7 -1.9,-25.4 0.6,-5.6 6.5,-25.1 6.5,-25.1 z"
   id="path55495"
   inkscape:connector-curvature="0"
   style="fill:#762c07" />
		<path
   d="m 74.6,207.7 c 0,0 1.7,28.3 2.2,33.2 0.5,4.9 -0.6,10.1 1.6,11 2.2,0.9 8.7,-1.4 8.3,-2.8 -1.1,-3.7 -2.5,-19.7 -1.9,-25.4 0.6,-5.6 6.5,-25.1 6.5,-25.1 z"
   id="path55497"
   inkscape:connector-curvature="0"
   style="opacity:0.2" />
		<path
   d="m 68.5,141.6 c -7,-3 -15.5,0.9 -16.4,8.4 -0.9,7.5 11.7,-1.8 11.7,-1.8 z"
   id="path55499"
   inkscape:connector-curvature="0"
   style="fill:#762c07" />
		<path
   d="m 159.2,293.5 c 0,0 0.2,4.1 1.1,4.4 0.9,0.3 7.3,1.4 8.9,0.7 1.6,-0.8 -1.2,-6.5 -1.2,-6.5 z"
   id="path55501"
   inkscape:connector-curvature="0"
   style="fill:#2d3134" />
		<path
   d="m 135.6,299.7 c 0,0 -0.7,3.4 1.3,4.3 2,0.9 7.3,1.2 8.5,0.7 1.1,-0.6 -0.8,-5.7 -0.8,-5.7 z"
   id="path55503"
   inkscape:connector-curvature="0"
   style="fill:#2d3134" />
		<path
   d="m 49.6,262.5 c -0.1,0.9 -0.6,3.2 2.7,5 3.3,1.8 5.7,1.8 7.2,0.9 1.5,-0.9 -0.9,-6.5 -0.9,-6.5 l -8.6,0.6 z"
   id="path55505"
   inkscape:connector-curvature="0"
   style="fill:#2d3134" />
		<path
   d="m 152.4,158.9 c -4,3.7 -21.8,0.9 -34,-8 -12.2,-8.9 -31.8,-24.5 -51.2,-10.7 -19.4,13.8 -8,33.6 -10.2,48.9 -2.2,15.3 -4.4,23.8 -5.8,26.7 -1.4,2.9 -1.9,6.2 -1.9,13.3 0,7.1 -1,33 -0.1,34.3 0.9,1.3 9.2,1.8 10,-0.4 0.5,-1.4 -0.9,-12.2 -0.1,-20 0.4,-4.2 0.1,-12 7.2,-19.8 7.1,-7.8 12.2,-16.2 12.2,-16.2 0,0 13.3,7.1 23.6,10.9 10.2,3.8 16.5,6 16.5,6 0,0 9.8,25.8 10.7,28.5 0.9,2.7 4,18.9 4.7,29.1 0.7,10.2 0,18.2 1.1,19.1 1.1,0.9 9.6,0.9 9.6,-1.6 0,-2.4 -3.1,-23.8 -2.7,-34.7 0.4,-10.9 4.9,-29.1 5.6,-30.9 0.7,-1.8 20,-5.1 24,-16.7 4,-11.6 5.3,-28.5 7.8,-34.5 2.4,-6 7.3,-16.5 7.3,-16.5 0,0 10,5.6 16.9,4.1 6.9,-1.5 6.2,-10.5 2,-16.7 -4.2,-6.2 -6.9,-14.5 -7.8,-16.3 -0.9,-1.8 -0.4,-11.8 -8.2,-14 -7.8,-2.2 -21.1,0.4 -24,8.7 -2.9,8.3 -8.1,22.8 -13.2,27.4 z"
   id="path55507"
   inkscape:connector-curvature="0"
   style="fill:#762c07" />
		<path
   d="m 169,137.8 c 3.1,-7.9 -16.9,-6.6 -18.4,-6.7 2.2,3.6 14.2,17.4 18.4,6.7 z"
   id="path55509"
   inkscape:connector-curvature="0"
   style="fill:#762c07" />
		<path
   d="m 190.5,129.9 c 6.3,2.9 6,-13.6 6.2,-14.9 -3.1,1.8 -14.8,11.1 -6.2,14.9 z"
   id="path55511"
   inkscape:connector-curvature="0"
   style="fill:#762c07" />
		<path
   d="m 177,144.8 c 0,0 1.2,-2.1 4,-2 2.8,0.1 4.2,2.8 4.2,2.8 0,0 -1.8,2.4 -4.1,2.2 -2.3,-0.2 -4.1,-3 -4.1,-3 z"
   id="path55513"
   inkscape:connector-curvature="0"
   style="fill:#2d3134" />
		<path
   d="m 193.1,168.4 c 3.4,1.3 7.4,2.2 10.5,1.5 6.9,-1.6 6.2,-10.5 2,-16.7 -0.1,-0.2 -0.2,-0.4 -0.4,-0.6 -3.9,0.5 -8.7,1.5 -10.6,6.9 -1,2.9 -1.4,6.1 -1.5,8.9 z"
   id="path55515"
   inkscape:connector-curvature="0"
   style="fill:#825012" />
		<path
   d="m 205.7,157.6 c -1.9,0.5 -5,0 -4.5,2.4 0.5,2.4 3.1,1.9 4.4,2.3 0.6,0.2 1.6,2.2 1.6,2.2 0,0 0.3,-2.3 1.2,-3.2 0.9,-0.9 0.7,-4 0,-4.4 -0.7,-0.4 -1.9,0.5 -2.7,0.7 z"
   id="path55517"
   inkscape:connector-curvature="0"
   style="fill:#2d3134" />
		<path
   d="m 148.6,229 c 0,0 7,30.9 8.1,42 1,11.1 1.6,23 2.7,23.9 1,0.9 9.6,0.3 9.5,-1.6 -0.1,-1.9 -2.5,-17.3 -3.6,-26.5 -1,-9.2 1.2,-26.2 1.5,-32.4 0.3,-6.2 4.3,-18.5 4.3,-18.5 z"
   id="path55519"
   inkscape:connector-curvature="0"
   style="fill:#762c07" />
		<path
   d="m 148.6,229 c 0,0 7,30.9 8.1,42 1,11.1 1.6,23 2.7,23.9 1,0.9 9.6,0.3 9.5,-1.6 -0.1,-1.9 -2.5,-17.3 -3.6,-26.5 -1,-9.2 1.2,-26.2 1.5,-32.4 0.3,-6.2 4.3,-18.5 4.3,-18.5 z"
   id="path55521"
   inkscape:connector-curvature="0"
   style="opacity:0.2" />
		<path
   d="m 174.6,127.4 c -1.5,-1.4 -20.1,-15 -32.8,-26.8 -0.1,-2 -0.1,-4.5 0.3,-7 1.6,-9.5 11.2,-17.8 11.2,-17.8 0,0 -4.7,2.2 -9.6,6.9 -3.7,3.6 -6.4,9.7 -7.5,12.5 -2.5,-2.7 -4.4,-5.1 -5.4,-7 -0.9,-6.6 2.5,-12.6 4.1,-14.8 -2.4,1.4 -5.4,5.3 -6.7,8.5 -3.1,-8.5 -4.2,-17 1.6,-32.2 -4.9,7 -17.2,28.8 5.5,51.7 4.5,4.5 8.5,8.5 11.9,11.9 -3.3,-0.9 -14.2,-3.9 -19.6,-8.9 -6.5,-5.9 -10.7,-14.6 -10.7,-14.6 0,0 1.1,16.7 18.1,24.2 7.7,3.4 14.8,5.4 20,6.4 8.8,8.4 13.1,11.9 14.8,12.9 2.7,1.7 7,-3.9 4.8,-5.9 z"
   id="path55523"
   inkscape:connector-curvature="0"
   style="fill:#825012" />
		<path
   d="m 186.6,123 c -0.9,-1.7 -13.6,-19.3 -21.5,-33.6 0.5,-1.8 1.2,-4 2.3,-6.2 4.2,-8 15.2,-12.6 15.2,-12.6 0,0 -4.8,0.6 -10.6,3.3 -4.4,2.1 -8.6,6.8 -10.3,9 -1.5,-3.1 -2.5,-5.8 -2.8,-7.9 1.1,-6.2 5.9,-10.5 8,-12.1 -2.6,0.6 -6.4,3.2 -8.5,5.7 -0.3,-8.5 1.2,-16.4 10.8,-28.4 -6.4,4.9 -23.8,20.7 -10.2,47.9 2.7,5.4 5.1,10.1 7.2,14.1 -2.7,-1.7 -11.6,-7.7 -15,-13.7 -4.1,-7.1 -5.3,-16.2 -5.3,-16.2 0,0 -4.1,15.3 9,27 5.9,5.3 11.7,9.1 16,11.6 5.4,10.1 8.2,14.5 9.5,15.9 2.1,2.4 7.6,-1.4 6.2,-3.8 z"
   id="path55525"
   inkscape:connector-curvature="0"
   style="fill:#825012" />
		<path
   d="m 171.6,216.8 c 4,-11.6 5.3,-28.5 7.8,-34.5 2.4,-6 7.3,-16.5 7.3,-16.5 l -10.8,-8.1 c 0,0 -13.6,22.8 -17.5,32.3 -3.9,9.5 -10.7,19.9 -11.3,28.2 -0.6,8.3 0.4,15.2 0.4,15.2 0.7,-1.7 20.1,-5.1 24.1,-16.6 z"
   id="path55527"
   inkscape:connector-curvature="0"
   style="fill:#825012" />
	</g>
	<path
   d="m 180.7,184.5 c -0.5,-0.1 -12.7,-1.5 -21.2,-7.4 -8.6,-6.1 -11.8,-16.9 -12,-17.3 l 4.8,-1.4 c 0,0.1 2.9,9.6 10,14.7 7.4,5.2 18.7,6.5 18.8,6.6 z"
   id="path55531"
   inkscape:connector-curvature="0"
   style="fill:#2d3134" />
	<g
   id="g55543">
		<path
   d="m 186.2,188.6 c 1.3,3.7 -2,5 -5.6,6.3 -3.7,1.3 -6.3,2 -7.6,-1.7 -1.3,-3.7 0,-10 3.6,-11.2 3.6,-1.2 8.4,3 9.6,6.6 z"
   id="path55533"
   inkscape:connector-curvature="0"
   style="fill:#ffcc00" />
		<polygon
   points="174,184.6 179.4,181.9 179.4,176.5 174,179.2 "
   id="polygon55535"
   style="fill:#cc291f" />
		<polygon
   points="174,184.6 179.4,181.9 179.4,176.5 174,179.2 "
   id="polygon55537"
   style="opacity:0.3" />
		<path
   d="m 174,179.2 h -8 c -1.6,0 -2.8,1.3 -2.8,2.8 v 5 c 0,2.3 2.7,3.6 4.5,2.3 l 6.3,-4.7 z"
   id="path55539"
   inkscape:connector-curvature="0"
   style="fill:#cc291f" />
		<path
   d="m 185.6,171.8 -6.3,4.7 v 5.4 h 8 c 1.6,0 2.8,-1.3 2.8,-2.8 v -5 c 0,-2.4 -2.6,-3.7 -4.5,-2.3 z"
   id="path55541"
   inkscape:connector-curvature="0"
   style="fill:#cc291f" />
	</g>
</g>

</svg>