<?xml version="1.0" encoding="UTF-8" standalone="no"?>
<!-- Generator: Adobe Illustrator 18.1.0, SVG Export Plug-In . SVG Version: 6.00 Build 0)  -->

<svg
   xmlns:dc="http://purl.org/dc/elements/1.1/"
   xmlns:cc="http://creativecommons.org/ns#"
   xmlns:rdf="http://www.w3.org/1999/02/22-rdf-syntax-ns#"
   xmlns:svg="http://www.w3.org/2000/svg"
   xmlns="http://www.w3.org/2000/svg"
   xmlns:sodipodi="http://sodipodi.sourceforge.net/DTD/sodipodi-0.dtd"
   xmlns:inkscape="http://www.inkscape.org/namespaces/inkscape"
   version="1.1"
   id="Layer_1"
   x="0px"
   y="0px"
   viewBox="0 0 240 320"
   enable-background="new 0 0 240 320"
   xml:space="preserve"
   sodipodi:docname="deer-02.svg"
   inkscape:export-filename="C:\ML\Projekte\Adventskalender\assets\images\Item17.png"
   inkscape:export-xdpi="96"
   inkscape:export-ydpi="96"
   inkscape:version="0.92.4 (5da689c313, 2019-01-14)"><metadata
   id="metadata56320"><rdf:RDF><cc:Work
       rdf:about=""><dc:format>image/svg+xml</dc:format><dc:type
         rdf:resource="http://purl.org/dc/dcmitype/StillImage" /><dc:title></dc:title></cc:Work></rdf:RDF></metadata><defs
   id="defs56318" /><sodipodi:namedview
   pagecolor="#ffffff"
   bordercolor="#666666"
   borderopacity="1"
   objecttolerance="10"
   gridtolerance="10"
   guidetolerance="10"
   inkscape:pageopacity="0"
   inkscape:pageshadow="2"
   inkscape:window-width="3440"
   inkscape:window-height="1377"
   id="namedview56316"
   showgrid="false"
   inkscape:zoom="0.7375"
   inkscape:cx="120"
   inkscape:cy="-273.89831"
   inkscape:window-x="-8"
   inkscape:window-y="-8"
   inkscape:window-maximized="1"
   inkscape:current-layer="Layer_1" />
<g
   id="g56313"
   transform="matrix(0.2,0,0,0.2,103.58966,128.60718)">
	<path
   d="m 90.3,262.8 c -17.4,9.4 -55.1,26.3 -29.2,42.1 24.2,14.8 57.6,-6.3 74.7,-15.4 25.2,-13.4 50.5,-31.6 35.1,-41.2 -15.7,-9.9 -47.8,-3.3 -80.6,14.5 z"
   id="path56277"
   inkscape:connector-curvature="0"
   style="opacity:0.2" />
	<path
   d="m 145.4,248.9 c 0,1.5 -0.8,3.6 2.3,4.7 3.1,1 7.7,-1.9 8.1,-3 0.4,-1 -2.7,-3.8 -2.7,-3.8 z"
   id="path56279"
   inkscape:connector-curvature="0"
   style="fill:#2d3134" />
	<path
   d="m 137.8,199.5 c 1.9,6.4 5.3,29 5.7,34.1 0.4,5.1 0.9,15.5 2,16.6 1.2,1.2 4.9,1 6.5,-0.1 1.6,-1.2 2.2,-1.5 1.8,-3.1 -0.4,-1.6 -2.5,-19.4 -2.8,-24.4 -0.3,-5 2.2,-36.6 2.2,-36.6 z"
   id="path56281"
   inkscape:connector-curvature="0"
   style="fill:#762c07" />
	<path
   d="m 137.8,199.5 c 1.9,6.4 5.3,29 5.7,34.1 0.4,5.1 0.9,15.5 2,16.6 1.2,1.2 4.9,1 6.5,-0.1 1.6,-1.2 2.2,-1.5 1.8,-3.1 -0.4,-1.6 -2.5,-19.4 -2.8,-24.4 -0.3,-5 2.2,-36.6 2.2,-36.6 z"
   id="path56283"
   inkscape:connector-curvature="0"
   style="opacity:0.2" />
	<path
   d="m 160.6,258.1 c -0.1,1 0,3.6 3.4,4.4 3.4,0.7 7.1,-1.9 7.1,-3.3 0,-1.4 -2.8,-3.8 -2.8,-3.8 z"
   id="path56285"
   inkscape:connector-curvature="0"
   style="fill:#2d3134" />
	<path
   d="m 78.8,304.3 c -0.1,1 -1,2.9 0,3.9 1.6,1.6 7,1.8 9,0.7 2,-1 2.3,-1.8 2,-2.6 -0.3,-0.9 -1.2,-3.1 -1.2,-3.1 z"
   id="path56287"
   inkscape:connector-curvature="0"
   style="fill:#2d3134" />
	<path
   d="m 54.6,288.4 c -0.9,2.5 -0.1,4.3 1.3,4.7 4.9,1.6 10,-0.2 9.8,-1.8 -0.1,-0.6 -2.2,-3.9 -2.2,-3.9 z"
   id="path56289"
   inkscape:connector-curvature="0"
   style="fill:#2d3134" />
	<path
   d="m 169.1,81.5 c 4.5,-5.4 16.8,-5.8 21.9,-1.5 5.1,4.4 10.5,6.7 12.7,7.9 2.2,1.2 5.1,7.7 0.7,11.7 -4.4,4 -13.7,7.4 -15.5,10.8 -1.8,3.4 -4.6,11.6 -7,21.3 -2.3,9.6 -5,20.3 -4.7,23.6 0.3,3.4 0.3,17.1 -1.6,27.3 -1.9,10.2 -9,35.7 -9.2,40.5 -0.1,4.8 0.7,23.5 1.9,28.3 1.2,4.8 1.4,5.5 0.7,6.8 -0.8,1.4 -7.4,3.7 -8.4,1.4 -1,-2.3 -1.2,-10.2 -1.3,-15.6 -0.1,-5.4 -3.9,-32.4 -5.1,-36.6 -1.2,-4.2 -4.7,-10.5 -4.7,-10.5 0,0 -8.7,7.8 -12.8,9.8 -5.5,2.6 -15.5,9.2 -15.5,9.2 0,0 -6,17.2 -12.8,26.5 -6.9,9.3 -16.3,19.3 -18.8,28.7 -2.5,9.5 0.3,30.9 -0.4,33.1 -0.7,2.2 -6.1,3.6 -9.2,2.3 -3.1,-1.3 -1.3,-7 -1.5,-11.4 -0.1,-4.4 -2.5,-29 -2,-31.5 0.4,-2.5 9.3,-19.4 8.3,-25.4 -1,-6 -9.3,-22.3 -10.9,-23.6 -1.6,-1.3 -11.4,-14.4 -11.4,-27.1 0,-12.7 3.6,-25.8 14.4,-33.1 5.9,-4 25.1,-7.6 38.1,-10.4 13,-2.8 31.8,-10.2 36.6,-20 4.8,-9.8 11,-34.7 17.5,-42.5 z"
   id="path56291"
   inkscape:connector-curvature="0"
   style="fill:#762c07" />
	<path
   d="m 169.7,87.3 c 1,-4.8 -9.3,-9 -17,-5.2 3.3,1.9 15.3,14.2 17,5.2 z"
   id="path56293"
   inkscape:connector-curvature="0"
   style="fill:#762c07" />
	<path
   d="m 203.7,87.9 c -0.3,-0.2 -0.8,-0.4 -1.3,-0.7 1.2,3.4 1.6,8.7 1.4,12.9 0.2,-0.2 0.4,-0.4 0.6,-0.5 4.4,-4 1.5,-10.5 -0.7,-11.7 z"
   id="path56295"
   inkscape:connector-curvature="0"
   style="fill:#825012" />
	<path
   d="m 64.6,183.4 c -3.1,10.1 -5.4,39.2 -6.9,46.1 -1.5,6.9 -2.9,9.2 -3.2,11.7 -0.3,2.5 0,27.7 -0.1,32.1 -0.1,4.4 -1.2,15.6 0.7,16.6 1.9,1 8.9,2.1 9.2,-0.5 0.3,-2.6 -1.3,-17.4 -1.2,-22.6 0.1,-5.2 3.6,-24.9 11.7,-39.2 8,-14.3 12,-22.2 12,-22.2 z"
   id="path56297"
   inkscape:connector-curvature="0"
   style="fill:#762c07" />
	<path
   d="m 64.6,183.4 c -3.1,10.1 -5.4,39.2 -6.9,46.1 -1.5,6.9 -2.9,9.2 -3.2,11.7 -0.3,2.5 0,27.7 -0.1,32.1 -0.1,4.4 -1.2,15.6 0.7,16.6 1.9,1 8.9,2.1 9.2,-0.5 0.3,-2.6 -1.3,-17.4 -1.2,-22.6 0.1,-5.2 3.6,-24.9 11.7,-39.2 8,-14.3 12,-22.2 12,-22.2 z"
   id="path56299"
   inkscape:connector-curvature="0"
   style="opacity:0.2" />
	<path
   d="m 70.7,217 c 3.9,-2.6 5.9,-1.5 5.9,-1.5 l 1.5,6.1 c 5.8,-10.6 8.7,-16.3 8.7,-16.3 L 64.6,183.4 c -3.1,10.1 -5.4,39.2 -6.9,46.1 -1.5,6.9 -2.9,9.2 -3.2,11.7 -0.3,2.5 0,27.7 -0.1,32.1 -0.1,4.4 -1.2,15.6 0.7,16.6 0.7,0.4 2.1,0.9 3.6,1.2 -0.2,-12.2 -0.5,-38.8 1,-45.9 2,-9.1 7,-25.5 11,-28.2 z"
   id="path56301"
   inkscape:connector-curvature="0"
   style="fill:#825012" />
	<path
   d="m 98.2,186.8 c -12.6,-20.4 -24.5,-21 -32.5,-18 -2.3,5.8 -3.2,12.3 -3.2,18.6 0,12.7 9.8,25.8 11.4,27.1 0.1,0.1 0.4,0.4 0.6,0.7 1.3,-0.2 2,0.2 2,0.2 l 1.5,6 c 2.9,5.6 6.2,13.1 6.8,16.7 1,6 -7.9,22.9 -8.3,25.4 -0.4,2.5 1.9,27.1 2,31.5 0.1,4.4 -1.6,10.1 1.5,11.4 0.8,0.3 1.8,0.5 2.8,0.5 -0.7,-10.6 -2.2,-37.3 0.1,-41.8 2.9,-5.6 28.9,-56.4 15.3,-78.3 z"
   id="path56303"
   inkscape:connector-curvature="0"
   style="fill:#825012" />
	<path
   d="M 174.1,79.6 C 172.7,78.5 155,67.5 142.8,57.8 c -0.3,-1.8 -0.4,-4 -0.2,-6.3 0.8,-8.7 8.8,-16.8 8.8,-16.8 0,0 -4.1,2.3 -8.1,6.8 -3.1,3.5 -5.1,9.2 -5.8,11.7 -2.4,-2.2 -4.3,-4.3 -5.3,-5.9 -1.3,-5.9 1.4,-11.5 2.6,-13.6 -2.1,1.4 -4.5,5.1 -5.4,8.1 -3.4,-7.4 -5,-15 -0.8,-29 -3.9,6.6 -13.4,27.1 8.6,46 4.4,3.8 8.2,7 11.6,9.8 -3,-0.5 -13,-2.5 -18.2,-6.6 C 124.4,57.2 120,49.7 120,49.7 c 0,0 2,15 17.8,20.6 7.1,2.5 13.7,3.8 18.4,4.4 8.5,6.9 12.6,9.8 14.2,10.5 2.3,1.4 5.8,-4 3.7,-5.6 z"
   id="path56305"
   inkscape:connector-curvature="0"
   style="fill:#825012" />
	<path
   d="M 186.2,85.5 C 185,84.1 169.6,70.2 159.4,58.4 c 0.1,-1.8 0.3,-4 0.9,-6.3 2.3,-8.4 11.7,-14.9 11.7,-14.9 0,0 -4.4,1.5 -9.2,5.2 -3.7,2.8 -6.6,8.1 -7.9,10.5 -2,-2.6 -3.5,-5 -4.2,-6.8 -0.2,-6 3.4,-11 5,-12.9 -2.3,1 -5.4,4.2 -6.8,7 -2,-7.9 -2.2,-15.6 4.4,-28.7 -5,5.8 -18.1,24.2 0.1,46.8 3.6,4.5 6.8,8.4 9.6,11.8 C 160.1,69 150.7,65.3 146.2,60.3 141,54.4 138,46.2 138,46.2 c 0,0 -0.7,15.1 13.8,23.5 6.6,3.8 12.8,6.2 17.3,7.6 7.1,8.3 10.6,11.9 12.1,13 2.4,1.8 6.7,-2.8 5,-4.8 z"
   id="path56307"
   inkscape:connector-curvature="0"
   style="fill:#825012" />
	<path
   d="m 79.9,162.9 c -3.8,-3 -13.1,0.8 -17.9,10.1 -2.1,4 -4.1,14.7 0.1,14.4 4.2,-0.3 10.5,-11.8 12.8,-14 4.7,-4.4 6.3,-9.5 5,-10.5 z"
   id="path56309"
   inkscape:connector-curvature="0"
   style="fill:#762c07" />
	<path
   d="m 202,87.3 c -0.8,0.1 0.3,1.7 1.8,2.2 1.5,0.5 2,0.7 2,0.7 0,0 -0.9,-3.2 -3.8,-2.9 z"
   id="path56311"
   inkscape:connector-curvature="0"
   style="fill:#2d3134" />
</g>
</svg>