<?xml version="1.0" encoding="UTF-8" standalone="no"?>
<!-- Generator: Adobe Illustrator 18.1.0, SVG Export Plug-In . SVG Version: 6.00 Build 0)  -->

<svg
   xmlns:dc="http://purl.org/dc/elements/1.1/"
   xmlns:cc="http://creativecommons.org/ns#"
   xmlns:rdf="http://www.w3.org/1999/02/22-rdf-syntax-ns#"
   xmlns:svg="http://www.w3.org/2000/svg"
   xmlns="http://www.w3.org/2000/svg"
   xmlns:sodipodi="http://sodipodi.sourceforge.net/DTD/sodipodi-0.dtd"
   xmlns:inkscape="http://www.inkscape.org/namespaces/inkscape"
   version="1.1"
   id="Layer_1"
   x="0px"
   y="0px"
   viewBox="0 0 80 80"
   xml:space="preserve"
   sodipodi:docname="hen-01.svg"
   inkscape:export-filename="C:\ML\Projekte\Adventskalender\assets\images\Item15.png"
   inkscape:export-xdpi="96"
   inkscape:export-ydpi="96"
   inkscape:version="0.92.4 (5da689c313, 2019-01-14)"><metadata
   id="metadata58448"><rdf:RDF><cc:Work
       rdf:about=""><dc:format>image/svg+xml</dc:format><dc:type
         rdf:resource="http://purl.org/dc/dcmitype/StillImage" /><dc:title></dc:title></cc:Work></rdf:RDF></metadata><defs
   id="defs58446" /><sodipodi:namedview
   pagecolor="#ffffff"
   bordercolor="#666666"
   borderopacity="1"
   objecttolerance="10"
   gridtolerance="10"
   guidetolerance="10"
   inkscape:pageopacity="0"
   inkscape:pageshadow="2"
   inkscape:window-width="3440"
   inkscape:window-height="1377"
   id="namedview58444"
   showgrid="false"
   inkscape:zoom="2.95"
   inkscape:cx="40"
   inkscape:cy="40"
   inkscape:window-x="-8"
   inkscape:window-y="-8"
   inkscape:window-maximized="1"
   inkscape:current-layer="Layer_1" />
<g
   id="g58441"
   transform="matrix(0.2,0,0,0.2,30.466667,31.700671)">
	<path
   d="m 24.5,61.8 c -6.5,4 -6.9,8.7 1.4,13.2 9.2,4.9 14.6,3.9 21.7,-0.3 6.2,-3.6 4.8,-8.5 -5.7,-12.8 C 33.5,58.6 29.1,59 24.5,61.8 Z"
   id="path58421"
   inkscape:connector-curvature="0"
   style="opacity:0.2" />
	<path
   d="m 39.7,61.7 c -0.1,1.1 -1.5,7.6 -2.3,8.7 -0.8,1.1 -5.8,4.2 -5.8,4.2 l 5.2,-1.7 1.2,3.1 0.7,-3.4 4.1,-1.8 -3.4,-0.3 c 0,0 1.5,-4.9 1.9,-6.2 0.4,-1.3 0.6,-2.5 0.6,-2.5 z"
   id="path58423"
   inkscape:connector-curvature="0"
   style="fill:#baa794" />
	<path
   d="m 32.6,58.1 c 0,0 -1.7,7.3 -2.1,8.1 -0.4,0.9 -6.1,3.6 -6.1,3.6 l 5,-1.4 0.7,3 1.3,-3 4.1,-1.3 -3,-0.6 c 0,0 1.4,-5.4 1.8,-6.8 0.4,-1.4 0.2,-1.9 0.2,-1.9 z"
   id="path58425"
   inkscape:connector-curvature="0"
   style="fill:#baa794" />
	<path
   d="m 25.5,25.8 c 3.9,-2.7 11.7,-4.7 16.2,-4.3 4.5,0.4 12.4,2.8 13.5,4.6 1.1,1.9 7.9,16.1 0.4,25.6 -4.5,5.7 -9.1,5.7 -9.1,5.7 0,0 -1.3,4.9 -5.3,4.9 -3.6,0 -5.8,-3.6 -5.8,-3.6 0,0 -1.5,0.3 -3.3,-0.1 -1.9,-0.4 -3.3,-2.5 -3.3,-2.5 0,0 -8.9,-0.6 -10.8,-10.4 -2.1,-11 2.9,-16.7 7.5,-19.9 z"
   id="path58427"
   inkscape:connector-curvature="0"
   style="fill:#825012" />
	<path
   d="M 41.4,22.3 C 41,21.6 43.4,16.5 45.2,11.2 47,5.6 47.4,1.6 49,1.4 c 1.6,-0.2 1.9,1.5 1.9,1.5 0,0 0.5,-2.2 2.1,-1.9 1.6,0.3 1.3,2.5 1.3,2.5 0,0 0.6,-1.1 1.9,-0.3 1.3,0.7 0.5,3.2 0.5,3.2 0,0 0.9,-1.1 2,-0.4 1.6,0.9 1.7,8.8 1.2,13.7 -0.7,7.2 -2.2,12.3 -2.2,12.3 0,0 -3.7,-6.2 -7.8,-7 -4.1,-0.8 -7.6,-0.9 -8.5,-2.7 z"
   id="path58429"
   inkscape:connector-curvature="0"
   style="fill:#762c07" />
	<path
   d="m 20.2,16.9 c 0.6,-1 2.7,-3.4 5.3,-2.3 2.6,1.1 4.6,4.2 6.4,7.7 1.8,3.5 2.1,5.4 4,6.9 1.1,0.9 5.2,2.6 5.2,2.6 l -6.4,0.6 0.2,4.1 -5,-2.1 -1.5,5.2 -3.5,-4.4 -4.1,4.2 -0.1,-4.4 -3.5,1.6 c 0,0 1.2,-1.8 1.9,-3.3 3.5,-7.7 -0.8,-13.5 1.1,-16.4 z"
   id="path58431"
   inkscape:connector-curvature="0"
   style="fill:#762c07" />
	<path
   d="m 17.8,18.3 c -1.3,0.6 -1.8,4.9 -1.8,4.9 0,0 2,-1.4 3.4,-1.8 1.5,-0.4 -0.5,-3.6 -1.6,-3.1 z"
   id="path58433"
   inkscape:connector-curvature="0"
   style="fill:#baa794" />
	<path
   d="m 19.6,18 c 1.1,0 0.9,-1.3 2.7,-2.8 1.5,-1.3 2.6,-1.8 2.6,-2.6 0,-1.4 -2.5,-2 -2.7,-0.7 -0.1,0.7 -1.1,-0.5 -2,0.3 -0.8,0.6 -0.3,1.5 -0.5,1.8 -0.1,0.3 -1.4,0.2 -1.9,1 -0.4,0.8 -0.1,3 1.8,3 z"
   id="path58435"
   inkscape:connector-curvature="0"
   style="fill:#cc291f" />
	<path
   d="m 19.9,20.5 c -1.3,0.4 -2.2,2.7 -0.5,3.7 1.9,1.2 3,-2.8 3,-2.8 0,0 3.4,-2.1 3,-3.2 C 25,17.1 20.5,18 20.5,18 c 0,0 -1.8,-0.4 -2.7,0.3 -0.9,0.7 -0.9,1.1 -0.9,1.1 0,0 1.2,-0.3 2.2,0.2 1,0.5 0.8,0.9 0.8,0.9 z"
   id="path58437"
   inkscape:connector-curvature="0"
   style="fill:#cc291f" />
	<path
   d="m 23.3,18.2 c 0.6,-0.2 1.1,0.9 0.3,1.1 -0.7,0.3 -1.1,-0.8 -0.3,-1.1 z"
   id="path58439"
   inkscape:connector-curvature="0"
   style="fill:#2d3134" />
</g>
</svg>