<?xml version="1.0" encoding="UTF-8" standalone="no"?>
<!-- Generator: Adobe Illustrator 18.1.0, SVG Export Plug-In . SVG Version: 6.00 Build 0)  -->

<svg
   xmlns:dc="http://purl.org/dc/elements/1.1/"
   xmlns:cc="http://creativecommons.org/ns#"
   xmlns:rdf="http://www.w3.org/1999/02/22-rdf-syntax-ns#"
   xmlns:svg="http://www.w3.org/2000/svg"
   xmlns="http://www.w3.org/2000/svg"
   xmlns:sodipodi="http://sodipodi.sourceforge.net/DTD/sodipodi-0.dtd"
   xmlns:inkscape="http://www.inkscape.org/namespaces/inkscape"
   version="1.1"
   id="Layer_1"
   x="0px"
   y="0px"
   viewBox="0 0 80 240"
   enable-background="new 0 0 80 240"
   xml:space="preserve"
   sodipodi:docname="santa-01.svg"
   inkscape:export-filename="C:\ML\Projekte\Adventskalender\assets\images\Santa.png"
   inkscape:export-xdpi="96"
   inkscape:export-ydpi="96"
   inkscape:version="0.92.4 (5da689c313, 2019-01-14)"><metadata
   id="metadata43890"><rdf:RDF><cc:Work
       rdf:about=""><dc:format>image/svg+xml</dc:format><dc:type
         rdf:resource="http://purl.org/dc/dcmitype/StillImage" /><dc:title></dc:title></cc:Work></rdf:RDF></metadata><defs
   id="defs43888" /><sodipodi:namedview
   pagecolor="#ffffff"
   bordercolor="#666666"
   borderopacity="1"
   objecttolerance="10"
   gridtolerance="10"
   guidetolerance="10"
   inkscape:pageopacity="0"
   inkscape:pageshadow="2"
   inkscape:window-width="1907"
   inkscape:window-height="1153"
   id="namedview43886"
   showgrid="false"
   inkscape:zoom="0.98333333"
   inkscape:cx="40"
   inkscape:cy="120"
   inkscape:window-x="0"
   inkscape:window-y="0"
   inkscape:window-maximized="0"
   inkscape:current-layer="Layer_1" />
<g
   id="g43883"
   transform="matrix(0.25,0,0,0.25,30.990624,93.390169)">
	<path
   d="m 22.6,92.1 c 0,0 -2.3,9.6 -3.6,12.6 -1.3,3 -2.2,7.6 -1.9,11 0.4,3.5 1.7,10.5 2.3,11.6 0.6,1.1 3.1,3.7 3.9,4.2 0.8,0.4 2.9,-14.8 2.9,-14.8 z"
   id="path43825"
   inkscape:connector-curvature="0"
   style="fill:#cc291f" />
	<path
   d="m 17.7,107.1 4,2.3 2.1,-12 -0.4,-14.8 c 0,0 -2.5,5.5 -3.6,11.3 -1.1,5.9 -2.1,13.2 -2.1,13.2 z"
   id="path43827"
   inkscape:connector-curvature="0"
   style="fill:#cc291f" />
	<path
   d="m 28.3,113 c 0.2,1 -0.8,3.4 -2.9,3.2 -2.1,-0.2 -10.8,-3.9 -11.2,-5.6 -0.4,-1.7 1.2,-4.5 3.6,-3.5 2.4,1 9.9,3 10.5,5.9 z"
   id="path43829"
   inkscape:connector-curvature="0"
   style="fill:#ffffff" />
	<path
   d="m 64.8,232 c 19.4,-9.4 1.8,-21.9 -17.4,-25.3 -8.4,-1.5 -13.5,-14.9 -34.6,-1.6 -16.9,10.8 0,17.9 8.6,22 12,5.5 25.3,13.6 43.4,4.9 z"
   id="path43831"
   inkscape:connector-curvature="0"
   style="opacity:0.2" />
	<path
   d="m 27.2,201.6 c 0,0 2.2,2.9 6.2,2.3 4,-0.5 7.9,-2.1 7.9,-2.1 0,0 1.1,6.3 -0.7,7.9 -1.8,1.6 -8.5,1.9 -11.4,3.3 -2.9,1.4 -6.9,4.2 -11.2,4.5 -9.2,0.7 -7.8,-6.8 -3.6,-8.7 3.3,-1.4 6.7,-3 8.8,-4.2 2.1,-1.1 4,-3 4,-3 z"
   id="path43833"
   inkscape:connector-curvature="0"
   style="fill:#2d3134" />
	<path
   d="m 41.6,207.4 c -2.7,1.3 -8.3,2.4 -11.1,3 -3.4,0.6 -9.7,5.7 -14.1,5.8 -3.1,0.1 -4.9,-1.3 -4.9,-4 -1,2.7 0.4,5.9 6.6,5.5 4.3,-0.3 8.3,-3.1 11.2,-4.5 2.9,-1.4 9.6,-1.6 11.4,-3.3 0.5,-0.6 0.7,-1.5 0.9,-2.5 z"
   id="path43835"
   inkscape:connector-curvature="0"
   style="opacity:0.4" />
	<path
   d="m 53.9,214.6 c 0,0 2.4,2.1 5.7,1.7 3.3,-0.4 7.9,-3.8 8.2,-2.1 0.3,1.7 2,5.2 0.6,6.3 -1.4,1.1 -9.1,5.7 -10.4,7.1 -1.4,1.4 -5.6,4.8 -9.9,5.3 -4.8,0.5 -9.2,-1.3 -9.2,-4.8 0,-4.1 6.6,-6.9 9.4,-8.8 2.7,-2.1 5.6,-4.7 5.6,-4.7 z"
   id="path43837"
   inkscape:connector-curvature="0"
   style="fill:#2d3134" />
	<path
   d="m 57.9,227.5 c 1.4,-1.4 9.1,-6 10.4,-7.1 0.7,-0.5 0.6,-1.6 0.4,-2.7 -2,1.7 -5.9,3.7 -9.5,5.9 -5.2,3.3 -6.2,7.4 -13.4,7.7 -5,0.2 -6.9,-2.2 -6.9,-4.6 -0.1,0.4 -0.2,0.8 -0.2,1.2 0,3.5 4.4,5.4 9.2,4.8 4.4,-0.4 8.6,-3.8 10,-5.2 z"
   id="path43839"
   inkscape:connector-curvature="0"
   style="opacity:0.4" />
	<path
   d="m 22.9,109.3 c -1,3.9 -0.6,15.3 0.2,21.4 0.8,6 1.7,19.1 3.2,31.7 1,8.5 -0.7,31.9 -1.9,37.4 -0.7,3.7 -3.4,6.2 1,7.7 4.8,1.7 10,2 15.1,0.5 2.2,-0.6 1.7,-2.8 1.8,-6.3 0.1,-4.7 1.5,-15.8 1.9,-19.9 0.4,-4.1 0.7,-9.4 0.9,-14 0.3,-4.6 1.7,-20.7 2.2,-24.4 0.5,-3.7 0.5,-32.6 0.5,-32.6 z"
   id="path43841"
   inkscape:connector-curvature="0"
   style="fill:#cc291f" />
	<path
   d="m 22.9,109.3 c -1,3.9 -0.6,15.3 0.2,21.4 0.8,6 1.7,19.1 3.2,31.7 1,8.5 -0.7,31.9 -1.9,37.4 -0.7,3.7 -3.4,6.2 1,7.7 4.8,1.7 10,2 15.1,0.5 2.2,-0.6 1.7,-2.8 1.8,-6.3 0.1,-4.7 1.5,-15.8 1.9,-19.9 0.4,-4.1 0.7,-9.4 0.9,-14 0.3,-4.6 1.7,-20.7 2.2,-24.4 0.5,-3.7 0.5,-32.6 0.5,-32.6 z"
   id="path43843"
   inkscape:connector-curvature="0"
   style="opacity:0.2" />
	<path
   d="m 42.2,202.9 c -5.1,2.2 -11.3,1.6 -16.3,-0.2 -1.1,-0.4 -1.8,-0.8 -2.2,-1.3 -0.1,-0.2 -0.4,-0.1 -0.5,0.1 -0.9,2.5 -1.7,4.8 1.8,6.1 5,1.7 10.9,2.1 16.2,0.6 2,-0.6 2.2,-5.8 1,-5.3 z"
   id="path43845"
   inkscape:connector-curvature="0"
   style="fill:#ffffff" />
	<path
   d="m 30.4,109.5 c 0,0 -1.5,8.2 2.2,12.8 3.7,4.6 8.6,6.7 8.5,9.9 -0.1,3.3 2.9,21.3 5,27.4 2.1,6.1 2.6,14.4 3.3,20.2 0.7,5.8 1.5,21.9 1.2,26.2 -0.3,5.6 -1.8,10.8 -2.2,12.8 -0.3,1.4 5,3.5 8.2,3.7 5.4,0.3 8.3,-1.5 10.4,-3 1.9,-1.3 1.8,-1.5 1.7,-4.6 -0.1,-3.1 -0.7,-31.8 -1.2,-39 -0.5,-7.2 2.4,-38.8 2.2,-45.2 -0.5,-11.6 -4.1,-22.1 -4.1,-22.1 z"
   id="path43847"
   inkscape:connector-curvature="0"
   style="fill:#cc291f" />
	<path
   d="m 57.3,217.7 c -2.5,-0.2 -5.9,-1.2 -8.1,-2.4 -0.3,-0.2 -0.7,0 -0.7,0.3 -0.2,1.1 -0.5,2.4 -0.6,2.9 -0.3,1.5 5.2,3.6 8.7,3.9 5.6,0.4 9.4,-1.8 11.6,-3.4 1.5,-1 1.3,-1.9 1.3,-3.7 0,-0.4 -0.4,-0.7 -0.8,-0.4 -2.5,1.7 -5.9,3.2 -11.4,2.8 z"
   id="path43849"
   inkscape:connector-curvature="0"
   style="fill:#ffffff" />
	<path
   d="m 49.1,46.1 c -8.4,-0.5 -15.3,-2.4 -18.2,2.4 -2.9,4.8 -2.7,7.9 -4.1,10.2 -1.4,2.3 -4.3,8.8 -4.2,13.4 0.1,4.6 0.8,7.3 0.8,9.9 -0.2,10.1 -0.7,9.9 -1.6,15.2 -1.1,6.7 -2,22 -0.9,23.6 1.7,2.6 17.5,5.3 28.1,4 C 61,123.4 70,113 70,112 70,111 64.8,95.3 64,93.7 57.4,79.9 74.1,75.3 74,74.6 c -0.1,-2 0.7,-8.6 0.2,-11.5 -0.5,-2.9 -4.1,-7.6 -6.7,-10 -2.6,-2.5 -6.8,-6.5 -9.7,-7.3 -2.8,-0.9 -8.7,0.3 -8.7,0.3 z"
   id="path43851"
   inkscape:connector-curvature="0"
   style="fill:#cc291f" />
	<path
   d="m 37.5,44.7 c 0,0 -2.6,3 -3.4,13.1 -0.6,6.9 1.3,14.7 1.1,18.1 -0.2,3.4 6.9,-10 6.9,-10 0,0 -2.3,-6.4 -1.6,-10.8 0.7,-4.4 1.7,-8.9 1.7,-8.9 z"
   id="path43853"
   inkscape:connector-curvature="0"
   style="fill:#ffffff" />
	<path
   d="m 57.6,78.2 c 0,0 2.8,13.9 2.7,17.9 -0.1,4 -6.2,27.9 -6.2,27.9 l 9.9,-2.4 4.9,-26 z"
   id="path43855"
   inkscape:connector-curvature="0"
   style="opacity:0.2" />
	<path
   d="m 47.9,123.4 c -9.4,1.1 -22.5,-2.4 -28,-4.3 0.1,1.5 -0.3,5.5 0.1,6.1 1.7,2.6 18.5,6.1 29.2,4.8 12,-1.4 20,-5.8 20,-6.9 0,-0.3 -1.2,-3.1 -1.8,-4.7 -3.6,1.6 -10.5,3.9 -19.5,5 z"
   id="path43857"
   inkscape:connector-curvature="0"
   style="fill:#ffffff" />
	<path
   d="m 35.5,24.5 c -2.8,4.3 -1.3,14.8 -0.9,17.5 0.4,2.6 1.1,5.4 3,6.2 1.9,0.7 3.6,1.5 3.6,2.7 0,1.2 -1.9,9.6 -1.2,11 1.1,2.5 5.7,-2 11.7,-4.4 5.6,-2.3 9.5,-8.5 8.8,-9.4 -0.7,-0.9 -4.2,-2.9 -4.2,-5.9 0.1,-3.1 3.1,-7.8 3.2,-12.4 0.1,-9.1 -13.3,-14.6 -21.1,-8.3 -1.1,0.7 -2.1,1.7 -2.9,3 z"
   id="path43859"
   inkscape:connector-curvature="0"
   style="fill:#fbd7c7" />
	<path
   d="m 49.1,20.1 c 5.6,3.1 -3.8,6.8 -1.6,9 1.9,1.8 1.9,7.3 2.9,9 1.2,2.1 2.4,-2.3 3.5,-3.4 1,-1 2.8,-1.2 3.3,0.3 0.5,1.5 -0.4,3.7 -0.5,4.3 C 58.3,39 60.4,33.6 60,27.9 59.6,21.1 49.9,14.7 39.4,20.6 c -2.1,1.2 -2.8,2.5 -1.7,1.6 2,-1.6 7.9,-4.1 11.4,-2.1 z"
   id="path43861"
   inkscape:connector-curvature="0"
   style="fill:#999999" />
	<path
   d="m 56.4,43.1 c 0.8,-1.3 3.6,0 5.1,1.4 1.8,1.6 2.6,6.3 -0.2,9.1 C 56.9,58 44.8,67.8 42.8,74 c -2,6.2 -3,11.4 -5.5,26.3 -2.1,12.5 -1.9,25.4 -1.9,25.4 L 29,123.3 c 0,0 -0.3,-11.5 0.8,-21.3 1.8,-16.1 5.9,-31.6 10.3,-39.3 4.4,-7.7 10.8,-10.4 13.1,-11.9 4.9,-3 3.6,-6.9 3.2,-7.7 z"
   id="path43863"
   inkscape:connector-curvature="0"
   style="fill:#ffffff" />
	<path
   d="m 69.5,92.4 -1.1,-4.1 c -0.2,0 -16.4,4.5 -27,3.8 -14.3,-0.9 -18,-4.4 -18.1,-4.4 L 22,91.5 c 0.4,0.2 4.2,3.6 19.4,4.8 12.5,1 27.5,-3.8 28.1,-3.9 z"
   id="path43865"
   inkscape:connector-curvature="0"
   style="fill:#2d3134" />
	<path
   d="m 33.1,29.2 c 1.5,-12.4 12.2,-23.3 36.8,-9.7 -13.6,3 -8.7,7.4 -10,14.2 -1.2,6.2 -27.6,2.1 -26.8,-4.5 z"
   id="path43867"
   inkscape:connector-curvature="0"
   style="fill:#cc291f" />
	<circle
   cx="72.099998"
   cy="19.799999"
   r="4.3000002"
   id="circle43869"
   style="fill:#ffffff" />
	<path
   d="m 70.9,129.6 c 0.1,2.8 -0.2,6.3 -0.7,8.3 -0.5,2 -1.9,5.8 -4.5,7.3 -3,1.7 -6.4,1.4 -7.6,0.4 -1.9,-1.5 1.9,-7.3 1.1,-8.1 -0.8,-0.8 -1.9,-0.2 -2.4,1.1 -0.5,1.3 -2.9,2.3 -3.9,1.6 -1,-0.7 0.2,-1.8 0.8,-2.9 0.6,-1.2 2,-3.9 3.4,-4.8 1.4,-0.9 2.9,-2 3.5,-4.4 z"
   id="path43871"
   inkscape:connector-curvature="0"
   style="fill:#cc291f" />
	<path
   d="m 70.9,129.6 c 0.1,2.8 -0.2,6.3 -0.7,8.3 -0.5,2 -1.9,5.8 -4.5,7.3 -3,1.7 -6.4,1.4 -7.6,0.4 -1.9,-1.5 1.9,-7.3 1.1,-8.1 -0.8,-0.8 -1.9,-0.2 -2.4,1.1 -0.5,1.3 -2.9,2.3 -3.9,1.6 -1,-0.7 0.2,-1.8 0.8,-2.9 0.6,-1.2 2,-3.9 3.4,-4.8 1.4,-0.9 2.9,-2 3.5,-4.4 z"
   id="path43873"
   inkscape:connector-curvature="0"
   style="opacity:0.2" />
	<path
   d="m 61.2,120.9 c 0.2,1.6 -0.2,8.6 -0.2,8.6 0,0 5.2,-0.1 6.9,0.8 1.6,0.9 3.4,2.1 3.4,2.1 0,0 4.1,-19.3 5.2,-24.2 1.1,-4.8 0.3,-13.7 0.1,-15.3 C 76.3,91.3 74.4,73.3 74.4,70.1 74.4,66.9 74,63.5 74,63.5 L 54.5,70 c 0,0 7.2,18.5 7.9,23 0.7,4.6 -2.1,19.2 -1.2,27.9 z"
   id="path43875"
   inkscape:connector-curvature="0"
   style="fill:#cc291f" />
	<path
   d="m 60.2,126 c -1.9,0.1 -2.4,4.4 -1.1,4.7 1.2,0.3 11.8,3.4 12.4,2.6 0.7,-0.7 2.3,-4.5 1.2,-5.4 -1.1,-0.9 -11.1,-2 -12.5,-1.9 z"
   id="path43877"
   inkscape:connector-curvature="0"
   style="fill:#ffffff" />
	<path
   d="m 57.6,37.1 c 0,0 3,11.9 -2.2,20.1 -4.5,7.1 -21.7,17.7 -21.7,17.7 0,0 1.8,-12 0.1,-21.8 -1.3,-7.4 0.4,-12.5 0.4,-12.5 0,0 1.7,3.9 5.5,4.3 7.9,0.7 17.9,-7.8 17.9,-7.8 z"
   id="path43879"
   inkscape:connector-curvature="0"
   style="fill:#e5e5e5" />
	<path
   d="m 60.1,32.4 c -5.8,0.1 -8,-0.4 -12.8,-1.6 -4.6,-1.2 -10.8,-3.5 -13.4,-6.3 -1.8,0.3 -2.1,5.7 -2.1,6.4 1.6,2.9 6.6,4.8 13.4,6.8 6.8,2 12.7,0.9 14.1,0.4 0.7,-0.9 2.2,-4.4 0.8,-5.7 z"
   id="path43881"
   inkscape:connector-curvature="0"
   style="fill:#ffffff" />
</g>
</svg>