<?xml version="1.0" encoding="UTF-8" standalone="no"?>
<!-- Generator: Adobe Illustrator 18.1.0, SVG Export Plug-In . SVG Version: 6.00 Build 0)  -->

<svg
   xmlns:dc="http://purl.org/dc/elements/1.1/"
   xmlns:cc="http://creativecommons.org/ns#"
   xmlns:rdf="http://www.w3.org/1999/02/22-rdf-syntax-ns#"
   xmlns:svg="http://www.w3.org/2000/svg"
   xmlns="http://www.w3.org/2000/svg"
   xmlns:sodipodi="http://sodipodi.sourceforge.net/DTD/sodipodi-0.dtd"
   xmlns:inkscape="http://www.inkscape.org/namespaces/inkscape"
   version="1.1"
   id="Layer_1"
   x="0px"
   y="0px"
   viewBox="0 0 720 480"
   enable-background="new 0 0 720 480"
   xml:space="preserve"
   sodipodi:docname="sled-santa-deer-front.svg"
   inkscape:export-filename="C:\ML\Projekte\Adventskalender\assets\images\Item5.png"
   inkscape:export-xdpi="96"
   inkscape:export-ydpi="96"
   inkscape:version="0.92.4 (5da689c313, 2019-01-14)"><metadata
   id="metadata77322"><rdf:RDF><cc:Work
       rdf:about=""><dc:format>image/svg+xml</dc:format><dc:type
         rdf:resource="http://purl.org/dc/dcmitype/StillImage" /><dc:title></dc:title></cc:Work></rdf:RDF></metadata><defs
   id="defs77320" /><sodipodi:namedview
   pagecolor="#ffffff"
   bordercolor="#666666"
   borderopacity="1"
   objecttolerance="10"
   gridtolerance="10"
   guidetolerance="10"
   inkscape:pageopacity="0"
   inkscape:pageshadow="2"
   inkscape:window-width="3440"
   inkscape:window-height="1377"
   id="namedview77318"
   showgrid="false"
   inkscape:zoom="3.8888889"
   inkscape:cx="335.59687"
   inkscape:cy="208.39571"
   inkscape:window-x="-8"
   inkscape:window-y="-8"
   inkscape:window-maximized="1"
   inkscape:current-layer="Layer_1" />
<path
   d="m 380.94093,251.32979 -47,-23.54 -21.74,10.86 45.48,22.76 c 0.96,0.48 2.08,0.48 3.04,0 z"
   id="path76979"
   inkscape:connector-curvature="0"
   style="opacity:0.2;stroke-width:0.2" />
<g
   id="g76987"
   transform="matrix(0.2,0,0,0.2,300.00093,201.98979)">
	<path
   d="m 398.9,196.4 c -2.3,-2.1 -7,-5 -9.4,-6.5 -0.9,-0.6 -2.1,-0.6 -3.1,-0.1 -1.8,0.9 -4.8,2.5 -6.7,3.5 -1,0.5 -1.7,1.6 -1.7,2.8 0,1.5 0,3.2 0,3.2 0,4.1 1.9,8 5.2,10.4 0.7,0.5 1.4,1.1 1.8,1.5 5.2,5 8.8,12.1 8.8,18.2 v 0 c 0,2.2 -2.3,3.8 -4.4,2.9 -0.1,-0.1 -0.3,-0.1 -0.4,-0.2 v 0 l -2,-1 -220.6,-110.3 c -0.9,-0.5 -2,-0.4 -2.9,0 l -6.8,3.5 c -1.1,0.5 -1.7,1.6 -1.7,2.8 v 8.1 c 0,1.2 0.7,2.3 1.8,2.8 L 377,248.2 c 0,0 1.4,0.8 1.7,0.9 8.2,4.1 15.3,3.3 20.6,0.9 l 7.4,-3.8 c 5.6,-3.1 9.4,-7.7 9.4,-15.9 -0.1,-11.5 -7.2,-24.8 -17.2,-33.9 z"
   id="path76981"
   inkscape:connector-curvature="0"
   style="fill:#825012" />
	<path
   d="m 399.2,250 v 0 c 4.2,-2.7 6.8,-7.7 6.8,-14.6 0,-15.2 -12.3,-33.6 -27.5,-41.1 -0.3,0.5 -0.5,1.1 -0.5,1.7 0,1.5 0,3.2 0,3.2 0,4.1 1.9,8 5.2,10.4 0.7,0.5 1.4,1.1 1.8,1.5 5.2,5 8.8,12.1 8.8,18.2 0,8.3 -6.6,11.7 -14.8,7.8 v 0 l -2,-1 -221.5,-110.7 c -0.3,0.5 -0.5,1.1 -0.5,1.7 v 8.1 c 0,1.2 0.7,2.3 1.8,2.8 L 377,248.2 c 0,0 1.4,0.8 1.7,0.9 8.2,4.1 15.3,3.3 20.5,0.9 z"
   id="path76983"
   inkscape:connector-curvature="0"
   style="opacity:0.11000001" />
	<path
   d="m 399.2,250 7.4,-3.8 c 5.6,-3.1 9.4,-7.7 9.4,-15.9 0,-6.1 -2,-12.7 -5.4,-18.9 l -10,5 c 3.4,6.3 5.4,12.9 5.4,19 0,6.9 -2.6,11.9 -6.8,14.6 z"
   id="path76985"
   inkscape:connector-curvature="0"
   style="opacity:0.28999999" />
</g>
<polygon
   points="91,79 91,149 161,114 161,44 "
   id="polygon76989"
   transform="matrix(0.2,0,0,0.2,300.00093,201.98979)"
   style="fill:#28896d" />
<polygon
   points="197,199 239,220 281,199 239,178 "
   id="polygon76991"
   transform="matrix(0.2,0,0,0.2,300.00093,201.98979)"
   style="fill:#28896d" />
<g
   id="g76999"
   transform="matrix(0.2,0,0,0.2,300.00093,201.98979)">
	<path
   d="m 305,136.2 v 23.9 c 0,5 -5.3,8.3 -9.8,6 l -28.1,-14 c -5,-2.5 -8.1,-7.6 -8.1,-13.2 v 0 c 0,-20.2 -11.4,-38.6 -29.4,-47.6 l -28.1,-14 C 196.3,74.7 193,69.4 193,63.6 v 0 c 0,-5.8 -3.3,-11.1 -8.5,-13.7 L 161,38 v 78.4 c 0,10.2 5.7,19.5 14.8,24 L 305,205 v -0.1 c 23.7,11.8 42.9,2.2 42.9,-21.5 0,-18.4 -11.6,-40 -27.9,-54.2 -5.9,-5 -15,-0.8 -15,7 z"
   id="path76993"
   inkscape:connector-curvature="0"
   style="fill:#28896d" />
	<path
   d="m 303.6,164.2 c 0,-0.1 0.1,-0.1 0,0 -0.7,-0.4 -1.5,-0.7 -2.4,-1.1 l -28.1,-14 c -5,-2.5 -8.1,-7.6 -8.1,-13.2 0,-20.2 -11.4,-38.6 -29.4,-47.6 l -28.1,-14 C 202.3,71.7 199,66.4 199,60.6 199,54.8 195.7,49.5 190.5,46.9 L 167,35 l -6,3 v 5.5 l 20.5,10.3 c 5.2,2.6 8.5,7.9 8.5,13.7 0,5.8 3.3,11.1 8.5,13.7 l 28.1,14 c 18,9 29.4,27.5 29.4,47.6 0,5.6 3.1,10.7 8.1,13.2 l 28.1,14 c 5.2,2.5 10.2,-1.2 11.4,-5.8 0.1,-0.1 0.1,-0.1 0,0 z"
   id="path76995"
   inkscape:connector-curvature="0"
   style="fill:#825012" />
	<path
   d="m 305,136.2 v 23.9 c 0,5 -5.3,8.3 -9.8,6 l -28.1,-14 c -5,-2.5 -8.1,-7.6 -8.1,-13.2 v 0 c 0,-20.2 -11.4,-38.6 -29.4,-47.6 l -28.1,-14 C 196.3,74.7 193,69.4 193,63.6 v 0 c 0,-5.8 -3.3,-11.1 -8.5,-13.7 L 161,38 v 78.4 c 0,10.2 5.7,19.5 14.8,24 L 305,205 v -0.1 c 23.7,11.8 42.9,2.2 42.9,-21.5 0,-18.4 -11.6,-40 -27.9,-54.2 -5.9,-5 -15,-0.8 -15,7 z"
   id="path76997"
   inkscape:connector-curvature="0"
   style="opacity:0.11000001" />
</g>
<polygon
   points="91,79 91,149 161,114 161,44 "
   id="polygon77001"
   transform="matrix(0.2,0,0,0.2,300.00093,201.98979)"
   style="opacity:0.28999999" />
<g
   id="g77009"
   transform="matrix(0.2,0,0,0.2,300.00093,201.98979)">
	<polygon
   points="101,169 179,208 239,178 239,140 161,101 101,131 "
   id="polygon77003"
   style="fill:#28896d" />
	<polygon
   points="239,178 239,140 179,170 179,208 "
   id="polygon77005"
   style="opacity:0.28999999" />
	<polygon
   points="101,169 101,131 179,170 179,208 "
   id="polygon77007"
   style="opacity:0.11000001" />
</g>
<g
   id="g77087"
   transform="matrix(0.2,0,0,0.2,300.00093,201.98979)">
	<g
   id="g77047">
		<g
   id="g77021">
			<polygon
   points="135,121 172,139.5 209,121 209,56.5 172,38 135,56.5 "
   id="polygon77011"
   style="fill:#28896d" />
			<polygon
   points="195.1,127.9 195.1,63.4 158.1,44.9 148.9,49.6 185.9,68.1 185.9,132.6 "
   id="polygon77013"
   style="fill:#ffcc00" />
			<polygon
   points="148.9,127.9 148.9,63.4 185.9,44.9 195.1,49.6 158.1,68.1 158.1,132.6 "
   id="polygon77015"
   style="fill:#ffcc00" />
			<polygon
   points="209,121 209,56.5 172,75 172,139.5 "
   id="polygon77017"
   style="opacity:0.28999999" />
			<polygon
   points="135,121 135,56.5 172,75 172,139.5 "
   id="polygon77019"
   style="opacity:0.11000001" />
		</g>
		<g
   id="g77029">
			<path
   d="m 172,51.9 9.3,4.7 14.2,-14.3 -5.3,-2.7 c -3.2,-1.6 -7.1,-0.8 -9.4,1.9 z"
   id="path77023"
   inkscape:connector-curvature="0"
   style="fill:#ffcc00" />
			<path
   d="m 195.2,49.6 -13.9,7 8.6,-12.9 c 2.3,-3.4 7.6,-1.8 7.6,2.3 v 0 c -0.1,1.5 -0.9,2.9 -2.3,3.6 z"
   id="path77025"
   inkscape:connector-curvature="0"
   style="fill:#ffcc00" />
			<path
   d="m 195.2,49.6 -13.9,7 8.6,-12.9 c 2.3,-3.4 7.6,-1.8 7.6,2.3 v 0 c -0.1,1.5 -0.9,2.9 -2.3,3.6 z"
   id="path77027"
   inkscape:connector-curvature="0"
   style="opacity:0.2" />
		</g>
		<g
   id="g77037">
			<path
   d="m 171.8,52.1 -9.3,4.7 -14.2,-14.3 5.3,-2.7 c 3.2,-1.6 7.1,-0.8 9.4,1.9 z"
   id="path77031"
   inkscape:connector-curvature="0"
   style="fill:#ffcc00" />
			<path
   d="m 148.7,49.9 13.9,7 L 154,44 c -2.3,-3.4 -7.6,-1.8 -7.6,2.3 v 0 c 0,1.4 0.9,2.9 2.3,3.6 z"
   id="path77033"
   inkscape:connector-curvature="0"
   style="fill:#ffcc00" />
			<path
   d="m 148.7,49.9 13.9,7 L 154,44 c -2.3,-3.4 -7.6,-1.8 -7.6,2.3 v 0 c 0,1.4 0.9,2.9 2.3,3.6 z"
   id="path77035"
   inkscape:connector-curvature="0"
   style="opacity:0.2" />
		</g>
		<path
   d="M 162.5,56.7 150,53.6 c -3,-0.8 -5.9,1.5 -5.9,4.6 v 0 c 0,2.2 1.5,4 3.3,4.6 1.1,0.4 7.2,3.2 8.6,4 1.3,0.7 3,0.9 4.5,0.1 l 11.6,-5.8 z"
   id="path77039"
   inkscape:connector-curvature="0"
   style="fill:#ffcc00" />
		<path
   d="m 172,61.1 -11.6,5.8 c -3.2,1.6 -6.9,-0.7 -6.9,-4.3 v 0 c 0,-3.1 2.9,-5.4 5.9,-4.6 z"
   id="path77041"
   inkscape:connector-curvature="0"
   style="opacity:0.2" />
		<path
   d="m 181.3,56.5 12.6,-3.1 c 3,-0.8 5.9,1.5 5.9,4.6 v 0 c 0,2.2 -1.5,4 -3.3,4.6 -1.1,0.4 -7.2,3.2 -8.6,4 -1.3,0.7 -3,0.9 -4.5,0.1 l -11.6,-5.8 z"
   id="path77043"
   inkscape:connector-curvature="0"
   style="fill:#ffcc00" />
		<path
   d="m 171.8,60.9 11.6,5.8 c 3.2,1.6 6.9,-0.7 6.9,-4.3 v 0 c 0,-3.1 -2.9,-5.4 -5.9,-4.6 z"
   id="path77045"
   inkscape:connector-curvature="0"
   style="opacity:0.2" />
	</g>
	<g
   id="g77085">
		<g
   id="g77059">
			<polygon
   points="95,140 132,158.5 169,140 169,90.5 132,72 95,90.5 "
   id="polygon77049"
   style="fill:#ffcc00" />
			<polygon
   points="155.1,146.9 155.1,97.4 118.1,78.9 108.9,83.6 145.9,102.1 145.9,151.6 "
   id="polygon77051"
   style="fill:#cc291f" />
			<polygon
   points="108.9,146.9 108.9,97.4 145.9,78.9 155.1,83.6 118.1,102.1 118.1,151.6 "
   id="polygon77053"
   style="fill:#cc291f" />
			<polygon
   points="169,140 169,90.5 132,109 132,158.5 "
   id="polygon77055"
   style="opacity:0.28999999" />
			<polygon
   points="95,140 95,90.5 132,109 132,158.5 "
   id="polygon77057"
   style="opacity:0.11000001" />
		</g>
		<g
   id="g77067">
			<path
   d="m 132,85.9 9.3,4.7 14.2,-14.3 -5.3,-2.7 c -3.2,-1.6 -7.1,-0.8 -9.4,1.9 z"
   id="path77061"
   inkscape:connector-curvature="0"
   style="fill:#cc291f" />
			<path
   d="m 155.2,83.6 -13.9,7 8.6,-12.9 c 2.3,-3.4 7.6,-1.8 7.6,2.3 v 0 c -0.1,1.5 -0.9,2.9 -2.3,3.6 z"
   id="path77063"
   inkscape:connector-curvature="0"
   style="fill:#cc291f" />
			<path
   d="m 155.2,83.6 -13.9,7 8.6,-12.9 c 2.3,-3.4 7.6,-1.8 7.6,2.3 v 0 c -0.1,1.5 -0.9,2.9 -2.3,3.6 z"
   id="path77065"
   inkscape:connector-curvature="0"
   style="opacity:0.2" />
		</g>
		<g
   id="g77075">
			<path
   d="m 131.8,86.1 -9.3,4.7 -14.2,-14.3 5.3,-2.7 c 3.2,-1.6 7.1,-0.8 9.4,1.9 z"
   id="path77069"
   inkscape:connector-curvature="0"
   style="fill:#cc291f" />
			<path
   d="m 108.7,83.9 13.9,7 L 114,78 c -2.3,-3.4 -7.6,-1.8 -7.6,2.3 v 0 c 0,1.4 0.9,2.9 2.3,3.6 z"
   id="path77071"
   inkscape:connector-curvature="0"
   style="fill:#cc291f" />
			<path
   d="m 108.7,83.9 13.9,7 L 114,78 c -2.3,-3.4 -7.6,-1.8 -7.6,2.3 v 0 c 0,1.4 0.9,2.9 2.3,3.6 z"
   id="path77073"
   inkscape:connector-curvature="0"
   style="opacity:0.2" />
		</g>
		<path
   d="M 122.5,90.7 110,87.6 c -3,-0.8 -5.9,1.5 -5.9,4.6 v 0 c 0,2.2 1.5,4 3.3,4.6 1.1,0.4 7.2,3.2 8.6,4 1.3,0.7 3,0.9 4.5,0.1 l 11.6,-5.8 z"
   id="path77077"
   inkscape:connector-curvature="0"
   style="fill:#cc291f" />
		<path
   d="m 132,95.1 -11.6,5.8 c -3.2,1.6 -6.9,-0.7 -6.9,-4.3 v 0 c 0,-3.1 2.9,-5.4 5.9,-4.6 z"
   id="path77079"
   inkscape:connector-curvature="0"
   style="opacity:0.2" />
		<path
   d="m 141.3,90.5 12.6,-3.1 c 3,-0.8 5.9,1.5 5.9,4.6 v 0 c 0,2.2 -1.5,4 -3.3,4.6 -1.1,0.4 -7.2,3.2 -8.6,4 -1.3,0.7 -3,0.9 -4.5,0.1 l -11.6,-5.8 z"
   id="path77081"
   inkscape:connector-curvature="0"
   style="fill:#cc291f" />
		<path
   d="m 131.8,94.9 11.6,5.8 c 3.2,1.6 6.9,-0.7 6.9,-4.3 v 0 c 0,-3.1 -2.9,-5.4 -5.9,-4.6 z"
   id="path77083"
   inkscape:connector-curvature="0"
   style="opacity:0.2" />
	</g>
</g>
<g
   id="g77095"
   transform="matrix(0.2,0,0,0.2,300.00093,201.98979)">
	<polygon
   points="150,164 156,167 216,137 216,92 210,89 150,119 "
   id="polygon77089"
   style="fill:#825012" />
	<polygon
   points="216,137 216,92 156,122 156,167 "
   id="polygon77091"
   style="opacity:0.28999999" />
	<polygon
   points="150,164 150,119 156,122 156,167 "
   id="polygon77093"
   style="opacity:0.11000001" />
</g>
<g
   id="g77119"
   transform="matrix(0.2,0,0,0.2,300.00093,201.98979)">
	<path
   d="m 304.9,243.4 c -2.3,-2.1 -7,-5 -9.4,-6.5 -0.9,-0.6 -2.1,-0.6 -3.1,-0.1 -1.8,0.9 -4.8,2.5 -6.7,3.5 -1,0.5 -1.7,1.6 -1.7,2.8 0,1.5 0,3.2 0,3.2 0,4.1 1.9,8 5.2,10.4 0.7,0.5 1.4,1.1 1.8,1.5 5.2,5 8.8,12.1 8.8,18.2 v 0 c 0,2.2 -2.3,3.8 -4.4,2.9 -0.1,-0.1 -0.3,-0.1 -0.4,-0.2 v 0 l -2,-1 L 72.4,167.8 c -0.9,-0.5 -2,-0.4 -2.9,0 l -6.8,3.5 c -1.1,0.5 -1.7,1.6 -1.7,2.8 v 8.1 c 0,1.2 0.7,2.3 1.8,2.8 L 283,295.2 c 0,0 1.4,0.8 1.7,0.9 8.2,4.1 15.3,3.3 20.6,0.9 l 7.4,-3.8 c 5.6,-3.1 9.4,-7.7 9.4,-15.9 -0.1,-11.5 -7.2,-24.8 -17.2,-33.9 z"
   id="path77097"
   inkscape:connector-curvature="0"
   style="fill:#825012" />
	<path
   d="m 305.2,297 v 0 c 4.2,-2.7 6.8,-7.7 6.8,-14.6 0,-15.2 -12.3,-33.6 -27.5,-41.1 -0.3,0.5 -0.5,1.1 -0.5,1.7 0,1.5 0,3.2 0,3.2 0,4.1 1.9,8 5.2,10.4 0.7,0.5 1.4,1.1 1.8,1.5 5.2,5 8.8,12.1 8.8,18.2 0,8.3 -6.6,11.7 -14.8,7.8 v 0 l -2,-1 L 61.5,172.4 c -0.3,0.5 -0.5,1.1 -0.5,1.7 v 8.1 c 0,1.2 0.7,2.3 1.8,2.8 L 283,295.2 c 0,0 1.4,0.8 1.7,0.9 8.2,4.1 15.3,3.3 20.5,0.9 z"
   id="path77099"
   inkscape:connector-curvature="0"
   style="opacity:0.11000001" />
	<path
   d="m 305.2,297 7.4,-3.8 c 5.6,-3.1 9.4,-7.7 9.4,-15.9 0,-6.1 -2,-12.7 -5.4,-18.9 l -10,5 c 3.4,6.3 5.4,12.9 5.4,19 0,6.9 -2.6,11.9 -6.8,14.6 z"
   id="path77101"
   inkscape:connector-curvature="0"
   style="opacity:0.28999999" />
	<g
   id="g77109">
		<polygon
   points="227,255 233,258 243,253 229,220 223,217 213,222 "
   id="polygon77103"
   style="fill:#825012" />
		<polygon
   points="243,253 229,220 219,225 233,258 "
   id="polygon77105"
   style="opacity:0.28999999" />
		<polygon
   points="227,255 213,222 219,225 233,258 "
   id="polygon77107"
   style="opacity:0.11000001" />
	</g>
	<g
   id="g77117">
		<polygon
   points="113,198 119,201 129,196 149,180 143,177 133,182 "
   id="polygon77111"
   style="fill:#825012" />
		<polygon
   points="129,196 149,180 139,185 119,201 "
   id="polygon77113"
   style="opacity:0.28999999" />
		<polygon
   points="113,198 133,182 139,185 119,201 "
   id="polygon77115"
   style="opacity:0.11000001" />
	</g>
</g>
<g
   id="g77127"
   transform="matrix(0.2,0,0,0.2,300.00093,201.98979)">
	<polygon
   points="156,158 190,175 250,145 250,136 216,119 156,149 "
   id="polygon77121"
   style="fill:#825012" />
	<polygon
   points="250,145 250,136 190,166 190,175 "
   id="polygon77123"
   style="opacity:0.28999999" />
	<polygon
   points="156,158 156,149 190,166 190,175 "
   id="polygon77125"
   style="opacity:0.11000001" />
</g>
<path
   d="m 365.20093,227.24979 c -0.6,-0.52 -1.38,-0.56 -2,-0.24 -0.22,0.12 -1.2,0.6 -1.2,0.6 0,0 0,0 0,0.02 0,0 0,0 0,0 0.04,-0.02 0.08,-0.04 0.12,-0.06 0,0 0,0 0,0 0,0 0,0 0,0 0.6,-0.24 1.3,-0.2 1.88,0.3 3.26,2.84 5.58,7.16 5.58,10.84 0,1.72 -0.5,3.06 -1.38,3.98 0,0 0,0 0,0 -0.06,0.06 -0.1,0.1 -0.16,0.16 -0.02,0.02 -0.04,0.02 -0.04,0.04 -0.04,0.04 -0.1,0.08 -0.14,0.12 -0.06,0.04 -0.12,0.1 -0.18,0.14 0,0 0,0 -0.02,0 1.92,-0.62 3.14,-2.4 3.14,-5.06 -0.02,-3.7 -2.34,-8 -5.6,-10.84 z"
   id="path77129"
   inkscape:connector-curvature="0"
   style="fill:#825012;stroke-width:0.2" />
<g
   id="g77183"
   transform="matrix(0.2,0,0,0.2,300.00093,201.98979)">
	<path
   d="m 215.8,71.8 c 3.1,1.4 4.5,2.3 7.5,4 4.1,2.3 16.4,13 21.9,18.3 6.9,6.8 13.5,20.6 14,21.3 0.4,0.7 0,2.4 -3.9,4 -3.8,1.7 -5.5,3 -7.5,0.7 -2,-2.3 -8.4,-12.4 -11.6,-14.6 -3.2,-2.2 -12.1,-6.9 -15.2,-8.7 -3.1,-1.8 -5.2,-25 -5.2,-25 z"
   id="path77131"
   inkscape:connector-curvature="0"
   style="fill:#cc291f" />
	<path
   d="m 257.8,115.1 c 0,0 -2.8,-0.7 -4.5,0.1 -1.8,0.7 -2.2,1.4 -2.2,1.9 0,0.5 -0.8,4.1 1.1,6.7 1.9,2.6 4.6,5.1 5.1,7 0.5,1.9 0.5,4.5 2.4,5.4 1.9,0.8 5.7,-2.2 6.2,-5.3 0.4,-3 0.2,-6.2 -1.8,-8.1 -2,-1.9 -3.8,-3.3 -4.8,-4.9 -1,-1.6 -1.5,-2.8 -1.5,-2.8 z"
   id="path77133"
   inkscape:connector-curvature="0"
   style="fill:#cc291f" />
	<path
   d="m 225.1,222.8 c -13.3,-8.9 -1.8,-19.1 16.8,-22.4 8.2,-1.4 25.6,-21.4 45.9,-8.5 16.4,10.4 -14.8,24.9 -23.2,28.8 -11.4,5.5 -23.3,13 -39.5,2.1 z"
   id="path77135"
   inkscape:connector-curvature="0"
   style="opacity:0.2" />
	<path
   d="m 238.2,203.1 -11.9,-0.4 c 0,0 -2.3,3.2 -1.7,5.7 0.6,2.6 4.3,6.6 5.1,8.3 0.8,1.7 2.6,7.2 7.4,8.5 4.9,1.3 11.3,0.9 12.1,-2.3 0.7,-2.5 -9.6,-14.5 -10,-15.5 -0.4,-1.1 -1,-4.3 -1,-4.3 z"
   id="path77137"
   inkscape:connector-curvature="0"
   style="fill:#2d3134" />
	<path
   d="m 229.7,216.7 c -0.9,-1.7 -4.5,-5.7 -5.1,-8.3 -0.2,-0.9 -0.1,-1.9 0.2,-2.8 0.5,1.3 1.2,3.1 2.1,4 1.4,1.6 4.3,7.6 6,10.5 2.2,3.8 12.3,6.5 16.4,2.1 0.1,0.3 0.1,0.5 0,0.7 -0.9,3.2 -7.2,3.6 -12.1,2.3 -5,-1.3 -6.7,-6.8 -7.5,-8.5 z"
   id="path77139"
   inkscape:connector-curvature="0"
   style="opacity:0.4" />
	<path
   d="m 271.9,190.8 c 4.4,2.7 12.1,4.6 14.7,6 2.8,1.5 4.6,7.3 -1.2,7.7 -5.8,0.4 -15.3,-3.7 -18.6,-3.7 -3.3,0 -9.3,-1 -10.2,-2.9 -0.8,-1.9 0.4,-6.6 0.4,-6.6 z"
   id="path77141"
   inkscape:connector-curvature="0"
   style="fill:#2d3134" />
	<path
   d="m 221.7,123.5 c 0,0 14.4,4.6 21.5,7.6 7,3 14.8,6.7 18,11.3 3.2,4.6 4.5,14.1 5.4,19.2 1,5.3 4.2,17.9 6.1,23.7 1.1,3.2 2.9,5.9 2.7,6.8 -0.2,0.9 -8.4,1.7 -12.7,1.9 -4.9,0.2 -6.7,0.1 -8.3,-1.2 -0.9,-0.8 -3.2,-14 -5.1,-21 -1.9,-7 -4,-16 -4,-16 0,0 -2.2,-0.8 -8.7,-1.9 -6.7,-1.1 -24.6,-6 -27.8,-7.9 -3.2,-1.9 -3,-17.3 -3,-17.3 z"
   id="path77143"
   inkscape:connector-curvature="0"
   style="fill:#cc291f" />
	<path
   d="m 221.7,123.5 c 0,0 14.4,4.6 21.5,7.6 7,3 14.8,6.7 18,11.3 3.2,4.6 4.5,14.1 5.4,19.2 1,5.3 4.2,17.9 6.1,23.7 1.1,3.2 2.9,5.9 2.7,6.8 -0.2,0.9 -8.4,1.7 -12.7,1.9 -4.9,0.2 -6.7,0.1 -8.3,-1.2 -0.9,-0.8 -3.2,-14 -5.1,-21 -1.9,-7 -4,-16 -4,-16 0,0 -2.2,-0.8 -8.7,-1.9 -6.7,-1.1 -24.6,-6 -27.8,-7.9 -3.2,-1.9 -3,-17.3 -3,-17.3 z"
   id="path77145"
   inkscape:connector-curvature="0"
   style="opacity:0.2" />
	<path
   d="m 275.3,187.4 c -0.2,-0.5 -0.8,-0.9 -1.4,-0.7 -3.3,0.8 -10,1.4 -13.9,1.5 -2.9,0.1 -5,0.2 -6.5,0 -0.9,-0.1 -1.6,0.7 -1.4,1.6 0.4,1.6 0.8,2.7 1,2.9 1.8,1.5 3.8,1.6 9.5,1.4 4.8,-0.2 14.2,-1.1 14.5,-2.2 0.1,-0.8 -0.8,-2.4 -1.8,-4.5 z"
   id="path77147"
   inkscape:connector-curvature="0"
   style="fill:#ffffff" />
	<path
   d="m 214.7,128.9 0.1,7.3 c 0,0 4.2,3.6 9,8.2 4.8,4.6 10.3,10.1 12,11.8 1.7,1.7 3.2,2.5 3.8,6.3 0.6,3.8 2.1,29.6 2.2,34.1 0.1,4.4 0.1,10.3 -1,11.3 -1.1,0.9 -6,1.2 -10.2,0.6 -4.8,-0.7 -7.3,-1.5 -7.7,-2.5 -0.4,-0.9 -0.5,-15.1 -0.9,-21.1 -0.4,-6.1 -2,-15.6 -2,-15.6 0,0 -8.7,-3.2 -13.8,-5.3 -5.1,-2.1 -21.9,-6.7 -25.4,-13.2 -3.5,-6.5 -2.2,-13.8 -1.3,-18.3 0.7,-3.8 2.8,-5.7 2.8,-5.7 z"
   id="path77149"
   inkscape:connector-curvature="0"
   style="fill:#cc291f" />
	<path
   d="m 230.6,203 c -3.2,-0.5 -5.7,-1 -7.4,-1.5 -0.9,-0.3 -1.9,0.4 -1.8,1.4 0.1,1.7 0.2,2.8 0.3,3.1 0.4,1.1 3.3,2 8.7,2.8 4.8,0.7 10.2,0.4 11.5,-0.7 0.5,-0.4 0.8,-1.7 1,-3.4 0.1,-0.9 -0.7,-1.7 -1.6,-1.5 -2.9,0.4 -6.9,0.4 -10.7,-0.2 z"
   id="path77151"
   inkscape:connector-curvature="0"
   style="fill:#ffffff" />
	<path
   d="m 256.6,197.9 c -0.1,-0.2 -0.2,-0.5 -0.2,-0.8 2.8,1.2 7.5,2 10.9,2.1 2.9,0.1 12.6,3.9 17.3,3.9 2.2,0 3.7,-0.7 4.6,-1.5 -0.2,1.5 -1.2,2.7 -3.8,2.9 -5.8,0.4 -15.3,-3.7 -18.6,-3.7 -3.3,0 -9.4,-1.1 -10.2,-2.9 z"
   id="path77153"
   inkscape:connector-curvature="0"
   style="opacity:0.4" />
	<path
   d="m 228.6,114.1 c 0.4,-10.8 -0.6,-12.2 -1.1,-21.2 -0.2,-3.6 -2.5,-10.9 -3.9,-14 -1.5,-3.2 -3.5,-5.7 -3.8,-5.9 0,0 -17.7,-3.8 -23.4,-3 -8.2,1.1 -15,7.9 -16.9,13.9 -1.3,4.1 -0.5,30.4 -0.6,37.1 -0.2,9.1 -1.3,16.1 -1,15 -0.5,4.2 -0.5,9.3 2,14 1.9,3.6 5.7,5.9 11.2,8.7 3.2,-2.1 13.9,-5 21.5,-6.6 9.8,-2.1 16.1,-8.2 19.3,-10.6 1.8,-1.3 5.5,-6.9 8.4,-11.5 -4.8,-1.9 -11.8,-15.1 -11.7,-15.9 z"
   id="path77155"
   inkscape:connector-curvature="0"
   style="fill:#cc291f" />
	<path
   d="m 236.3,125.9 c -2.8,4.3 -5.8,8.6 -7.4,9.8 -3.6,2.7 -10.7,9.6 -21.7,12 -8.2,1.7 -18.8,6.3 -22.9,8.8 0.8,0.5 5,2.7 6.8,3.6 0.9,0.4 1.9,0.4 2.7,-0.1 4.4,-2.4 12.5,-5.4 19.6,-6.9 10.3,-2.2 16.8,-8.6 20.2,-11.1 1.9,-1.4 5.7,-7.2 8.8,-12 -0.8,-0.5 -5.4,-3.9 -6.1,-4.1 z"
   id="path77157"
   inkscape:connector-curvature="0"
   style="fill:#ffffff" />
	<path
   d="m 219.8,53.2 c 2.6,4.9 0,15.9 -0.7,18.6 -0.7,2.7 -1.9,5.6 -4.1,6.1 -2.2,0.5 -3.8,1.2 -4.3,2.4 -1,2.3 0.1,6.1 -1.5,6.9 -1.6,0.7 -2.9,-2.3 -8.8,-6.1 -5.6,-3.6 -5.8,-8.5 -5.5,-11.8 0.3,-3.2 -2.6,-8.6 -2,-13.4 C 194,45 213.3,41 219.8,53.2 Z"
   id="path77159"
   inkscape:connector-curvature="0"
   style="fill:#fbd7c7" />
	<path
   d="m 221.1,56.2 c -3.2,3 -11.9,-1.3 -14.7,0.8 -2.3,1.8 -3.1,7.9 -4.3,9.7 -1.6,2.2 -2.4,-2.9 -3.5,-4.3 -1,-1.2 -3,-1.7 -3.7,-0.1 -0.7,1.6 0,4.2 0.1,4.9 -1.7,-0.5 -3.4,-6.8 -2.3,-13.2 1.3,-7.5 13.4,-13.8 24.4,-5.8 5.7,4.2 4,8 4,8 z"
   id="path77161"
   inkscape:connector-curvature="0"
   style="fill:#e5e5e5" />
	<path
   d="m 247.2,120.1 c -0.2,1 0.9,3.3 2.9,2.9 2,-0.3 10.2,-4.1 10.5,-5.8 0.3,-1.7 -1.3,-4.3 -3.6,-3.3 -2.1,1 -9.3,3.4 -9.8,6.2 z"
   id="path77163"
   inkscape:connector-curvature="0"
   style="fill:#ffffff" />
	<path
   d="m 199.9,68.9 c -0.8,-1.2 -4.3,-0.5 -5.7,0.8 -1.7,1.6 -2.5,5.1 0.2,7.8 4.3,4.3 14.4,9.5 16.3,15.5 1.9,6 2.3,17.4 4.8,31.8 2.1,12.1 9.6,20.5 9.6,20.5 l 6.8,-4.5 c 0,0 -7,-9.6 -8.2,-14.8 -3.6,-15.2 -3.7,-30.4 -3.4,-33.4 0.3,-3 2.6,-18.4 1,-20.5 -1.6,-2.1 -5.1,-3.3 -5.8,-1.7 -0.7,1.6 -0.7,11.5 -2.8,11.9 -2.1,0.4 -7.3,-5.2 -9.6,-6.6 -4.8,-3 -2.8,-6 -3.2,-6.8 z"
   id="path77165"
   inkscape:connector-curvature="0"
   style="fill:#ffffff" />
	<path
   d="m 195.2,58.4 c 0,0 -3.3,13.4 2.4,22.6 5,8 23,16.3 23,16.3 0,0 -1.1,-13.3 1.1,-21.2 1.1,-3.8 -1.1,-11.5 -1.1,-11.5 0,0 -2,4.8 -6.2,5.1 -6.7,0.3 -19.2,-11.3 -19.2,-11.3 z"
   id="path77167"
   inkscape:connector-curvature="0"
   style="fill:#e5e5e5" />
	<path
   d="m 193.5,125.4 c -8.4,0 -14.7,-0.7 -15.2,-0.7 l 0.6,-5.2 c 0.2,0 16.6,1.7 26.7,-0.1 14.1,-2.6 23.7,-5.3 23.8,-5.3 l 1.5,3.6 c -0.4,0.2 -10.3,4.2 -24.8,6.9 -3.7,0.6 -8.2,0.8 -12.6,0.8 z"
   id="path77169"
   inkscape:connector-curvature="0"
   style="fill:#2d3134" />
	<path
   d="m 234.2,126.1 -4.8,8.2 c 0,0 0.7,0.6 1.8,1.9 1.1,1.3 4.7,4.2 7.1,5.4 2.9,1.4 6.7,1.9 8.5,1.6 1.7,-0.3 4.4,-2.2 5,-4.3 0.6,-2.1 -4.8,-3.3 -7.7,-4.9 -1.4,-0.8 -2.9,-1.8 -2.4,-2.3 0.5,-0.5 4,3 5.1,2.1 1.9,-1.6 -1.6,-4.6 -3.8,-5.8 -2.2,-1.2 -4.5,-0.8 -6.2,-1 -1.3,0 -2.6,-0.9 -2.6,-0.9 z"
   id="path77171"
   inkscape:connector-curvature="0"
   style="fill:#cc291f" />
	<path
   d="m 234.7,125.9 c -0.1,-1.1 -16.5,-10.5 -21.7,-14.6 -6,-4.8 -10.2,-18.7 -11.8,-21.9 -1.8,-3.7 -6.8,-8.5 -11.7,-10 -6.6,-2 -10.9,7.3 -8.6,16 1.4,5.3 2.8,9.3 8.6,16.2 7.7,9.3 10.7,11.3 15.3,13.9 4.5,2.5 22.9,9.9 23.8,9.8 0.8,-0.3 6.2,-8.7 6.1,-9.4 z"
   id="path77173"
   inkscape:connector-curvature="0"
   style="fill:#cc291f" />
	<path
   d="m 231.4,124 c 1.3,-1.3 4.7,1.1 4.1,2.2 -0.6,1.1 -5.1,10.6 -6.1,10.6 -1,0 -4.7,-1.2 -4.7,-2.6 0.1,-1.3 5.8,-9.2 6.7,-10.2 z"
   id="path77175"
   inkscape:connector-curvature="0"
   style="fill:#ffffff" />
	<path
   d="m 220.5,53.3 c -2.2,-12.9 -14,-23.8 -39,-8.2 14.4,2.4 10.2,7.6 10.5,14.8 0.2,6.8 29.7,0.2 28.5,-6.6 z"
   id="path77177"
   inkscape:connector-curvature="0"
   style="fill:#cc291f" />
	<path
   d="m 192.2,58 c 6.8,-0.1 8.8,-0.6 13.5,-2.3 4.7,-1.7 11.1,-3.4 13.7,-7.3 1.9,0.2 2.5,5.9 2.5,6.6 -1.6,3.7 -6.6,5.4 -13.6,7.8 -7,2.5 -15.3,3.1 -15.9,1.1 -0.8,-0.9 -1.5,-4.6 -0.2,-5.9 z"
   id="path77179"
   inkscape:connector-curvature="0"
   style="fill:#ffffff" />
	<circle
   cx="180"
   cy="45.299999"
   r="4.4000001"
   id="circle77181"
   style="fill:#ffffff" />
</g>
<path
   d="m 369.58093,238.68979 c 0,-3.68 -2.32,-8 -5.58,-10.84 -0.6,-0.52 -1.38,-0.56 -1.98,-0.24 v 0 l -14,7 5.6,7 v 8.6 l 12.98,-6.48 c 0.34,-0.12 0.66,-0.28 0.94,-0.48 l 0.08,-0.04 v -0.02 c 1.22,-0.88 1.96,-2.42 1.96,-4.5 z"
   id="path77185"
   inkscape:connector-curvature="0"
   style="fill:#28896d;stroke-width:0.2" />
<path
   d="m 369.42093,237.46979 -15.82,7.92 v 4.8 l 12.98,-6.48 c 0.34,-0.12 0.66,-0.28 0.94,-0.48 l 0.08,-0.04 v -0.02 c 1.24,-0.86 1.98,-2.4 1.98,-4.5 0,-0.4 -0.02,-0.82 -0.08,-1.24 -0.04,0.02 -0.06,0.04 -0.08,0.04 z"
   id="path77187"
   inkscape:connector-curvature="0"
   style="opacity:0.28999999;stroke-width:0.2" />
<g
   id="g77197"
   transform="matrix(0.2,0,0,0.2,300.00093,201.98979)">
	<path
   d="m 235,171.2 v 23.9 c 0,5 -5.3,8.3 -9.8,6 l -28.1,-14 c -5,-2.5 -8.1,-7.6 -8.1,-13.2 v 0 c 0,-20.2 -11.4,-38.6 -29.4,-47.6 l -28.1,-14 c -5.2,-2.6 -8.5,-7.9 -8.5,-13.7 v 0 c 0,-5.8 -3.3,-11.1 -8.5,-13.7 L 91,73 v 78.4 c 0,10.2 5.7,19.5 14.8,24 L 235,240 v -0.1 c 23.7,11.8 42.9,2.2 42.9,-21.5 0,-18.4 -11.6,-40 -27.9,-54.2 -5.9,-5 -15,-0.8 -15,7 z"
   id="path77189"
   inkscape:connector-curvature="0"
   style="fill:#28896d" />
	<path
   d="m 256,161.3 c -3,-2.6 -6.9,-2.8 -10,-1.2 -1.1,0.6 -6,3 -6,3 0,0 0,0 0,0.1 0.2,-0.1 0.4,-0.2 0.6,-0.3 -2.2,0.9 -4.1,2.8 -5,5.2 3.2,-2.4 7.9,-2.7 11.4,0.3 16.3,14.2 27.9,35.8 27.9,54.2 0,6.3 -1.4,11.6 -3.8,15.8 0.3,-0.3 0.5,-0.6 0.8,-0.9 -1.1,1.3 -2.3,2.4 -3.6,3.4 9.6,-3.1 15.7,-12 15.7,-25.3 -0.1,-18.6 -11.7,-40.1 -28,-54.3 z"
   id="path77191"
   inkscape:connector-curvature="0"
   style="fill:#825012" />
	<path
   d="m 233.6,199.2 c 0,-0.1 0.1,-0.1 0,0 -0.7,-0.4 -1.5,-0.7 -2.4,-1.1 l -28.1,-14 c -5,-2.5 -8.1,-7.6 -8.1,-13.2 0,-20.2 -11.4,-38.6 -29.4,-47.6 l -28.1,-14 c -5.2,-2.6 -8.5,-7.9 -8.5,-13.7 0,-5.8 -3.3,-11.1 -8.5,-13.7 L 97,70 91,73 v 5.5 l 20.5,10.3 c 5.2,2.6 8.5,7.9 8.5,13.7 0,5.8 3.3,11.1 8.5,13.7 l 28.1,14 c 18,9 29.4,27.5 29.4,47.6 0,5.6 3.1,10.7 8.1,13.2 l 28.1,14 c 5.2,2.5 10.2,-1.2 11.4,-5.8 0.1,-0.1 0.1,-0.1 0,0 z"
   id="path77193"
   inkscape:connector-curvature="0"
   style="fill:#825012" />
	<path
   d="m 235,171.2 v 23.9 c 0,5 -5.3,8.3 -9.8,6 l -28.1,-14 c -5,-2.5 -8.1,-7.6 -8.1,-13.2 v 0 c 0,-20.2 -11.4,-38.6 -29.4,-47.6 l -28.1,-14 c -5.2,-2.6 -8.5,-7.9 -8.5,-13.7 v 0 c 0,-5.8 -3.3,-11.1 -8.5,-13.7 L 91,73 v 78.4 c 0,10.2 5.7,19.5 14.8,24 L 235,240 v -0.1 c 23.7,11.8 42.9,2.2 42.9,-21.5 0,-18.4 -11.6,-40 -27.9,-54.2 -5.9,-5 -15,-0.8 -15,7 z"
   id="path77195"
   inkscape:connector-curvature="0"
   style="opacity:0.11000001" />
</g>
<g
   id="g77253"
   transform="matrix(0.2,0,0,0.2,300.00093,201.98979)">
	<g
   id="g77237">
		<path
   d="m 405.1,450.8 c -17.5,-9.5 -55.3,-26.4 -29.3,-42.3 24.3,-14.8 57.8,6.3 75,15.4 25.3,13.4 50.7,31.7 35.2,41.4 -15.7,10 -47.9,3.4 -80.9,-14.5 z"
   id="path77199"
   inkscape:connector-curvature="0"
   style="opacity:0.2" />
		<path
   d="m 397.6,408.6 c 0,0 -0.9,4.3 1,5.6 1.9,1.3 6.2,2.8 8.7,1.6 2.4,-1.2 -1,-7.3 -1,-7.3 z"
   id="path77201"
   inkscape:connector-curvature="0"
   style="fill:#2d3134" />
		<path
   d="m 394.6,367.7 c 0,0 1.7,28.3 2.2,33.2 0.5,4.9 -0.6,10.1 1.6,11 2.2,0.9 8.7,-1.4 8.3,-2.8 -1.1,-3.7 -2.5,-19.7 -1.9,-25.4 0.6,-5.6 6.5,-25.1 6.5,-25.1 z"
   id="path77203"
   inkscape:connector-curvature="0"
   style="fill:#762c07" />
		<path
   d="m 394.6,367.7 c 0,0 1.7,28.3 2.2,33.2 0.5,4.9 -0.6,10.1 1.6,11 2.2,0.9 8.7,-1.4 8.3,-2.8 -1.1,-3.7 -2.5,-19.7 -1.9,-25.4 0.6,-5.6 6.5,-25.1 6.5,-25.1 z"
   id="path77205"
   inkscape:connector-curvature="0"
   style="opacity:0.2" />
		<path
   d="m 388.5,301.6 c -7,-3 -15.5,0.9 -16.4,8.4 -0.9,7.5 11.7,-1.8 11.7,-1.8 z"
   id="path77207"
   inkscape:connector-curvature="0"
   style="fill:#762c07" />
		<path
   d="m 479.2,453.5 c 0,0 0.2,4.1 1.1,4.4 0.9,0.3 7.3,1.4 8.9,0.7 1.6,-0.8 -1.2,-6.5 -1.2,-6.5 z"
   id="path77209"
   inkscape:connector-curvature="0"
   style="fill:#2d3134" />
		<path
   d="m 455.6,459.7 c 0,0 -0.7,3.4 1.3,4.3 2,0.9 7.3,1.2 8.5,0.7 1.1,-0.6 -0.8,-5.7 -0.8,-5.7 z"
   id="path77211"
   inkscape:connector-curvature="0"
   style="fill:#2d3134" />
		<path
   d="m 369.6,422.5 c -0.1,0.9 -0.6,3.2 2.7,5 3.2,1.8 5.7,1.8 7.2,0.9 1.6,-0.9 -0.9,-6.5 -0.9,-6.5 l -8.6,0.6 z"
   id="path77213"
   inkscape:connector-curvature="0"
   style="fill:#2d3134" />
		<path
   d="m 472.4,318.9 c -4,3.7 -21.8,0.9 -34,-8 -12.2,-8.9 -31.8,-24.5 -51.2,-10.7 -19.4,13.8 -8,33.6 -10.2,48.9 -2.2,15.3 -4.4,23.8 -5.8,26.7 -1.3,2.9 -1.9,6.2 -1.9,13.3 0,7.1 -1,33 -0.1,34.3 0.9,1.3 9.2,1.8 10,-0.4 0.5,-1.4 -0.9,-12.2 -0.1,-20 0.4,-4.2 0.1,-12 7.2,-19.8 7.1,-7.8 12.2,-16.2 12.2,-16.2 0,0 13.3,7.1 23.6,10.9 10.2,3.8 16.5,6 16.5,6 0,0 9.8,25.8 10.7,28.5 0.9,2.7 4,18.9 4.7,29.1 0.7,10.2 0,18.2 1.1,19.1 1.1,0.9 9.6,0.9 9.6,-1.6 0,-2.4 -3.1,-23.8 -2.7,-34.7 0.4,-10.9 4.9,-29.1 5.6,-30.9 0.7,-1.8 20,-5.1 24,-16.7 4,-11.6 5.3,-28.5 7.8,-34.5 2.4,-6 7.3,-16.5 7.3,-16.5 0,0 10,5.6 16.9,4.1 6.9,-1.6 6.2,-10.5 2,-16.7 -4.2,-6.2 -6.9,-14.5 -7.8,-16.3 -0.9,-1.8 -0.4,-11.8 -8.2,-14 -7.8,-2.2 -21.1,0.4 -24,8.7 -2.9,8.3 -8.1,22.8 -13.2,27.4 z"
   id="path77215"
   inkscape:connector-curvature="0"
   style="fill:#762c07" />
		<path
   d="m 489,297.8 c 3.1,-7.9 -16.9,-6.6 -18.4,-6.7 2.2,3.6 14.2,17.4 18.4,6.7 z"
   id="path77217"
   inkscape:connector-curvature="0"
   style="fill:#762c07" />
		<path
   d="m 510.5,289.9 c 6.3,2.9 6,-13.6 6.2,-14.9 -3.1,1.8 -14.8,11.1 -6.2,14.9 z"
   id="path77219"
   inkscape:connector-curvature="0"
   style="fill:#762c07" />
		<path
   d="m 497,304.8 c 0,0 1.2,-2.1 4,-2 2.8,0.1 4.2,2.8 4.2,2.8 0,0 -1.8,2.4 -4.1,2.2 -2.3,-0.2 -4.1,-3 -4.1,-3 z"
   id="path77221"
   inkscape:connector-curvature="0"
   style="fill:#2d3134" />
		<path
   d="m 513.1,328.4 c 3.4,1.3 7.4,2.2 10.5,1.5 6.9,-1.6 6.2,-10.5 2,-16.7 -0.1,-0.2 -0.2,-0.4 -0.4,-0.6 -3.9,0.5 -8.7,1.5 -10.6,6.9 -1,2.9 -1.4,6.1 -1.5,8.9 z"
   id="path77223"
   inkscape:connector-curvature="0"
   style="fill:#825012" />
		<path
   d="m 525.7,317.6 c -1.9,0.5 -5,0 -4.5,2.4 0.6,2.4 3.1,1.9 4.4,2.3 0.6,0.2 1.6,2.2 1.6,2.2 0,0 0.3,-2.3 1.2,-3.2 0.9,-0.9 0.7,-4 0,-4.4 -0.6,-0.2 -1.9,0.5 -2.7,0.7 z"
   id="path77225"
   inkscape:connector-curvature="0"
   style="fill:#2d3134" />
		<path
   d="m 468.6,389 c 0,0 7,30.9 8.1,42 1,11.1 1.6,23 2.7,23.9 1,0.9 9.6,0.3 9.5,-1.6 -0.1,-1.9 -2.5,-17.3 -3.6,-26.5 -1.1,-9.2 1.2,-26.2 1.5,-32.4 0.3,-6.2 4.3,-18.5 4.3,-18.5 z"
   id="path77227"
   inkscape:connector-curvature="0"
   style="fill:#762c07" />
		<path
   d="m 468.6,389 c 0,0 7,30.9 8.1,42 1,11.1 1.6,23 2.7,23.9 1,0.9 9.6,0.3 9.5,-1.6 -0.1,-1.9 -2.5,-17.3 -3.6,-26.5 -1.1,-9.2 1.2,-26.2 1.5,-32.4 0.3,-6.2 4.3,-18.5 4.3,-18.5 z"
   id="path77229"
   inkscape:connector-curvature="0"
   style="opacity:0.2" />
		<path
   d="m 494.6,287.4 c -1.5,-1.4 -20.1,-15 -32.8,-26.8 -0.1,-2 -0.1,-4.5 0.3,-7 1.6,-9.5 11.2,-17.8 11.2,-17.8 0,0 -4.7,2.2 -9.6,6.9 -3.7,3.6 -6.4,9.7 -7.5,12.5 -2.5,-2.7 -4.4,-5.1 -5.4,-7 -0.9,-6.6 2.5,-12.6 4.1,-14.8 -2.4,1.4 -5.4,5.3 -6.7,8.5 -3.1,-8.5 -4.2,-17 1.6,-32.2 -4.9,7 -17.2,28.8 5.5,51.7 4.5,4.5 8.5,8.5 11.9,11.9 -3.3,-0.9 -14.2,-3.9 -19.6,-8.9 -6.5,-5.9 -10.7,-14.6 -10.7,-14.6 0,0 1.1,16.7 18.1,24.2 7.7,3.4 14.8,5.4 20,6.4 8.8,8.4 13.1,11.9 14.8,12.9 2.7,1.7 7,-3.9 4.8,-5.9 z"
   id="path77231"
   inkscape:connector-curvature="0"
   style="fill:#825012" />
		<path
   d="m 506.6,283 c -0.9,-1.7 -13.6,-19.3 -21.5,-33.6 0.5,-1.8 1.2,-4 2.3,-6.2 4.2,-8 15.2,-12.6 15.2,-12.6 0,0 -4.8,0.6 -10.6,3.3 -4.4,2.1 -8.6,6.8 -10.3,9 -1.5,-3.1 -2.5,-5.8 -2.8,-7.9 1.1,-6.2 5.9,-10.5 8,-12.1 -2.6,0.6 -6.4,3.2 -8.5,5.7 -0.3,-8.5 1.2,-16.4 10.8,-28.4 -6.4,4.9 -23.8,20.7 -10.2,47.9 2.7,5.4 5.1,10.1 7.2,14.1 -2.7,-1.7 -11.6,-7.7 -15,-13.7 -4.1,-7.1 -5.3,-16.2 -5.3,-16.2 0,0 -4.1,15.3 9,27 5.9,5.3 11.7,9.1 16,11.6 5.4,10.1 8.2,14.5 9.5,15.9 2.1,2.4 7.6,-1.4 6.2,-3.8 z"
   id="path77233"
   inkscape:connector-curvature="0"
   style="fill:#825012" />
		<path
   d="m 491.6,376.8 c 4,-11.6 5.3,-28.5 7.8,-34.5 2.4,-6 7.3,-16.5 7.3,-16.5 l -10.8,-8.1 c 0,0 -13.6,22.8 -17.5,32.3 -3.9,9.5 -10.7,19.9 -11.3,28.2 -0.6,8.3 0.4,15.2 0.4,15.2 0.7,-1.7 20.1,-5.1 24.1,-16.6 z"
   id="path77235"
   inkscape:connector-curvature="0"
   style="fill:#825012" />
	</g>
	<path
   d="m 500.7,344.5 c -0.5,-0.1 -12.7,-1.5 -21.2,-7.4 -8.6,-6.1 -11.8,-16.9 -12,-17.3 l 4.8,-1.4 c 0,0.1 2.9,9.6 10,14.7 7.4,5.2 18.7,6.5 18.8,6.6 z"
   id="path77239"
   inkscape:connector-curvature="0"
   style="fill:#2d3134" />
	<g
   id="g77251">
		<path
   d="m 506.2,348.6 c 1.3,3.7 -2,5 -5.6,6.3 -3.6,1.3 -6.3,2 -7.6,-1.7 -1.3,-3.7 0,-10 3.6,-11.2 3.6,-1.2 8.4,3 9.6,6.6 z"
   id="path77241"
   inkscape:connector-curvature="0"
   style="fill:#ffcc00" />
		<polygon
   points="494,339.2 494,344.6 499.4,341.9 499.4,336.5 "
   id="polygon77243"
   style="fill:#cc291f" />
		<polygon
   points="494,339.2 494,344.6 499.4,341.9 499.4,336.5 "
   id="polygon77245"
   style="opacity:0.3" />
		<path
   d="m 494,339.2 h -8 c -1.6,0 -2.8,1.3 -2.8,2.8 v 5 c 0,2.3 2.7,3.6 4.5,2.3 l 6.3,-4.7 z"
   id="path77247"
   inkscape:connector-curvature="0"
   style="fill:#cc291f" />
		<path
   d="m 505.6,331.8 -6.3,4.7 v 5.4 h 8 c 1.6,0 2.8,-1.3 2.8,-2.8 v -5 c 0,-2.4 -2.6,-3.7 -4.5,-2.3 z"
   id="path77249"
   inkscape:connector-curvature="0"
   style="fill:#cc291f" />
	</g>
</g>
<g
   id="g77309"
   transform="matrix(0.2,0,0,0.2,300.00093,201.98979)">
	<g
   id="g77293">
		<path
   d="m 565.1,370.8 c -17.5,-9.5 -55.3,-26.4 -29.3,-42.3 24.3,-14.8 57.8,6.3 75,15.4 25.3,13.4 50.7,31.7 35.2,41.4 -15.7,10 -47.9,3.4 -80.9,-14.5 z"
   id="path77255"
   inkscape:connector-curvature="0"
   style="opacity:0.2" />
		<path
   d="m 557.6,328.6 c 0,0 -0.9,4.3 1,5.6 1.9,1.3 6.2,2.8 8.7,1.6 2.4,-1.2 -1,-7.3 -1,-7.3 z"
   id="path77257"
   inkscape:connector-curvature="0"
   style="fill:#2d3134" />
		<path
   d="m 554.6,287.7 c 0,0 1.7,28.3 2.2,33.2 0.5,4.9 -0.6,10.1 1.6,11 2.2,0.9 8.7,-1.4 8.3,-2.8 -1.1,-3.7 -2.5,-19.7 -1.9,-25.4 0.6,-5.6 6.5,-25.1 6.5,-25.1 z"
   id="path77259"
   inkscape:connector-curvature="0"
   style="fill:#762c07" />
		<path
   d="m 554.6,287.7 c 0,0 1.7,28.3 2.2,33.2 0.5,4.9 -0.6,10.1 1.6,11 2.2,0.9 8.7,-1.4 8.3,-2.8 -1.1,-3.7 -2.5,-19.7 -1.9,-25.4 0.6,-5.6 6.5,-25.1 6.5,-25.1 z"
   id="path77261"
   inkscape:connector-curvature="0"
   style="opacity:0.2" />
		<path
   d="m 548.5,221.6 c -7,-3 -15.5,0.9 -16.4,8.4 -0.9,7.5 11.7,-1.8 11.7,-1.8 z"
   id="path77263"
   inkscape:connector-curvature="0"
   style="fill:#762c07" />
		<path
   d="m 639.2,373.5 c 0,0 0.2,4.1 1.1,4.4 0.9,0.3 7.3,1.4 8.9,0.7 1.6,-0.8 -1.2,-6.5 -1.2,-6.5 z"
   id="path77265"
   inkscape:connector-curvature="0"
   style="fill:#2d3134" />
		<path
   d="m 615.6,379.7 c 0,0 -0.7,3.4 1.3,4.3 2,0.9 7.3,1.2 8.5,0.7 1.1,-0.6 -0.8,-5.7 -0.8,-5.7 z"
   id="path77267"
   inkscape:connector-curvature="0"
   style="fill:#2d3134" />
		<path
   d="m 529.6,342.5 c -0.1,0.9 -0.6,3.2 2.7,5 3.2,1.8 5.7,1.8 7.2,0.9 1.6,-0.9 -0.9,-6.5 -0.9,-6.5 l -8.6,0.6 z"
   id="path77269"
   inkscape:connector-curvature="0"
   style="fill:#2d3134" />
		<path
   d="m 632.4,238.9 c -4,3.7 -21.8,0.9 -34,-8 -12.2,-8.9 -31.8,-24.5 -51.2,-10.7 -19.4,13.8 -8,33.6 -10.2,48.9 -2.2,15.3 -4.4,23.8 -5.8,26.7 -1.4,2.9 -1.9,6.2 -1.9,13.3 0,7.1 -1,33 -0.1,34.3 0.9,1.3 9.2,1.8 10,-0.4 0.5,-1.4 -0.9,-12.2 -0.1,-20 0.4,-4.2 0.1,-12 7.2,-19.8 7.1,-7.8 12.2,-16.2 12.2,-16.2 0,0 13.3,7.1 23.6,10.9 10.2,3.8 16.5,6 16.5,6 0,0 9.8,25.8 10.7,28.5 0.9,2.7 4,18.9 4.7,29.1 0.7,10.2 0,18.2 1.1,19.1 1.1,0.9 9.6,0.9 9.6,-1.6 0,-2.4 -3.1,-23.8 -2.7,-34.7 0.4,-10.9 4.9,-29.1 5.6,-30.9 0.7,-1.8 20,-5.1 24,-16.7 4,-11.6 5.3,-28.5 7.8,-34.5 2.4,-6 7.3,-16.5 7.3,-16.5 0,0 10,5.6 16.9,4.1 6.9,-1.6 6.2,-10.5 2,-16.7 -4.2,-6.2 -6.9,-14.5 -7.8,-16.3 -0.9,-1.8 -0.4,-11.8 -8.2,-14 -7.8,-2.2 -21.1,0.4 -24,8.7 -2.9,8.3 -8.1,22.8 -13.2,27.4 z"
   id="path77271"
   inkscape:connector-curvature="0"
   style="fill:#762c07" />
		<path
   d="m 649,217.8 c 3.1,-7.9 -16.9,-6.6 -18.4,-6.7 2.2,3.6 14.2,17.4 18.4,6.7 z"
   id="path77273"
   inkscape:connector-curvature="0"
   style="fill:#762c07" />
		<path
   d="m 670.5,209.9 c 6.3,2.9 6,-13.6 6.2,-14.9 -3.1,1.8 -14.8,11.1 -6.2,14.9 z"
   id="path77275"
   inkscape:connector-curvature="0"
   style="fill:#762c07" />
		<path
   d="m 657,224.8 c 0,0 1.2,-2.1 4,-2 2.8,0.1 4.2,2.8 4.2,2.8 0,0 -1.8,2.4 -4.1,2.2 -2.3,-0.2 -4.1,-3 -4.1,-3 z"
   id="path77277"
   inkscape:connector-curvature="0"
   style="fill:#2d3134" />
		<path
   d="m 673.1,248.4 c 3.4,1.3 7.4,2.2 10.5,1.5 6.9,-1.6 6.2,-10.5 2,-16.7 -0.1,-0.2 -0.2,-0.4 -0.4,-0.6 -3.9,0.5 -8.7,1.5 -10.6,6.9 -1,2.9 -1.4,6.1 -1.5,8.9 z"
   id="path77279"
   inkscape:connector-curvature="0"
   style="fill:#825012" />
		<path
   d="m 685.7,237.6 c -1.9,0.5 -5,0 -4.5,2.4 0.6,2.4 3.1,1.9 4.4,2.3 0.6,0.2 1.6,2.2 1.6,2.2 0,0 0.3,-2.3 1.2,-3.2 0.9,-0.9 0.7,-4 0,-4.4 -0.6,-0.2 -1.9,0.5 -2.7,0.7 z"
   id="path77281"
   inkscape:connector-curvature="0"
   style="fill:#2d3134" />
		<path
   d="m 628.6,309 c 0,0 7,30.9 8.1,42 1,11.1 1.6,23 2.7,23.9 1,0.9 9.6,0.3 9.5,-1.6 -0.1,-1.9 -2.5,-17.3 -3.6,-26.5 -1,-9.2 1.2,-26.2 1.5,-32.4 0.3,-6.2 4.3,-18.5 4.3,-18.5 z"
   id="path77283"
   inkscape:connector-curvature="0"
   style="fill:#762c07" />
		<path
   d="m 628.6,309 c 0,0 7,30.9 8.1,42 1,11.1 1.6,23 2.7,23.9 1,0.9 9.6,0.3 9.5,-1.6 -0.1,-1.9 -2.5,-17.3 -3.6,-26.5 -1,-9.2 1.2,-26.2 1.5,-32.4 0.3,-6.2 4.3,-18.5 4.3,-18.5 z"
   id="path77285"
   inkscape:connector-curvature="0"
   style="opacity:0.2" />
		<path
   d="m 654.6,207.4 c -1.5,-1.4 -20.1,-15 -32.8,-26.8 -0.1,-2 -0.1,-4.5 0.3,-7 1.6,-9.5 11.2,-17.8 11.2,-17.8 0,0 -4.7,2.2 -9.6,6.9 -3.7,3.6 -6.4,9.7 -7.5,12.5 -2.5,-2.7 -4.4,-5.1 -5.4,-7 -0.9,-6.6 2.5,-12.6 4.1,-14.8 -2.4,1.4 -5.4,5.3 -6.7,8.5 -3.1,-8.5 -4.2,-17 1.6,-32.2 -4.9,7 -17.2,28.8 5.5,51.7 4.5,4.5 8.5,8.5 11.9,11.9 -3.3,-0.9 -14.2,-3.9 -19.6,-8.9 -6.5,-5.9 -10.7,-14.6 -10.7,-14.6 0,0 1.1,16.7 18.1,24.2 7.7,3.4 14.8,5.4 20,6.4 8.8,8.4 13.1,11.9 14.8,12.9 2.7,1.7 7,-3.9 4.8,-5.9 z"
   id="path77287"
   inkscape:connector-curvature="0"
   style="fill:#825012" />
		<path
   d="m 666.6,203 c -0.9,-1.7 -13.6,-19.3 -21.5,-33.6 0.5,-1.8 1.2,-4 2.3,-6.2 4.2,-8 15.2,-12.6 15.2,-12.6 0,0 -4.8,0.6 -10.6,3.3 -4.4,2.1 -8.6,6.8 -10.3,9 -1.5,-3.1 -2.5,-5.8 -2.8,-7.9 1.1,-6.2 5.9,-10.5 8,-12.1 -2.6,0.6 -6.4,3.2 -8.5,5.7 -0.3,-8.5 1.2,-16.4 10.8,-28.4 -6.4,4.9 -23.8,20.7 -10.2,47.9 2.7,5.4 5.1,10.1 7.2,14.1 -2.7,-1.7 -11.6,-7.7 -15,-13.7 -4.1,-7.1 -5.3,-16.2 -5.3,-16.2 0,0 -4.1,15.3 9,27 5.9,5.3 11.7,9.1 16,11.6 5.4,10.1 8.2,14.5 9.5,15.9 2.1,2.4 7.6,-1.4 6.2,-3.8 z"
   id="path77289"
   inkscape:connector-curvature="0"
   style="fill:#825012" />
		<path
   d="m 651.6,296.8 c 4,-11.6 5.3,-28.5 7.8,-34.5 2.4,-6 7.3,-16.5 7.3,-16.5 l -10.8,-8.1 c 0,0 -13.6,22.8 -17.5,32.3 -3.9,9.5 -10.7,19.9 -11.3,28.2 -0.6,8.3 0.4,15.2 0.4,15.2 0.7,-1.7 20.1,-5.1 24.1,-16.6 z"
   id="path77291"
   inkscape:connector-curvature="0"
   style="fill:#825012" />
	</g>
	<path
   d="m 660.7,264.5 c -0.5,-0.1 -12.7,-1.5 -21.2,-7.4 -8.6,-6.1 -11.8,-16.9 -12,-17.3 l 4.8,-1.4 c 0,0.1 2.9,9.6 10,14.7 7.4,5.2 18.7,6.5 18.8,6.6 z"
   id="path77295"
   inkscape:connector-curvature="0"
   style="fill:#2d3134" />
	<g
   id="g77307">
		<path
   d="m 666.2,268.6 c 1.3,3.7 -2,5 -5.6,6.3 -3.6,1.3 -6.3,2 -7.6,-1.7 -1.3,-3.7 0,-10 3.6,-11.2 3.6,-1.2 8.4,3 9.6,6.6 z"
   id="path77297"
   inkscape:connector-curvature="0"
   style="fill:#ffcc00" />
		<polygon
   points="654,259.2 654,264.6 659.4,261.9 659.4,256.5 "
   id="polygon77299"
   style="fill:#cc291f" />
		<polygon
   points="654,259.2 654,264.6 659.4,261.9 659.4,256.5 "
   id="polygon77301"
   style="opacity:0.3" />
		<path
   d="m 654,259.2 h -8 c -1.6,0 -2.8,1.3 -2.8,2.8 v 5 c 0,2.3 2.7,3.6 4.5,2.3 l 6.3,-4.7 z"
   id="path77303"
   inkscape:connector-curvature="0"
   style="fill:#cc291f" />
		<path
   d="m 665.6,251.8 -6.3,4.7 v 5.4 h 8 c 1.6,0 2.8,-1.3 2.8,-2.8 v -5 c 0,-2.4 -2.6,-3.7 -4.5,-2.3 z"
   id="path77305"
   inkscape:connector-curvature="0"
   style="fill:#cc291f" />
	</g>
</g>
<path
   d="m 393.94093,266.44979 c -1.76,-1.32 -43.5,-32.52 -45.76,-34.68 -0.04,-0.04 -0.08,-0.06 -0.12,-0.1 -0.4,-0.44 -0.62,-0.94 -0.66,-1.46 l 0.9,0.34 c 0.02,0.14 0.04,0.34 0.24,0.48 0.06,0.04 0.12,0.1 0.18,0.16 2.24,2.12 45.26,34.28 45.7,34.62 z"
   id="path77311"
   inkscape:connector-curvature="0"
   style="fill:#2d3134;stroke-width:0.2" />
<path
   d="m 425.88093,250.36979 c -24.58,-7.8 -71.4,-22.54 -73.44,-22.78 -0.84,0.16 -2.02,0.66 -2.8,1.22 l -0.32,-0.68 c 0.72,-0.52 1.92,-1.12 3.02,-1.34 0.24,-0.04 0.76,-0.14 37.4,11.34 18.06,5.66 36.58,11.46 36.76,11.52 z"
   id="path77313"
   inkscape:connector-curvature="0"
   style="fill:#2d3134;stroke-width:0.2" />
<path
   d="m 351.60093,226.68979 c 0,0 0.8,1.46 1.24,1.46 0.44,0 -0.22,-1.56 -0.22,-1.56 z"
   id="path77315"
   inkscape:connector-curvature="0"
   style="fill:#cc291f;stroke-width:0.2" />
</svg>