<?xml version="1.0" encoding="UTF-8" standalone="no"?>
<!-- Generator: Adobe Illustrator 18.1.0, SVG Export Plug-In . SVG Version: 6.00 Build 0)  -->

<svg
   xmlns:dc="http://purl.org/dc/elements/1.1/"
   xmlns:cc="http://creativecommons.org/ns#"
   xmlns:rdf="http://www.w3.org/1999/02/22-rdf-syntax-ns#"
   xmlns:svg="http://www.w3.org/2000/svg"
   xmlns="http://www.w3.org/2000/svg"
   xmlns:sodipodi="http://sodipodi.sourceforge.net/DTD/sodipodi-0.dtd"
   xmlns:inkscape="http://www.inkscape.org/namespaces/inkscape"
   version="1.1"
   id="Layer_1"
   x="0px"
   y="0px"
   viewBox="0 0 16 24"
   enable-background="new 0 0 16 24"
   xml:space="preserve"
   sodipodi:docname="snowman.svg"
   inkscape:export-filename="C:\ML\Projekte\Adventskalender\assets\images\Item13.png"
   inkscape:export-xdpi="96"
   inkscape:export-ydpi="96"
   inkscape:version="0.92.4 (5da689c313, 2019-01-14)"><metadata
   id="metadata63428"><rdf:RDF><cc:Work
       rdf:about=""><dc:format>image/svg+xml</dc:format><dc:type
         rdf:resource="http://purl.org/dc/dcmitype/StillImage" /><dc:title></dc:title></cc:Work></rdf:RDF></metadata><defs
   id="defs63426" /><sodipodi:namedview
   pagecolor="#ffffff"
   bordercolor="#666666"
   borderopacity="1"
   objecttolerance="10"
   gridtolerance="10"
   guidetolerance="10"
   inkscape:pageopacity="0"
   inkscape:pageshadow="2"
   inkscape:window-width="3440"
   inkscape:window-height="1377"
   id="namedview63424"
   showgrid="false"
   inkscape:zoom="9.8333333"
   inkscape:cx="8"
   inkscape:cy="12"
   inkscape:window-x="-8"
   inkscape:window-y="-8"
   inkscape:window-maximized="1"
   inkscape:current-layer="Layer_1" />
<path
   fill="#E5E5E5"
   d="M14,19c0,3.3-2.7,5-6,5s-6-1.7-6-5s2.7-6,6-6S14,15.7,14,19z"
   id="path63381" />
<polygon
   fill="#825012"
   points="5.1,10.4 1.1,8.4 2.1,8.4 6.1,10 "
   id="polygon63383" />
<path
   opacity="0.2"
   d="M13,15.7c-0.1-0.1-0.2-0.2-0.2-0.3c0,0,0,0,0,0c0.1,0.5,0.2,1.1,0.2,1.6c0,3.3-2.7,5-6,5  c-1.9,0-3.6,0.1-4.7-1.3C3,22.9,5.3,24,8,24c3.3,0,6-1.7,6-5C14,17.8,13.6,16.6,13,15.7z"
   id="path63385" />
<g
   id="g63389">
	<path
   fill="#E5E5E5"
   d="M12,12c0,2.2-1.8,3.2-4,3.2s-4-1-4-3.2s1.8-4,4-4S12,9.8,12,12z"
   id="path63387" />
</g>
<path
   opacity="0.2"
   d="M10.7,9c0.3,0.6,0.5,1.2,0.5,2c0,2.2-1.8,3.2-4,3.2c-1.2,0-2.2-0.3-2.9-0.9c0.6,1.3,2,1.9,3.7,1.9  c2.2,0,4-1,4-3.2C12,10.8,11.5,9.8,10.7,9z"
   id="path63391" />
<circle
   fill="#E5E5E5"
   cx="8"
   cy="6"
   r="3"
   id="circle63393" />
<circle
   fill="#2D3134"
   cx="8.1"
   cy="5.6"
   r="0.3"
   id="circle63395" />
<circle
   fill="#2D3134"
   cx="6.5"
   cy="5.2"
   r="0.3"
   id="circle63397" />
<path
   opacity="0.2"
   d="M9.9,3.7c0.2,0.4,0.3,0.9,0.3,1.4c0,1.7-1.3,3-3,3c-0.7,0-1.4-0.3-1.9-0.7C5.8,8.3,6.8,9,8,9c1.7,0,3-1.3,3-3  C11,5.1,10.6,4.3,9.9,3.7z"
   id="path63399" />
<polygon
   fill="#FF9900"
   points="7,7 7,6 4,7 "
   id="polygon63401" />
<path
   fill="#2D3134"
   d="M6.6,17.8c0,0.2-0.2,0.3-0.4,0.2c-0.2-0.1-0.4-0.3-0.4-0.5s0.2-0.3,0.4-0.2C6.5,17.3,6.6,17.6,6.6,17.8z"
   id="path63403" />
<path
   fill="#2D3134"
   d="M6.6,12.8c0,0.2-0.2,0.3-0.4,0.2s-0.4-0.3-0.4-0.5s0.2-0.3,0.4-0.2C6.5,12.4,6.6,12.6,6.6,12.8z"
   id="path63405" />
<path
   fill="#2D3134"
   d="M6.6,20c0,0.2-0.2,0.3-0.4,0.2c-0.2-0.1-0.4-0.3-0.4-0.5s0.2-0.3,0.4-0.2C6.5,19.5,6.6,19.8,6.6,20z"
   id="path63407" />
<path
   fill="#825012"
   d="M16,10h-1l-3.3,1.6c-0.4,0.2-1,0.2-1.4,0l-0.9-0.4L9,12l1,0.5c0.6,0.3,1.4,0.3,1.9-0.1l1.2-0.7l1.4,0.2  l0.6-0.3l-1.3-0.3L16,10z"
   id="path63409" />
<path
   fill="#CC291F"
   d="M9.9,8.2C9.4,8.5,8.7,8.8,8,8.8S6.4,8.6,5.9,8.2C5.7,8.3,5.7,8.7,5.5,8.9c0.5,0.7,1.5,1,2.5,1  s1.8-0.3,2.4-1.1C10.2,8.6,10.2,8.3,9.9,8.2z"
   id="path63411" />
<path
   fill="#CC291F"
   d="M5.9,3.6c0,0,1.5-2.3,4.8-2.7C9.2,2.3,9.9,2.7,9.8,3.3S6.1,4.6,5.9,3.6z"
   id="path63413" />
<path
   fill="#FFFFFF"
   d="M9.9,3C9.4,3.4,8.7,3.7,8,3.7S6.4,3.4,5.9,3.1C5.7,3.2,5.7,3.5,5.5,3.7c0.5,0.7,1.5,1,2.5,1s1.8-0.3,2.4-1.1  C10.2,3.5,10.2,3.1,9.9,3z"
   id="path63415" />
<polygon
   fill="#CC291F"
   points="6.2,9 2.8,12 3.9,13 7,9.6 "
   id="polygon63417" />
<polygon
   fill="#CC291F"
   points="6.5,9.1 7.7,15.6 9.4,15 7.5,9.1 "
   id="polygon63419" />
<circle
   fill="#FFFFFF"
   cx="10.8"
   cy="0.9"
   r="0.5"
   id="circle63421" />
</svg>