<?xml version="1.0" encoding="UTF-8" standalone="no"?>
<!-- Generator: Adobe Illustrator 18.1.0, SVG Export Plug-In . SVG Version: 6.00 Build 0)  -->

<svg
   xmlns:dc="http://purl.org/dc/elements/1.1/"
   xmlns:cc="http://creativecommons.org/ns#"
   xmlns:rdf="http://www.w3.org/1999/02/22-rdf-syntax-ns#"
   xmlns:svg="http://www.w3.org/2000/svg"
   xmlns="http://www.w3.org/2000/svg"
   xmlns:sodipodi="http://sodipodi.sourceforge.net/DTD/sodipodi-0.dtd"
   xmlns:inkscape="http://www.inkscape.org/namespaces/inkscape"
   version="1.1"
   id="Layer_1"
   x="0px"
   y="0px"
   viewBox="0 0 160 240"
   enable-background="new 0 0 160 240"
   xml:space="preserve"
   sodipodi:docname="winter-kid-11.svg"
   inkscape:export-filename="C:\ML\Projekte\Adventskalender\assets\images\Item8.png"
   inkscape:export-xdpi="96"
   inkscape:export-ydpi="96"
   inkscape:version="0.92.4 (5da689c313, 2019-01-14)"><metadata
   id="metadata72098"><rdf:RDF><cc:Work
       rdf:about=""><dc:format>image/svg+xml</dc:format><dc:type
         rdf:resource="http://purl.org/dc/dcmitype/StillImage" /><dc:title></dc:title></cc:Work></rdf:RDF></metadata><defs
   id="defs72096" /><sodipodi:namedview
   pagecolor="#ffffff"
   bordercolor="#666666"
   borderopacity="1"
   objecttolerance="10"
   gridtolerance="10"
   guidetolerance="10"
   inkscape:pageopacity="0"
   inkscape:pageshadow="2"
   inkscape:window-width="3440"
   inkscape:window-height="1377"
   id="namedview72094"
   showgrid="false"
   inkscape:zoom="0.98333333"
   inkscape:cx="80"
   inkscape:cy="120"
   inkscape:window-x="-8"
   inkscape:window-y="-8"
   inkscape:window-maximized="1"
   inkscape:current-layer="Layer_1" />
<g
   id="g72091"
   transform="matrix(0.2,0,0,0.2,68.647448,123.79997)">
	<path
   d="m 108.5,227.5 c -8.6,4.1 -21.1,-3.1 -37.6,-9.6 -12.2,-4.8 -45.9,-19.4 -41.2,-23.2 4.5,-3.6 30.9,7.5 48,13.7 17.9,6.4 38,15.7 30.8,19.1 z"
   id="path72057"
   inkscape:connector-curvature="0"
   style="opacity:0.2" />
	<path
   d="m 86.2,215.6 v 3.1 c 0,0 13.7,7.5 15.2,8.2 1.6,0.7 4.3,0.2 4.4,-2.1 0.1,-2.1 -0.8,-4.6 -0.8,-4.6 l -2.5,0.4 c 0,0 0.8,2 0.4,2.9 -0.7,1.5 -10.8,-4.9 -10.8,-4.9 v -3.3 l -2.9,-0.6 v 2.6 z"
   id="path72059"
   inkscape:connector-curvature="0"
   style="fill:#999999" />
	<path
   d="m 89.8,204.9 c -0.5,1.7 -3.3,5.1 -2.8,7.5 0.4,2.3 2,2.8 3.9,3.3 1.9,0.6 5.1,2.5 6.3,3.9 1.2,1.4 7.7,3.3 9.9,0.8 2,-2.2 -1,-4.3 -3.1,-5.9 -1.8,-1.4 -5.4,-7.1 -5.5,-8 -0.1,-0.8 -8.7,-1.6 -8.7,-1.6 z"
   id="path72061"
   inkscape:connector-curvature="0"
   style="fill:#2d3134" />
	<path
   d="m 107.2,219.4 c -2.2,2.5 -8.8,0.6 -9.9,-0.8 -1.2,-1.4 -4.4,-4 -6.3,-4.5 -1.8,-0.5 -3.4,-1 -3.9,-3.1 -0.1,0.5 -0.1,1 -0.1,1.5 0.4,2.3 2,2.8 3.9,3.3 1.9,0.5 5.1,2.5 6.3,3.9 1.2,1.4 7.7,3.3 9.9,0.8 0.6,-0.7 0.8,-1.4 0.6,-2.1 -0.1,0.3 -0.3,0.6 -0.5,1 z"
   id="path72063"
   inkscape:connector-curvature="0"
   style="opacity:0.5" />
	<path
   d="m 41.6,147.5 c 0,0 -11.5,13 -12.5,14.9 -1,1.9 0.4,3.5 2.9,3.8 2.5,0.3 4.2,-0.6 4.2,-0.6 v -2.9 c 0,0 -2.7,1.2 -3.2,-0.1 -0.4,-1 7,-9.5 7,-9.5 l 5,1.2 1.7,-2.2 -4.8,-1.3 2.4,-2.6 z"
   id="path72065"
   inkscape:connector-curvature="0"
   style="fill:#999999" />
	<path
   d="m 56.2,152.6 c 0,0 -5.3,-3.4 -7.7,-3.2 -2.7,0.3 -4.9,4.4 -7,6 -2.1,1.6 -4,1.7 -5.3,3.6 -1.2,1.7 -3.2,8 -0.7,9.1 2.4,1.1 4.6,-1.7 7.1,-3 2.4,-1.4 9.1,-2.8 9.1,-2.8 z"
   id="path72067"
   inkscape:connector-curvature="0"
   style="fill:#2d3134" />
	<path
   d="m 36.5,168.2 c -2.4,-1.1 -0.4,-7.4 0.7,-9.1 1.3,-1.9 3.7,-2.1 5.9,-3.6 2.1,-1.5 4.1,-5.3 6.7,-5.9 -0.5,-0.1 -0.9,-0.2 -1.3,-0.1 -2.7,0.3 -4.9,4.4 -7,6 -2.2,1.6 -4,1.7 -5.3,3.6 -1.2,1.7 -3.2,8 -0.7,9.1 0.5,0.2 0.9,0.3 1.4,0.2 -0.1,-0.1 -0.3,-0.2 -0.4,-0.2 z"
   id="path72069"
   inkscape:connector-curvature="0"
   style="opacity:0.5" />
	<path
   d="m 109,131.4 c 0,0 0.3,3.8 -1.9,8.3 -2.2,4.5 -12.6,25.4 -19.8,27.5 -4.9,1.4 -12.5,-0.7 -18.4,-1.5 -4.5,-0.6 -16.1,-1 -17.6,-2.1 -1.8,-1.4 -0.5,-11 3.6,-11.5 4.7,-0.5 11.5,-0.2 17.7,0.5 4,0.5 7.9,0.5 7.9,0.5 0,0 4.9,-14.3 6.4,-17.7 1.5,-3.4 22.1,-4 22.1,-4 z"
   id="path72071"
   inkscape:connector-curvature="0"
   style="fill:#06547a" />
	<path
   d="m 109,131.4 c 0,0 0.3,3.8 -1.9,8.3 -2.2,4.5 -12.6,25.4 -19.8,27.5 -4.9,1.4 -12.5,-0.7 -18.4,-1.5 -4.5,-0.6 -16.1,-1 -17.6,-2.1 -1.8,-1.4 -0.5,-11 3.6,-11.5 4.7,-0.5 11.5,-0.2 17.7,0.5 4,0.5 7.9,0.5 7.9,0.5 0,0 4.9,-14.3 6.4,-17.7 1.5,-3.4 22.1,-4 22.1,-4 z"
   id="path72073"
   inkscape:connector-curvature="0"
   style="opacity:0.2" />
	<path
   d="m 83,120.8 c 0,0 -6.6,4.7 -5.9,13.4 0.7,8.7 10.9,28.2 11.9,30.5 1.9,4.7 3.4,6.7 1.2,14.5 -2.2,7.8 -2.3,21 -2.8,26.4 -0.5,4.8 5,1.7 7.8,1.8 3,0.1 4.7,1.1 4.8,-1.8 0.1,-5.2 1.3,-19 2.6,-24 1.3,-5 3.5,-7.3 2.1,-11.7 -1.4,-4.4 -7.2,-26.8 -7.1,-28.6 0.1,-1.8 1.9,-8 1.9,-8 z"
   id="path72075"
   inkscape:connector-curvature="0"
   style="fill:#06547a" />
	<path
   d="m 73.8,102.3 c 0,0 -2,-1.6 -3,-1.8 -1,-0.2 -4.9,1.4 -6.4,2.8 -1.5,1.4 -1.4,3.7 -0.9,4.5 0.5,0.7 1.7,1.1 1.9,1.7 0.2,0.6 0.2,2.4 1.3,2.4 1.1,0 3.2,0.2 4.2,-0.4 1,-0.6 2.6,-2.9 3.4,-3.4 0.9,-0.5 1.3,-0.7 1.3,-0.7 z"
   id="path72077"
   inkscape:connector-curvature="0"
   style="fill:#fbd7c7" />
	<path
   d="m 120.3,143.8 c -0.9,0.1 -5,0.2 -7,0.7 -1.9,0.5 -4.4,1.5 -4.6,3 -0.2,1.5 -0.5,3.7 0.9,4.8 1.4,1.1 7.4,3.9 9.3,3.1 1.9,-0.7 3.3,-5.5 4.7,-6.1 1.4,-0.6 1.9,-1.3 1.9,-1.3 z"
   id="path72079"
   inkscape:connector-curvature="0"
   style="fill:#fbd7c7" />
	<path
   d="m 122.7,102.4 c -3.3,-0.8 -12.3,-2.4 -18.3,-3.4 -6,-1 -12,-1.2 -13.5,-1.5 -1.8,-0.4 -4.3,-1.4 -8.2,0.1 -4,1.5 -8.2,2.9 -9.4,3.7 -1,0.7 -2.5,5.3 -0.4,7.2 1.6,1.4 4.4,-0.3 6.9,-0.9 2.8,-0.7 6.6,-1.4 6.6,-1.4 l 6,2.8 c 0,0 -3.1,5.9 -4.7,7.3 -4.3,3.7 -8.4,6.4 -8.9,7.5 -1,2.6 7.3,12 18.3,12.4 11,0.4 10.5,0 12.9,-1.8 1.2,-0.9 9.1,-7.6 11.6,-9.8 2.2,-2 4.2,-4.1 4.2,-4.1 0,0 2.3,3.9 3.3,5.8 1,1.9 3.1,4.1 3.1,4.1 0,0 -5.4,6 -7.9,8.7 -2.6,2.7 -4.8,4.4 -4.8,4.8 0,0.4 3,4.9 4.4,5.1 1.4,0.2 3.9,-1.2 5.9,-2.7 2,-1.5 12.4,-9.4 12.9,-13.4 0.5,-4 -0.4,-5 -1.2,-6.5 -0.7,-1.5 -4.8,-10.4 -5.7,-13.7 -0.5,-2.8 -2,-7.5 -13.1,-10.3 z"
   id="path72081"
   inkscape:connector-curvature="0"
   style="fill:#cc291f" />
	<path
   d="m 118.8,97.5 c -0.6,-1.5 -6.8,-4.2 -10.4,0.7 -3.6,4.9 1.2,3.1 1.8,7.8 0.6,4.7 6,10 9.9,10.2 3.8,0.2 7.7,-1.1 9.1,-7.5 1.3,-6.6 -10.4,-11.2 -10.4,-11.2 z"
   id="path72083"
   inkscape:connector-curvature="0"
   style="fill:#cc291f" />
	<path
   d="m 118.8,97.5 c -0.6,-1.5 -6.8,-4.2 -10.4,0.7 -3.6,4.9 1.2,3.1 1.8,7.8 0.6,4.7 6,10 9.9,10.2 3.8,0.2 7.7,-1.1 9.1,-7.5 1.3,-6.6 -10.4,-11.2 -10.4,-11.2 z"
   id="path72085"
   inkscape:connector-curvature="0"
   style="opacity:0.2" />
	<path
   d="m 125.2,112.5 c 2.2,-0.4 4.7,-4.9 6,-7.7 1.4,-2.8 2.4,-11.5 -0.2,-17.7 -2.8,-6.6 -17.2,-8.6 -20.2,1.2 -2.9,9.8 2.5,15.5 3.8,17 1.4,1.6 6.8,7.8 10.6,7.2 z"
   id="path72087"
   inkscape:connector-curvature="0"
   style="fill:#fbd7c7" />
	<path
   d="m 109.9,96 c 0,0 1.7,-1.1 2.7,1.2 0.5,1.2 0.4,2 1.2,2 0.7,0 1.2,-3.2 3.4,-2.5 2.2,0.7 7.3,3.2 11.7,2 4.5,-1.2 5.9,-4.5 3.6,-9.7 -2.3,-5.2 -9.1,-11.3 -17.9,-6.4 -7.5,4.2 -4.7,13.4 -4.7,13.4 z"
   id="path72089"
   inkscape:connector-curvature="0"
   style="fill:#825012" />
</g>
</svg>