<?xml version="1.0" encoding="UTF-8" standalone="no"?>
<!-- Generator: Adobe Illustrator 18.1.0, SVG Export Plug-In . SVG Version: 6.00 Build 0)  -->

<svg
   xmlns:dc="http://purl.org/dc/elements/1.1/"
   xmlns:cc="http://creativecommons.org/ns#"
   xmlns:rdf="http://www.w3.org/1999/02/22-rdf-syntax-ns#"
   xmlns:svg="http://www.w3.org/2000/svg"
   xmlns="http://www.w3.org/2000/svg"
   xmlns:sodipodi="http://sodipodi.sourceforge.net/DTD/sodipodi-0.dtd"
   xmlns:inkscape="http://www.inkscape.org/namespaces/inkscape"
   version="1.1"
   id="Layer_1"
   x="0px"
   y="0px"
   viewBox="0 0 80 160"
   enable-background="new 0 0 80 160"
   xml:space="preserve"
   sodipodi:docname="winter-kid-01.svg"
   inkscape:export-filename="C:\ML\Projekte\Adventskalender\assets\images\Item10.png"
   inkscape:export-xdpi="96"
   inkscape:export-ydpi="96"
   inkscape:version="0.92.4 (5da689c313, 2019-01-14)"><metadata
   id="metadata68688"><rdf:RDF><cc:Work
       rdf:about=""><dc:format>image/svg+xml</dc:format><dc:type
         rdf:resource="http://purl.org/dc/dcmitype/StillImage" /><dc:title></dc:title></cc:Work></rdf:RDF></metadata><defs
   id="defs68686" /><sodipodi:namedview
   pagecolor="#ffffff"
   bordercolor="#666666"
   borderopacity="1"
   objecttolerance="10"
   gridtolerance="10"
   guidetolerance="10"
   inkscape:pageopacity="0"
   inkscape:pageshadow="2"
   inkscape:window-width="3440"
   inkscape:window-height="1377"
   id="namedview68684"
   showgrid="false"
   inkscape:zoom="1.475"
   inkscape:cx="40"
   inkscape:cy="80"
   inkscape:window-x="-8"
   inkscape:window-y="-8"
   inkscape:window-maximized="1"
   inkscape:current-layer="Layer_1" />
<path
   d="m 36.197156,90.762987 c -1.64,1.14 -1.44,2.2 0.32,3.14 1.92,1.04 3.02,0.42 4.52,-0.42 1.5,-0.86 1.52,-2 -0.68,-2.88 -1.78,-0.74 -3.24,-0.48 -4.16,0.16 z"
   id="path68641"
   inkscape:connector-curvature="0"
   style="opacity:0.2;stroke-width:0.2" />
<path
   d="m 36.137156,74.882987 c -0.22,0.38 -0.5,0.84 -0.64,1.64 -0.14,0.8 -0.08,1.78 -0.24,2.3 -0.16,0.5 -0.32,1.34 -0.12,1.92 0.2,0.58 0.44,0.98 0.82,0.74 0.38,-0.24 0.02,-1 0.04,-1.28 0.02,-0.26 0.24,-0.8 0.18,-1.06 -0.06,-0.28 -0.18,-0.24 -0.1,-0.46 0.08,-0.22 0.66,-1.88 0.66,-1.88 z"
   id="path68643"
   inkscape:connector-curvature="0"
   style="fill:#28896d;stroke-width:0.2" />
<path
   d="m 37.337156,90.862987 c -0.18,0.3 -1.02,0.88 -1.26,1.06 -0.36,0.24 -0.7,0.98 0.22,1.14 0.92,0.16 1.58,-0.6 2.06,-0.82 0.48,-0.22 0.98,-0.66 1.34,-0.72 0.36,-0.04 -0.14,-1.12 -0.14,-1.12 z"
   id="path68645"
   inkscape:connector-curvature="0"
   style="fill:#262626;stroke-width:0.2" />
<path
   d="m 37.357156,90.762987 c -0.04,0.28 -1.44,1.18 -1.44,1.5 0,0.32 0.6,0.52 1.12,0.38 0.52,-0.14 1.14,-0.72 1.56,-0.92 0.4,-0.22 0.84,-0.24 0.76,-0.66 -0.08,-0.38 -2,-0.3 -2,-0.3 z"
   id="path68647"
   inkscape:connector-curvature="0"
   style="fill:#656565;stroke-width:0.2" />
<path
   d="m 39.177156,91.702987 c -0.54,0.5 -1.62,1.22 -1.68,1.56 -0.08,0.44 0.34,0.76 1.2,0.66 0.84,-0.12 1.2,-0.68 1.66,-0.94 0.46,-0.24 0.72,-0.38 0.72,-0.6 0,-0.24 -1.9,-0.68 -1.9,-0.68 z"
   id="path68649"
   inkscape:connector-curvature="0"
   style="fill:#262626;stroke-width:0.2" />
<path
   d="m 39.297156,91.602987 c 0,0 -0.46,0.4 -1.32,1.18 -0.18,0.16 -0.74,0.58 0.2,0.74 1.06,0.18 1.6,-0.62 2,-0.86 0.4,-0.24 0.74,-0.28 0.74,-0.6 -0.02,-0.32 -1.62,-0.46 -1.62,-0.46 z"
   id="path68651"
   inkscape:connector-curvature="0"
   style="fill:#656565;stroke-width:0.2" />
<path
   d="m 36.177156,79.062987 c -0.02,0.44 -0.28,2.76 -0.2,3.96 0.08,1.2 0.5,2.9 0.6,4.12 0.1,1.22 0.16,4.14 0.16,4.32 0,0.18 0.64,0.34 1.3,0.34 0.66,0 1.44,-0.48 1.44,-0.48 l -0.82,-11.14 z"
   id="path68653"
   inkscape:connector-curvature="0"
   style="fill:#06547a;stroke-width:0.2" />
<path
   d="m 36.177156,79.062987 c -0.02,0.44 -0.28,2.76 -0.2,3.96 0.08,1.2 0.5,2.9 0.6,4.12 0.1,1.22 0.16,4.14 0.16,4.32 0,0.18 0.64,0.34 1.3,0.34 0.66,0 1.44,-0.48 1.44,-0.48 l -0.82,-11.14 z"
   id="path68655"
   inkscape:connector-curvature="0"
   style="opacity:0.2;stroke-width:0.2" />
<path
   d="m 37.177156,79.782987 c -0.02,0.5 0.08,1.74 0.26,1.98 0.2,0.24 0.34,0.66 0.42,1.56 0.08,0.9 0.48,3.06 0.58,3.82 0.1,0.78 0.3,2.52 0.42,4.08 0.06,0.76 -0.44,0.92 0.76,1.26 1.2,0.34 1.78,0.02 2,-0.2 0.22,-0.2 0.08,-0.72 0.06,-1.5 -0.02,-0.8 -0.4,-3.7 -0.6,-4.5 -0.22,-0.78 -0.08,-2.74 0.12,-4.02 0.2,-1.28 -0.54,-2.92 -0.54,-2.92 z"
   id="path68657"
   inkscape:connector-curvature="0"
   style="fill:#06547a;stroke-width:0.2" />
<path
   d="m 41.557156,81.562987 c -0.14,0.54 -0.32,0.96 -0.74,1.44 -0.36,0.4 -0.82,0.56 -1.14,0.56 -0.32,0 -0.46,-0.18 -0.38,-0.3 0.08,-0.12 0.32,-0.2 0.44,-0.52 0.12,-0.32 0.18,-0.56 0.18,-0.56 0,0 -0.12,-0.06 -0.22,0.06 -0.1,0.12 -0.16,0.42 -0.34,0.4 -0.18,-0.02 -0.14,-0.3 -0.02,-0.52 0.12,-0.2 0.14,-0.42 0.38,-0.54 0.24,-0.12 0.92,-0.42 0.96,-0.5 z"
   id="path68659"
   inkscape:connector-curvature="0"
   style="fill:#28896d;stroke-width:0.2" />
<path
   d="m 36.437156,78.962987 -1.28,-0.24 c 0,0 0.18,-2.06 0.32,-2.92 0.1,-0.68 0.24,-4.22 0.44,-4.56 0.2,-0.34 0.52,7.72 0.52,7.72 z"
   id="path68661"
   inkscape:connector-curvature="0"
   style="fill:#cc291f;stroke-width:0.2" />
<path
   d="m 36.437156,78.962987 -1.28,-0.24 c 0,0 0.18,-2.06 0.32,-2.92 0.1,-0.68 0.24,-4.22 0.44,-4.56 0.2,-0.34 0.52,7.72 0.52,7.72 z"
   id="path68663"
   inkscape:connector-curvature="0"
   style="opacity:0.2;stroke-width:0.2" />
<path
   d="m 37.477156,70.482987 c -0.42,0.08 -1.46,0.34 -1.58,0.74 -0.12,0.4 0.16,4.5 0.16,5.78 0,1.28 -0.16,1.92 -0.14,2 0.04,0.08 0.08,1.24 1.94,1.42 1.86,0.18 3.02,-0.72 3.02,-0.72 v -3.12 c 0,0 -0.04,-1.18 0.24,-2.2 0.1,-0.34 1.18,-0.6 0.82,-1.36 -0.36,-0.76 -1.72,-1.86 -1.72,-1.86 0,0 -1.24,1.04 -2.14,0.94 -1.08,-0.14 -0.6,-1.62 -0.6,-1.62 z"
   id="path68665"
   inkscape:connector-curvature="0"
   style="fill:#cc291f;stroke-width:0.2" />
<path
   d="m 40.577156,80.982987 c 0.04,-0.1 0.24,-1.44 0.32,-2.04 0.08,-0.58 0.08,-0.92 0.1,-1.26 0.02,-0.34 -0.28,-0.9 -0.5,-2.36 -0.22,-1.46 0.22,-2.24 0.78,-2.38 0.48,-0.12 0.86,0.08 1.08,0.96 0.22,0.88 0.28,3.5 0.22,3.92 -0.06,0.38 -0.66,2.9 -0.86,3.82 z"
   id="path68667"
   inkscape:connector-curvature="0"
   style="fill:#cc291f;stroke-width:0.2" />
<path
   d="m 39.497156,70.082987 c 0.24,-0.2 1.54,-0.06 1.68,1.1 0.14,1.16 -0.5,0.42 -1.04,1.12 -0.56,0.72 -1.96,1.1 -2.62,0.78 -0.66,-0.32 -1.18,-0.9 -0.8,-2.12 0.38,-1.22 2.78,-0.88 2.78,-0.88 z"
   id="path68669"
   inkscape:connector-curvature="0"
   style="fill:#28896d;stroke-width:0.2" />
<path
   d="m 37.697156,72.322987 c 0,0 -0.62,1.28 -0.22,4.5 0.2,1.62 0.64,3.1 0.64,3.1 l 1.46,-0.74 c 0,0 -0.68,-2.98 -0.82,-4.1 -0.14,-1.12 -0.08,-2.8 -0.08,-2.8 z"
   id="path68671"
   inkscape:connector-curvature="0"
   style="fill:#28896d;stroke-width:0.2" />
<path
   d="m 37.217156,72.202987 c 0,0 -0.46,0.36 -0.9,1.3 -0.5,1.02 -0.86,2.74 -0.86,2.74 l 1.32,1.22 c 0,0 0.1,-2 0.52,-3.2 0.36,-0.98 0.68,-1.62 0.68,-1.62 z"
   id="path68673"
   inkscape:connector-curvature="0"
   style="fill:#28896d;stroke-width:0.2" />
<path
   d="m 39.057156,70.902987 c 0.3,-0.18 0.52,-0.4 0.7,-0.6 -0.02,-0.26 -0.02,-0.64 0,-0.96 l -0.56,-0.2 -1.44,1.26 c -0.06,0.14 -0.14,0.24 -0.24,0.34 -0.14,0.14 -0.06,0.36 0.12,0.4 0.42,0.06 0.94,0.06 1.42,-0.24 z"
   id="path68675"
   inkscape:connector-curvature="0"
   style="fill:#fbd7c7;stroke-width:0.2" />
<path
   d="m 36.757156,66.842987 c -0.32,0.52 -0.3,2.14 -0.1,2.8 0.2,0.66 0.18,1.22 0.84,1.18 0.66,-0.04 1.86,-0.72 2.2,-0.98 0.32,-0.26 1.18,-0.82 1.14,-2.5 -0.06,-1.7 -2.86,-2.46 -4.08,-0.5 z"
   id="path68677"
   inkscape:connector-curvature="0"
   style="fill:#fbd7c7;stroke-width:0.2" />
<path
   d="m 39.497156,69.282987 c 0,0 0.54,-0.94 0.88,-0.66 0.26,0.2 -0.1,0.66 -0.1,0.66 0,0 1.2,-1.18 0.54,-2.7 -0.66,-1.54 -3.02,-1.4 -3.92,-0.34 -0.9,1.1 -0.66,1.92 0.1,2.1 0.88,0.2 1.86,-0.24 2.18,0.08 0.3,0.3 0.32,0.86 0.32,0.86 z"
   id="path68679"
   inkscape:connector-curvature="0"
   style="fill:#825012;stroke-width:0.2" />
<path
   d="m 36.197156,67.502987 c 0.34,-1.78 2.06,-3.14 5,-2.06 0.7,0.26 0.8,1.16 0.22,1.62 -0.48,0.38 -0.4,0.92 -0.44,1.64 -0.08,1.16 -5.02,-0.06 -4.78,-1.2 z"
   id="path68681"
   inkscape:connector-curvature="0"
   style="fill:#28896d;stroke-width:0.2" />
</svg>