<?xml version="1.0" encoding="UTF-8" standalone="no"?>
<!-- Generator: Adobe Illustrator 18.1.0, SVG Export Plug-In . SVG Version: 6.00 Build 0)  -->

<svg
   xmlns:dc="http://purl.org/dc/elements/1.1/"
   xmlns:cc="http://creativecommons.org/ns#"
   xmlns:rdf="http://www.w3.org/1999/02/22-rdf-syntax-ns#"
   xmlns:svg="http://www.w3.org/2000/svg"
   xmlns="http://www.w3.org/2000/svg"
   xmlns:sodipodi="http://sodipodi.sourceforge.net/DTD/sodipodi-0.dtd"
   xmlns:inkscape="http://www.inkscape.org/namespaces/inkscape"
   version="1.1"
   id="Layer_1"
   x="0px"
   y="0px"
   viewBox="0 0 160 320"
   enable-background="new 0 0 160 320"
   xml:space="preserve"
   sodipodi:docname="winter-people-03.svg"
   inkscape:export-filename="C:\ML\Projekte\Adventskalender\assets\images\Item11.png"
   inkscape:export-xdpi="96"
   inkscape:export-ydpi="96"
   inkscape:version="0.92.4 (5da689c313, 2019-01-14)"><metadata
   id="metadata67957"><rdf:RDF><cc:Work
       rdf:about=""><dc:format>image/svg+xml</dc:format><dc:type
         rdf:resource="http://purl.org/dc/dcmitype/StillImage" /><dc:title></dc:title></cc:Work></rdf:RDF></metadata><defs
   id="defs67955" /><sodipodi:namedview
   pagecolor="#ffffff"
   bordercolor="#666666"
   borderopacity="1"
   objecttolerance="10"
   gridtolerance="10"
   guidetolerance="10"
   inkscape:pageopacity="0"
   inkscape:pageshadow="2"
   inkscape:window-width="828"
   inkscape:window-height="480"
   id="namedview67953"
   showgrid="false"
   inkscape:zoom="0.7375"
   inkscape:cx="80"
   inkscape:cy="160"
   inkscape:window-x="0"
   inkscape:window-y="0"
   inkscape:window-maximized="0"
   inkscape:current-layer="Layer_1" />
<g
   id="g67830"
   transform="matrix(0.2,0,0,0.2,66.577076,141.35863)">
	<path
   d="m 41.8,91.2 12.7,-7.7 -3.1,-8.7 -6.3,-7.4 -9.6,-1.3 c -0.1,4 -1,10.7 -6.9,13.6 -1.2,0.6 13.2,11.5 13.2,11.5 z"
   id="path67792"
   inkscape:connector-curvature="0"
   style="fill:#fbd7c7" />
	<path
   d="m 27.9,255 c -7,-2.4 -25,-17.2 -4.2,-23 18.4,-5.2 23.6,-17.9 45.3,-5.8 10.7,6 7.3,13.9 -10.6,18.2 -12.1,2.9 -14.3,16.3 -30.5,10.6 z"
   id="path67794"
   inkscape:connector-curvature="0"
   style="opacity:0.2" />
	<path
   d="m 39.2,225.7 c -0.3,2.3 1.2,4.4 4.9,5.7 4.1,1.5 9.1,4.3 11.5,5.7 4,2.3 8.7,2.3 11.9,1 2.4,-1 2.7,-2.5 2.3,-5 -0.4,-2.6 -3,-2.7 -7.2,-4.3 -3.8,-1.5 -10.1,-7.2 -10.1,-7.2 z"
   id="path67796"
   inkscape:connector-curvature="0"
   style="fill:#262626" />
	<path
   d="m 40.6,226.7 c 3,1 6.4,2 9.3,3.7 3,1.8 10.3,6.3 14.7,5.4 3.2,-0.7 4.6,-1.9 4.4,-3.4 -0.2,-1.5 -4.1,-2.4 -7.1,-3.7 -2,-0.8 -9,-6.8 -9,-6.8 z"
   id="path67798"
   inkscape:connector-curvature="0"
   style="fill:#656565" />
	<path
   d="m 20.1,241 c 2.5,4.3 3.8,10 8.3,12.5 4.5,2.5 8.6,1.9 12.3,0.3 2.2,-1 1.4,-3.9 0.9,-5 -0.5,-1.1 -2.4,-2.3 -4.8,-4.8 -3,-3.1 -4.5,-7.7 -4.5,-7.7 z"
   id="path67800"
   inkscape:connector-curvature="0"
   style="fill:#262626" />
	<path
   d="m 22.4,240.5 c 0,0 2.6,7.9 6.4,9.9 4,2.1 6.6,1.6 10,0.6 3.4,-1 3.2,-1.8 0.7,-3.9 -2.5,-2.1 -5.7,-5.9 -5.8,-7.3 -0.1,-1.4 -11.3,0.7 -11.3,0.7 z"
   id="path67802"
   inkscape:connector-curvature="0"
   style="fill:#656565" />
	<path
   d="m 59.5,135.3 c 1.8,3.9 4.3,11.7 4.1,24.2 -0.2,12.5 -0.1,17.1 0,20.3 0.1,3.3 -0.8,5.5 -2.7,11.2 -1.6,5.1 -6.6,23.6 -6.3,27.4 0.1,0.9 2,1.6 2.4,3.6 0.4,2 0.5,2.7 -1.9,4 -2.4,1.3 -9.4,5.2 -14.4,3.2 -2.1,-0.8 -3,-1 -2.8,-5.4 0.2,-4.4 0.6,-12.9 1.7,-21.5 1.1,-8.6 4.6,-15.5 4.1,-21.2 -0.5,-5.7 -9,-21.5 -8.2,-29.6 0.8,-8.1 1,-10.3 1,-10.3 z"
   id="path67804"
   inkscape:connector-curvature="0"
   style="fill:#e5e5e5" />
	<path
   d="m 59.5,135.3 c 1.8,3.9 4.3,11.7 4.1,24.2 -0.2,12.5 -0.1,17.1 0,20.3 0.1,3.3 -0.8,5.5 -2.7,11.2 -1.6,5.1 -6.6,23.6 -6.3,27.4 0.1,0.9 2,1.6 2.4,3.6 0.4,2 0.5,2.7 -1.9,4 -2.4,1.3 -9.4,5.2 -14.4,3.2 -2.1,-0.8 -3,-1 -2.8,-5.4 0.2,-4.4 0.6,-12.9 1.7,-21.5 1.1,-8.6 4.6,-15.5 4.1,-21.2 -0.5,-5.7 -9,-21.5 -8.2,-29.6 0.8,-8.1 1,-10.3 1,-10.3 z"
   id="path67806"
   inkscape:connector-curvature="0"
   style="opacity:0.2" />
	<path
   d="m 49.5,144.7 c 0,0 2,10.2 0.8,13.5 -1.2,3.3 -3.8,3.5 -4,6.7 -0.2,3.2 -0.6,12.1 -1.8,17.3 -1.2,5.2 -3.5,16.2 -5,20.2 -1.5,4 -2.7,14.6 -3.9,20.3 -0.9,4.7 -2.1,8.5 -1.6,12 0.5,3.5 1.1,5.2 0.7,5.5 -0.4,0.3 -4.4,0.4 -7.3,1.6 -2.8,1.2 -6.3,1 -8.1,-0.5 -1.9,-1.5 -2.7,-4.5 -1.7,-6.9 1.1,-2.4 1.3,-3.5 0.2,-7.4 -1.1,-3.8 0.7,-5.2 1.3,-7.5 0.6,-2.3 -0.4,-5.5 0.7,-10.1 0.7,-3.4 4,-10 3.9,-15.6 -0.1,-5.6 -3.3,-27.2 -2.4,-36.3 1,-9.1 3.3,-14.2 3.3,-14.2 z"
   id="path67808"
   inkscape:connector-curvature="0"
   style="fill:#e5e5e5" />
	<path
   d="m 62.5,84.4 c 0,0 -3.9,23.1 -3.6,29.4 0.3,6.3 0.8,20.6 0.8,20.6 L 50,128.8 c 0,0 -1.5,-12.7 -1,-16.1 0.5,-3.4 5.5,-16.3 5.5,-16.3 z"
   id="path67810"
   inkscape:connector-curvature="0"
   style="fill:#2d3134" />
	<path
   d="m 48.9,74.5 c 0,0 7.9,0.4 11.5,4.3 3.6,3.9 2,6.5 1.2,8.4 -0.8,1.9 -0.3,3 -0.3,6.6 0,3.6 -1.4,9.9 -3.1,12.5 -1.7,2.6 -0.7,5 -0.6,7.9 0.1,2.9 1,5.9 1.2,10.5 0.2,4.6 2.8,13.5 3.1,14.7 0.3,1.2 -3.7,4.3 -12.2,7.3 -6.7,2.3 -24.2,1.7 -26.6,-2.1 -2.4,-3.8 1.2,-8.3 0.8,-13.3 -0.4,-5 -3.5,-20.7 -3.5,-20.7 0,0 -5.1,-11.8 -5.4,-14.2 -0.3,-2.4 -0.3,-8.9 2.7,-11.3 2.9,-2.4 12.1,-6.4 12.1,-6.4 0,0 6.6,11 14.8,8.9 9.4,-2.4 4.3,-13.1 4.3,-13.1 z"
   id="path67812"
   inkscape:connector-curvature="0"
   style="fill:#2d3134" />
	<path
   d="m 19.7,144.2 c -0.1,2.3 -0.1,8.8 0,10.6 0.1,1.8 1.8,1.7 2.6,2.5 0.8,0.8 2.6,0.7 2.9,1.7 0.3,1 1.8,1 2.5,1.6 0.7,0.6 2.2,1.2 2.9,0.7 0.7,-0.5 0.3,-1.8 -0.2,-2.6 -0.5,-0.8 -0.6,-5.3 -0.4,-6.2 0.2,-0.9 0.9,-1.2 0.9,-2.7 -0.1,-1.4 0.1,-2.7 -0.6,-3.5 -0.7,-0.8 -1.6,-0.7 -2.6,-2.1 l -1.6,-2.3 z"
   id="path67814"
   inkscape:connector-curvature="0"
   style="fill:#baa794" />
	<path
   d="m 35.8,69.5 c -1.5,-1.2 -9.3,-0.3 -10.2,6.7 -0.8,7 3,2.5 6.3,6.8 3.3,4.3 11.8,6.7 15.8,4.7 4,-2 7.2,-5.5 4.8,-12.8 -2.2,-7.4 -16.7,-5.4 -16.7,-5.4 z"
   id="path67816"
   inkscape:connector-curvature="0"
   style="fill:#baa794" />
	<path
   d="m 41.6,48.2 c -5.4,0.3 -8.4,3.5 -8.6,7.1 -0.2,3.5 0,6.2 0,6.2 0,0 -1,-0.4 -1.3,0.8 -0.3,1.3 0.7,4.6 2.5,6.2 1.8,1.6 2.7,4.7 4.8,6.9 2.1,2.2 6.7,5.4 9.9,5 C 52.1,80 54.6,68 54.3,64 54.1,60 54.3,47.5 41.6,48.2 Z"
   id="path67818"
   inkscape:connector-curvature="0"
   style="fill:#fbd7c7" />
	<path
   d="m 41.6,47.9 c -5.4,0.3 -8.4,3.6 -8.8,7.4 -0.3,2.8 -0.1,5.1 0.1,6.1 0.6,0.3 1.6,0.6 2.3,1.7 1,1.7 1,2.4 1,2.4 L 37.6,65 c 0,0 1.5,-7.5 3.7,-8.3 2.2,-0.8 4.1,1.9 7,1.3 2.9,-0.6 2.5,-2.9 3.7,-3 0.2,0 0.6,0.1 1,0.3 -1.4,-4 -4.5,-7.8 -11.4,-7.4 z"
   id="path67820"
   inkscape:connector-curvature="0"
   style="fill:#825012" />
	<path
   d="m 27.3,142.9 c -1,-1.4 -2.7,-5.9 -4.1,-12.4 -1.4,-6.5 -2.5,-10.9 -2.8,-11.3 -0.3,-0.5 1,-4.1 3.5,-9.1 2.1,-4.4 8.1,-18.6 2,-23.6 -1.3,-1.1 -7,-5.5 -10.8,1.8 -3.8,9.2 -7.4,30 -5.3,35.7 2,5.6 9,19 8.9,21.3 z"
   id="path67822"
   inkscape:connector-curvature="0"
   style="fill:#2d3134" />
	<path
   d="m 46.8,83.2 c 0,0 3.7,7.7 1.4,27.3 -1.2,9.8 -3.9,18.8 -3.9,18.8 l -8.9,-4.5 c 0,0 4.2,-18 4.9,-24.8 0.7,-6.8 0.5,-17 0.5,-17 z"
   id="path67824"
   inkscape:connector-curvature="0"
   style="fill:#baa794" />
	<path
   d="m 49.7,82.3 c 0,0 2.8,2.2 5.5,7.9 3,6.3 5.2,16.7 5.2,16.7 l -8,7.3 c 0,0 -0.6,-12.1 -3.2,-19.3 C 47,89 45,85.1 45,85.1 Z"
   id="path67826"
   inkscape:connector-curvature="0"
   style="fill:#baa794" />
	<path
   d="M 54.4,55.6 C 52.6,46.2 43.4,39 28,44.7 c -3.7,1.4 -4.3,6.1 -1.2,8.6 2.5,2 2.1,4.8 2.4,8.7 0.2,6.1 26.3,-0.4 25.2,-6.4 z"
   id="path67828"
   inkscape:connector-curvature="0"
   style="fill:#baa794" />
</g>
<g
   id="g67862"
   transform="matrix(0.2,0,0,0.2,66.577076,141.35863)">
	<path
   d="m 37.1,137.7 c 0,0 -4.5,15.8 -4.5,18.9 0,3.1 2.3,11.6 5.2,16.4 2.8,4.7 5.9,12 5.9,12 l 2.5,-4.4 c 0,0 -2.3,-11.9 -3.7,-16.1 -1.5,-4.1 -2.1,-4.7 -0.9,-8.4 1.3,-3.7 3.6,-9.7 3.6,-9.7 z"
   id="path67832"
   inkscape:connector-curvature="0"
   style="fill:#baa794" />
	<path
   d="m 37.1,137.7 c 0,0 -4.5,15.8 -4.5,18.9 0,3.1 2.3,11.6 5.2,16.4 2.8,4.7 5.9,12 5.9,12 l 2.5,-4.4 c 0,0 -2.3,-11.9 -3.7,-16.1 -1.5,-4.1 -2.1,-4.7 -0.9,-8.4 1.3,-3.7 3.6,-9.7 3.6,-9.7 z"
   id="path67834"
   inkscape:connector-curvature="0"
   style="opacity:0.15" />
	<path
   d="m 41.4,285.3 c -9.3,5.7 -10,12.5 2.1,18.9 13.2,7.1 20.9,5.5 31.1,-0.4 9,-5.2 6.9,-12.2 -8.2,-18.3 -12.2,-4.8 -18.4,-4.3 -25,-0.2 z"
   id="path67836"
   inkscape:connector-curvature="0"
   style="opacity:0.2" />
	<path
   d="m 43.2,174.2 c -2.4,3.2 -11,16.7 -8.4,32.4 2.6,15.7 4.4,22.4 3.6,26.1 -0.8,3.7 -1.5,10.2 -0.8,18.1 0.8,9.7 3.7,19.7 3.8,23 0.2,3.3 1.3,6.3 0.4,8.8 -0.9,2.5 -3.1,4.4 -0.9,6.1 1.8,1.4 1,-0.6 10.2,2.7 12.3,4.5 9.7,-1.8 3.6,-2.9 -2.2,-0.4 -4.1,-4.8 -4.8,-7.7 -0.3,-1.2 -1.2,-15.8 -0.4,-22.6 0.8,-6.8 0.9,-17.1 0.8,-20.1 -0.1,-3 2.4,-14.4 3.4,-20 1.4,-8.5 4,-38.5 4,-38.5 z"
   id="path67838"
   inkscape:connector-curvature="0"
   style="fill:#656565" />
	<path
   d="m 51.7,178.5 c 0,0 -5.4,12.9 -5.4,19.1 0,6.2 4.1,8.5 4.9,10.5 0.8,2 -0.5,8.6 1.4,16.3 1.9,7.7 4.4,12.3 3,18 -2.2,9.2 -2.4,16.4 -1.3,27.1 1.1,10.7 0.2,16.8 -0.1,18.5 -0.4,2 -3.5,3 -1.9,5.4 2.2,3.2 8.4,3.6 11.1,4.9 3.2,1.5 7.2,2 8.2,0.4 1,-1.5 0.2,-3.9 -3.4,-3.8 -3.1,0.1 -5.3,-5 -6.2,-7.3 -0.9,-2.2 1,-9.6 2.6,-21.2 1.5,-11.6 3.1,-24 3.8,-28.8 0.8,-4.8 2.3,-9.2 2.9,-30.8 0.6,-21.6 -1.6,-27.6 -1.6,-27.6 z"
   id="path67840"
   inkscape:connector-curvature="0"
   style="fill:#656565" />
	<path
   d="m 78.3,227.1 c -2,-9.8 -7.3,-45.7 -7.3,-45.7 0,0 -1.2,-20.7 -0.7,-21.8 0.5,-1.1 5,-3 4.6,-7.5 -0.3,-2.9 -1.9,-4.3 -3.7,-6.1 -1.3,-1.4 -3,-3.6 -4.4,-4.9 -1.7,-1.6 -6,-3.6 -10.1,-6.3 -4.3,-2.7 -12.3,-1.6 -12.3,-1.6 -2.5,1.1 -7.9,5.6 -6.9,9.3 1,3.7 2,22.6 0.9,32.3 -1,8.9 -4.8,17.5 -6.4,27.1 -1.9,11 -3.5,24.8 -0.8,26.4 2.7,1.6 11.1,-0.3 16.4,5.2 5.3,5.5 10.4,2.4 18.7,0.1 8.3,-2.3 12.5,-4.3 12,-6.5 z"
   id="path67842"
   inkscape:connector-curvature="0"
   style="fill:#baa794" />
	<path
   d="m 58.5,103.4 c 3.4,1.2 4.6,4.1 5.2,10.1 0.6,6 -0.2,9.8 -0.6,10.9 -0.4,1.1 -4.2,2.3 -5.1,3.8 -0.9,1.5 -1.6,4.7 -1.1,5.4 1,1.3 1.7,1.2 1.7,1.2 0,0 -8.3,2 -11.3,0.7 -3,-1.3 -2.9,-3 -2.3,-3.7 0.6,-0.7 1.7,-3.5 1.1,-5 -0.6,-1.5 -7.5,-7.7 -5.3,-15 2.6,-8.7 10.9,-10.8 17.7,-8.4 z"
   id="path67844"
   inkscape:connector-curvature="0"
   style="fill:#fbd7c7" />
	<path
   d="m 69.4,205.8 c -1.1,-4.1 -1.9,-4.8 -3.6,-7.6 -3.8,-6.2 -6,-12.9 -7.1,-19.8 -1.1,-6.9 -3.7,-23.5 -2.3,-30.2 1.1,-5.1 7.9,-8.2 11.7,-3.1 0,0 2.1,2.4 1.1,8.8 -1,6.4 -0.8,18.8 1,25.2 1.8,6.3 6.1,32.6 1.1,36.1 -3.5,0.1 -0.1,-2.9 -1.9,-9.4 z"
   id="path67846"
   inkscape:connector-curvature="0"
   style="opacity:0.15" />
	<path
   d="m 76.2,199 c 1.1,2.6 2.3,3.2 3,4.2 0.5,0.7 1.4,4.8 0.9,6.3 -0.5,1.4 -2.8,5.1 -4.8,5.7 -2,0.6 -4.3,0.6 -4.6,-0.3 -0.3,-0.9 1.7,-1.2 2,-2.6 0.3,-1.3 0.5,-6.1 0.5,-7.3 0,-0.7 -0.4,-2.1 -1.4,-4.4 z"
   id="path67848"
   inkscape:connector-curvature="0"
   style="fill:#ffffff" />
	<path
   d="m 29.8,223.4 c -0.8,0.1 -1.8,5 -0.3,5.8 1.5,0.8 10.6,2 13,3.3 2.6,1.5 7.6,4.3 11.6,4.4 6.6,0.2 18.5,-3.5 21.5,-5.3 3,-1.8 4.4,-2.2 3.9,-4.5 -0.5,-2.3 -0.6,-3 -2.4,-2.8 -1.8,0.2 -6.5,3.5 -13.8,5.2 -7.3,1.7 -10,1.3 -12.3,0.3 -2.5,-1.1 -6.5,-4 -10.9,-4.7 -4.4,-0.7 -9.5,-1.8 -10.3,-1.7 z"
   id="path67850"
   inkscape:connector-curvature="0"
   style="fill:#ffffff" />
	<path
   d="m 61.9,289.9 c -1.3,-0.7 -4,-0.9 -5.1,-1.5 -1.1,-0.6 -2.6,-1.4 -3.4,-2.3 -2.8,-2.8 -2.8,-8.3 -3.1,-11.9 -0.3,-3.6 1.2,-26.1 0.6,-27.1 -1,0.3 -3.1,1 -5.8,1 -2.7,0 -7.3,-0.7 -8.4,-1 -0.6,1.3 2.4,18.2 3.2,24.6 0.7,6 0.6,11.4 0.3,12.8 -0.4,1.3 -1.1,2.7 -1,3.9 0.1,2.3 1.9,5.7 1.9,7 0,1.3 0,3.2 0,3.2 l 1.7,1 1.6,-0.8 c 0,0 -0.7,-5.3 0.5,-6.1 1.2,-0.8 4.8,1.9 7.2,2.5 2.4,0.6 8.3,-0.1 10.4,-1 2.1,-0.9 1.3,-3.2 -0.6,-4.3 z"
   id="path67852"
   inkscape:connector-curvature="0"
   style="fill:#2d3134" />
	<path
   d="m 74.6,297 c -0.9,-2.2 -2.8,-2.7 -5.4,-2.9 -1.4,-0.1 -3.2,-0.5 -4.6,-1.8 -1.4,-1.4 -1.7,-7.6 -1.7,-9.3 0,-3.9 4.9,-30.8 4.4,-31.8 -1.1,0.3 -4.8,0.6 -7.4,0.4 -3,-0.2 -4.8,-1.2 -6.1,-1.1 -1.3,1 -2,14.8 -1.7,22.3 0.1,2.3 1.2,14.7 0.1,17.6 -0.1,0.2 -1.2,2.3 -1.2,3.5 0,2.6 2.1,5.4 2.4,7.4 0.3,2 0.2,3.5 0.2,3.5 l 1.9,0.9 1.9,-0.8 c 0,0 -1.6,-5.7 0.1,-6.1 1.7,-0.4 6.8,3.6 9.9,3.6 4.5,0 8,-3.5 7.2,-5.4 z"
   id="path67854"
   inkscape:connector-curvature="0"
   style="fill:#2d3134" />
	<path
   d="m 71,202 c -0.8,-1.7 -1.9,-3.9 -3.6,-6.6 -3.8,-6.2 -7.3,-12.6 -8.3,-19.5 -1.1,-6.9 -3.7,-23.5 -2.3,-30.2 1.1,-5.1 7.9,-8.2 11.7,-3.1 0,0 2.1,2.4 1.1,8.8 -1,6.4 -0.8,18.8 1,25.2 1.8,6.3 5.4,19.7 6.4,22.3 z"
   id="path67856"
   inkscape:connector-curvature="0"
   style="fill:#baa794" />
	<path
   d="m 70.7,141.2 c -1.2,-3.7 -6.5,-7.8 -7.3,-8.3 -0.8,-0.5 -12,-0.2 -12,-0.2 l 2.5,7.5 c 0,0 7,0.1 12.3,2.8 5.3,2.6 6.2,3.4 4.5,-1.8 z"
   id="path67858"
   inkscape:connector-curvature="0"
   style="fill:#ffffff" />
	<path
   d="m 49.9,101.4 c -8.2,1.6 -11.5,8.5 -10,16.1 1.2,6.1 1.3,7.6 0.3,10 -3.4,8 -5.7,14.8 -2.2,18.9 5.4,6.4 17.6,3.3 22.3,-3.6 3.1,-4.5 5.6,-10.9 3.8,-15.9 -2.7,-7.5 -0.6,-9.5 0.1,-14.8 0.8,-5.5 -6,-12.4 -14.3,-10.7 z"
   id="path67860"
   inkscape:connector-curvature="0"
   style="fill:#825012" />
</g>
<g
   id="g67914"
   transform="matrix(0.2,0,0,0.2,66.577076,141.35863)">
	<path
   d="m 109.6,251.4 c 5.5,-0.2 6.9,-2.6 8.2,-7.3 1.4,-4.7 -0.4,-5.7 2.9,-8.1 3.3,-2.4 5.9,-4.8 5,-8.4 -1.7,-6.9 -9,-15.1 -15.9,-15.1 -6.9,0 -19.8,10.2 -20.2,11.2 -0.4,1 -3.4,2.3 -0.4,6.4 4.8,6.5 8.4,21.7 20.4,21.3 z"
   id="path67864"
   inkscape:connector-curvature="0"
   style="opacity:0.2" />
	<path
   d="m 94.5,218.5 c 0,0 -2.4,2.3 -4.3,3.7 -1.8,1.4 -2,4.1 -1.9,5 0.1,1 2.1,3.3 5.5,2.7 3.4,-0.6 6,-4.3 8.3,-6.4 2.3,-2.2 2.3,-2 4,-2.3 1.7,-0.3 0,-4.2 -2.3,-4.3 -2.3,-0.1 -6.8,-2.3 -6.8,-2.3 0,0 -1.4,2.7 -2.5,3.9 z"
   id="path67866"
   inkscape:connector-curvature="0"
   style="fill:#656565" />
	<path
   d="m 102.2,223.6 c 2.3,-2.2 2.3,-2 4,-2.3 0.2,0 0.4,-0.1 0.5,-0.3 l -6.6,-1.3 c 0,0 0.3,2.6 -1.8,4.9 -2,2.3 -3.2,3.6 -5.7,3.6 -1.8,0 -3.1,-0.4 -4.1,-1.6 0,0.3 0,0.5 0,0.7 0.1,1 2.1,3.3 5.5,2.7 3.3,-0.6 5.9,-4.3 8.2,-6.4 z"
   id="path67868"
   inkscape:connector-curvature="0"
   style="opacity:0.4" />
	<path
   d="m 92.2,133.5 c 0,0 -3.4,9.4 -3.1,20.4 0.3,11.5 1.6,18.7 2.4,21.7 1.1,4.5 3.4,5.9 3.9,15.7 0.5,9.8 0.6,19.8 -0.2,22.7 -0.8,2.9 -2.7,4 -2.4,4.7 0.3,0.7 3.8,-0.4 5.5,1.2 1.7,1.6 4.5,2.7 5.9,2.7 1.4,0.1 2,0 2,0 l -3.7,-78.2 z"
   id="path67870"
   inkscape:connector-curvature="0"
   style="fill:#2d3134" />
	<path
   d="m 92.2,133.5 c 0,0 -3.4,9.4 -3.1,20.4 0.3,11.5 1.6,18.7 2.4,21.7 1.1,4.5 3.4,5.9 3.9,15.7 0.5,9.8 0.6,19.8 -0.2,22.7 -0.8,2.9 -2.7,4 -2.4,4.7 0.3,0.7 3.8,-0.4 5.5,1.2 1.7,1.6 4.5,2.7 5.9,2.7 1.4,0.1 2,0 2,0 l -3.7,-78.2 z"
   id="path67872"
   inkscape:connector-curvature="0"
   style="opacity:0.2" />
	<path
   d="m 108.5,239.5 c 0,0 -1.7,4.5 -1.7,5.4 0,0.9 -0.2,3.9 0.4,4.6 0.5,0.6 3.2,1.5 5.3,1.2 2.2,-0.3 4.3,-2.4 4.5,-3.2 0.2,-0.9 -0.1,-6.3 -0.2,-7.1 -0.1,-0.8 -0.5,-2.6 -0.5,-2.6 z"
   id="path67874"
   inkscape:connector-curvature="0"
   style="fill:#656565" />
	<path
   d="m 116.3,237.8 -1.4,0.3 c 0.4,1.9 0.9,6.3 0.3,8.1 -0.8,2.1 -3,2.7 -4.9,2.7 -1.1,0 -3,-0.6 -3.5,-2 0,1.1 0.1,2.3 0.4,2.7 0.5,0.6 3.2,1.5 5.3,1.2 2.2,-0.3 4.3,-2.4 4.5,-3.2 0.2,-0.9 -0.1,-6.3 -0.2,-7.1 0,-0.9 -0.5,-2.7 -0.5,-2.7 z"
   id="path67876"
   inkscape:connector-curvature="0"
   style="opacity:0.4" />
	<path
   d="m 100.5,145.3 c 0,0 -3,7.1 -3.5,17.3 -0.5,10.2 0.7,17 0.9,19.3 0.1,2.3 0.5,9.4 1.8,12.1 1.3,2.7 3.7,7.9 4.6,14.4 0.9,6.5 1.3,18.4 1.4,21.4 0.1,4 -0.5,7.3 0.2,9.2 0.7,1.9 3,-0.4 5.5,0.3 2.5,0.7 6.4,1.4 7.1,1 0.7,-0.4 -0.5,-7.5 -0.4,-11.6 0.1,-4.1 -0.2,-19.8 -1.1,-26.4 -0.8,-6.6 -5.6,-12.8 -4.8,-19.5 0.8,-6.7 5.4,-20.8 6.5,-25 1.1,-4.1 1.4,-10.2 0.8,-15.7 -0.4,-5.6 -19,3.2 -19,3.2 z"
   id="path67878"
   inkscape:connector-curvature="0"
   style="fill:#2d3134" />
	<path
   d="m 92.2,128.4 c 0,0 -4.3,3.1 -5.9,5.1 -1.6,2 -2.4,2.9 -2.4,4.7 0,1.8 0.8,2.9 1.6,2.7 0.8,-0.1 2.6,0 3.1,-0.4 0.6,-0.4 3.9,-6.3 3.9,-6.3 z"
   id="path67880"
   inkscape:connector-curvature="0"
   style="fill:#baa794" />
	<path
   d="m 90.8,126.6 c -1,0.4 -2.3,2.7 -0.8,4.2 1.5,1.5 6.8,4.7 8.5,4 1.7,-0.7 2.9,-3.6 0.7,-5 -2.2,-1.4 -5.8,-4.4 -8.4,-3.2 z"
   id="path67882"
   inkscape:connector-curvature="0"
   style="fill:#ffffff" />
	<path
   d="m 111.5,85.3 c -4.6,-0.9 -13.3,-1.6 -16.5,2.4 -3.2,4 -2.4,5.1 -2.4,7.1 0,2 -1.5,5.3 -2.4,7.5 -0.9,2.2 -2.3,5.9 -0.8,8.2 1.5,2.4 4.3,3.5 4.3,3.5 0,0 -0.8,9.3 -1.7,12.9 -0.9,3.5 -3.5,12.3 -3.9,14.3 -0.4,2 3.1,5.3 7,6.9 3.9,1.6 14,2 19.8,-1.1 6.5,-3.5 8.2,-5.8 8.2,-5.8 0,0 -5.5,-8.6 -5.2,-11.5 0.3,-2.9 5.2,-17.6 5.2,-17.6 l 3.6,-11.8 1.2,-0.8 c 0,0 0.3,-2.6 -1.2,-5.1 -1.5,-2.6 -4,-5.2 -7.5,-6.3 -3.5,-1.1 -3.7,-2 -7.7,-2.8 z"
   id="path67884"
   inkscape:connector-curvature="0"
   style="fill:#e5e5e5" />
	<path
   d="m 116,141.7 c -5.9,3.2 -16.2,2.7 -20.2,1.1 -3,-1.2 -5.8,-3.5 -6.8,-5.4 -0.5,1.8 -0.9,3.3 -1,4 -0.4,2 3.2,5.5 7.2,7.1 4,1.6 14.3,2.1 20.2,-1.1 6.6,-3.6 8.3,-6 8.3,-6 0,0 -0.9,-1.4 -1.9,-3.3 -1.4,0.9 -3.2,2.2 -5.8,3.6 z"
   id="path67886"
   inkscape:connector-curvature="0"
   style="fill:#ffffff" />
	<path
   d="m 100.9,87.3 c 0,0 -4.1,2.6 0.5,7.4 4.6,4.8 15,-0.7 16.6,-4.4 1.6,-3.7 -11.7,-8.3 -17.1,-3 z"
   id="path67888"
   inkscape:connector-curvature="0"
   style="fill:#ffffff" />
	<path
   d="m 105.7,83 c 0,0 -7.8,4.8 -1.2,6.4 5.7,1.4 11.6,2 13.3,-0.9 1.7,-2.9 -6.7,-9.7 -12.1,-5.5 z"
   id="path67890"
   inkscape:connector-curvature="0"
   style="fill:#fbd7c7" />
	<path
   d="m 89,106.9 c 0,0 -0.1,4.3 11,6.5 16.5,3.3 19.8,-2.9 19.8,-2.9 0,0 -3.1,8.6 -19.2,5.5 -14,-2.6 -11.6,-9.1 -11.6,-9.1 z"
   id="path67892"
   inkscape:connector-curvature="0"
   style="opacity:0.2;fill:#262626" />
	<path
   d="m 109.7,59.1 c -8.1,-0.5 -12,3 -13.5,8.6 -1.5,5.4 4,15.3 -1.8,17.9 0.1,2.2 5.1,4.5 7.3,2.1 2.2,-2.3 2.9,-2.4 2.9,-2.4 z"
   id="path67894"
   inkscape:connector-curvature="0"
   style="fill:#825012" />
	<path
   d="m 99,69.2 c -1.5,3.1 -1.9,15.6 0.6,17.6 2.5,2 7.6,-1.3 12.5,-3.5 4.9,-2.3 5.5,-19 -1.9,-19.2 -7.3,-0.2 -9.6,1.8 -11.2,5.1 z"
   id="path67896"
   inkscape:connector-curvature="0"
   style="fill:#fbd7c7" />
	<path
   d="m 108.2,59.3 c -3.3,0.8 -7.1,5.2 -6.4,10 1,6.2 13.2,18.3 4.6,22.2 1.4,4.6 9.5,4.3 14,2 4.3,-2.3 4.7,-4.5 4.6,-5.3 -0.1,-0.8 -3.8,-4.9 -3.8,-10.9 -0.1,-6 -0.5,-21.1 -13,-18 z"
   id="path67898"
   inkscape:connector-curvature="0"
   style="fill:#825012" />
	<path
   d="m 118.5,144.1 c -1.4,3.2 -1.4,6.1 -2,7.1 -1.6,2.8 -9.7,2.1 -10.5,1.9 -0.8,-0.2 -1.2,-1 -0.7,-1.3 0.5,-0.3 1.6,-0.2 2.4,-0.9 0.8,-0.7 2.1,-2.8 2.1,-2.8 0,0 -0.3,-0.2 -0.2,-1.4 0,-1.2 -0.1,-3.1 1,-3.7 1.2,-0.6 2.6,-0.6 3.4,-1.6 z"
   id="path67900"
   inkscape:connector-curvature="0"
   style="fill:#baa794" />
	<path
   d="m 128.3,97.8 c 1.2,4.4 2.9,21.3 3.1,22.9 0.2,1.6 1,2.3 -0.3,5.1 -1.3,2.8 -11.4,18.4 -11.4,18.4 l -6.3,-3.5 c 0,0 5.6,-14.4 6.4,-15.6 0.8,-1.2 1.9,-3.1 1.9,-3.1 0,0 -3.5,-9.4 -4.3,-12 -0.8,-2.6 -0.6,-8.9 -0.6,-8.9 0,0 10.3,-7.8 11.5,-3.3 z"
   id="path67902"
   inkscape:connector-curvature="0"
   style="fill:#e5e5e5" />
	<path
   d="m 113.8,136.8 c -1,0.4 -2.3,2.7 -0.8,4.2 1.5,1.5 6.8,4.7 8.5,4 1.7,-0.7 2.9,-3.6 0.7,-5 -2.2,-1.4 -5.8,-4.5 -8.4,-3.2 z"
   id="path67904"
   inkscape:connector-curvature="0"
   style="fill:#ffffff" />
	<path
   d="m 101.4,94.1 c -1.3,3.5 -4.1,10.8 -4.4,16.5 -0.2,3.7 1.3,12.1 -1.8,27.5 -0.7,3.7 -1.6,7 -1.6,7 l 5.1,1.5 c 0,0 2.2,-11.3 2.6,-16.8 0.6,-7.6 -0.3,-14.6 0.9,-21.9 C 103.4,100.6 106,95 106,95 Z"
   id="path67906"
   inkscape:connector-curvature="0"
   style="fill:#ffffff" />
	<path
   d="m 95.7,68.8 c 1,-5.6 4.5,-10.5 10.4,-12.5 8.6,-3 16.9,4.5 15.7,13.5 -0.2,1.4 -0.1,3.1 -0.2,5 -0.2,6.3 -27,0.2 -25.9,-6 z"
   id="path67908"
   inkscape:connector-curvature="0"
   style="fill:#baa794" />
	<path
   d="m 122.4,73 c -6.2,-0.1 -8.5,-0.7 -12.8,-2.2 -4.3,-1.5 -10.1,-3.1 -12.4,-6.6 -1.7,0.2 -2.3,5.3 -2.3,6 1.5,3.3 6,4.9 12.4,7.1 6.4,2.3 14.4,3 15,1.2 0.6,-0.9 1.3,-4.3 0.1,-5.5 z"
   id="path67910"
   inkscape:connector-curvature="0"
   style="fill:#ffffff" />
	<circle
   cx="114.5"
   cy="54.700001"
   r="4.0999999"
   id="circle67912"
   style="fill:#ffffff" />
</g>
<g
   id="g67950"
   transform="matrix(0.2,0,0,0.2,66.577076,141.35863)">
	<path
   d="m 152.1,191.9 c 0,0 0.7,6.3 1.1,7.5 0.3,1.2 -0.7,3.3 -2.1,4 -3.1,1.6 -5.5,1.1 -6.3,0.8 -1.2,-0.4 2.6,-12.7 2.6,-12.7 z"
   id="path67916"
   inkscape:connector-curvature="0"
   style="fill:#2d3134" />
	<path
   d="m 146.3,129.6 c 0,0 7,1.1 9.7,5.3 2.7,4.2 0.2,14.2 0.4,20.6 0.2,6.4 0.2,17.5 -0.3,21.8 -0.5,4.3 -2.2,10.6 -2.2,12.4 0,1.8 0.4,3.3 -2.4,3.5 -2.8,0.3 -5.6,-0.6 -5.6,-0.6 0,0 -2.7,-23.8 -2.3,-28.9 0.5,-5 2.7,-34.1 2.7,-34.1 z"
   id="path67918"
   inkscape:connector-curvature="0"
   style="fill:#762c07" />
	<path
   d="m 150,142.9 c 0,0 1.2,11.1 -0.1,16.2 -1.3,5 -2.5,9.9 -1.8,13.6 0.7,3.7 2,9.6 1.3,14.2 -0.7,4.6 -2.2,7 -2.2,7 l -5.9,-25.3 5.4,-16.4 z"
   id="path67920"
   inkscape:connector-curvature="0"
   style="opacity:0.2" />
	<path
   d="m 141.5,293.2 c 3.1,3.1 9.5,10.6 2.8,14.2 -6.7,3.5 -13.8,3.5 -20.9,3.2 -7.1,-0.3 -25.2,-3.2 -28,-6.3 -2.8,-3.2 -3.9,-7.9 2.8,-9.1 6.7,-1.2 11,-5.9 20.1,-5.5 9.1,0.4 22.4,2.7 23.2,3.5 z"
   id="path67922"
   inkscape:connector-curvature="0"
   style="opacity:0.3;fill:#262626" />
	<path
   d="m 142.1,297.1 c 0,0 -1.4,6.3 -5.7,6.3 -4.3,0 -18.7,-2.2 -18.7,-2.2 l 11.4,-8.7 z"
   id="path67924"
   inkscape:connector-curvature="0"
   style="fill:#262626" />
	<path
   d="m 135.2,302 c 0,0 0.8,6.5 -2.4,6.9 -3.2,0.4 -14.4,-1 -17.6,-1 -3.2,0 -14.8,-2.4 -15.8,-5.1 -1,-2.7 0.4,-5.7 4.7,-5.7 4.3,0 12.2,0.2 13.6,-0.2 1.4,-0.4 17.5,5.1 17.5,5.1 z"
   id="path67926"
   inkscape:connector-curvature="0"
   style="fill:#2d3134" />
	<path
   d="m 99.3,300.1 c 0,0.5 0.1,0.9 0.3,1.4 1,2.8 13,5.3 16.2,5.3 3.2,0 14.8,1.4 18.1,1 0.2,0 0.5,-0.1 0.7,-0.2 -0.4,0.7 -0.9,1.3 -1.8,1.4 -3.2,0.4 -14.4,-1 -17.6,-1 -3.2,0 -14.8,-2.4 -15.8,-5.1 -0.2,-1 -0.3,-2 -0.1,-2.8 z"
   id="path67928"
   inkscape:connector-curvature="0"
   style="fill:#262626" />
	<path
   d="m 147.2,191.2 c 0.8,2.6 -3.5,29.6 -3.5,32.7 0,3.1 -1.8,17 -1.4,21.5 0.4,4.5 1.4,27.2 1.8,34.5 0.4,7.3 -0.4,18.9 -2.4,20.1 -2,1.2 -8.7,1.2 -10.6,0.8 -2,-0.4 -3.9,-105.5 -3.9,-105.5 z"
   id="path67930"
   inkscape:connector-curvature="0"
   style="fill:#baa794" />
	<path
   d="m 147.2,191.2 c 0.8,2.6 -3.5,29.6 -3.5,32.7 0,3.1 -1.8,17 -1.4,21.5 0.4,4.5 1.4,27.2 1.8,34.5 0.4,7.3 -0.4,18.9 -2.4,20.1 -2,1.2 -8.7,1.2 -10.6,0.8 -2,-0.4 -3.9,-105.5 -3.9,-105.5 z"
   id="path67932"
   inkscape:connector-curvature="0"
   style="opacity:0.2" />
	<path
   d="m 133.8,197.1 c 0,0 -1,11.8 -1,17.2 0,5.3 2.8,45 3.4,52.7 0.6,7.7 1.4,33.9 0.2,36.5 -1.2,2.6 -3.4,3.5 -7.4,2.6 -3.9,-1 -9.1,-2.4 -12.1,-6.1 -0.8,-1 -2.9,-2.7 -2.9,-2.7 0,0 3.2,-5 2.6,-10.5 -0.6,-5.5 -1.2,-15.4 -1,-19.7 0.2,-4.3 0.2,-10.6 -1.4,-16.4 -1.6,-5.7 -5.7,-17.9 -6.9,-35.9 -1.2,-17.9 -0.8,-21.5 -0.8,-21.5 z"
   id="path67934"
   inkscape:connector-curvature="0"
   style="fill:#baa794" />
	<path
   d="m 139,128.1 c 0,0 -4.9,0.4 -4.9,-3.7 0,-4.1 0.1,-6.7 0.1,-6.7 0,0 2.6,-1.1 2.4,-4.7 -0.2,-3.6 -1.3,-2.8 -1.3,-2.8 l -19.4,1.8 c 0,0 -1.3,0.4 -0.3,3.9 0.4,1.3 1.4,3 1.4,3.5 0,0.5 1,3.5 1.7,3.9 0.7,0.4 1.9,4.8 1.9,6.3 0,1.5 -0.7,3.5 -0.7,3.5 0,0 8.1,0.1 12.8,-1 4.7,-1.1 6.3,-4 6.3,-4 z"
   id="path67936"
   inkscape:connector-curvature="0"
   style="fill:#fbd7c7" />
	<path
   d="m 133.8,122.1 c 0.4,-0.2 0.6,-4.3 0.9,-6.6 0.3,-2.3 2.8,-10 -1.2,-14.9 -3.9,-4.9 -15.2,-4.5 -17.3,2.4 -1.9,6.2 -0.7,10 1,13.5 1.7,3.5 3.5,5.2 4.1,6 0.6,0.7 6.2,1.5 7.5,1.4 1.2,-0.1 3.6,-1.3 5,-1.8 z"
   id="path67938"
   inkscape:connector-curvature="0"
   style="fill:#825012" />
	<path
   d="m 114.1,111.9 c 0.4,-10.9 7.3,-19.7 22.2,-16.7 3.8,0.8 5.5,5.9 2.8,9.2 -2.1,2.5 -2.3,6.2 -2.4,10.2 -0.3,9.5 -23,6.7 -22.6,-2.7 z"
   id="path67940"
   inkscape:connector-curvature="0"
   style="fill:#2d3134" />
	<path
   d="m 102.7,189.7 c -1.2,1.8 -3.1,3.1 -3.2,6.1 -0.2,2.9 -0.8,8.5 1.2,10 2,1.5 5,3.4 6.6,2.6 1.6,-0.8 2.3,-2.1 2,-2.6 -0.3,-0.5 -2.6,-3.4 -2.5,-6 0,-2.6 -0.4,-4.9 0,-5.8 0.1,-0.2 0.3,-0.6 1.2,-1.8 z"
   id="path67942"
   inkscape:connector-curvature="0"
   style="fill:#2d3134" />
	<path
   d="m 120.1,131.1 c 0.6,-0.2 6,0.6 10.5,-0.7 4.4,-1.3 6.5,-3.3 6.5,-3.3 0,0 9.3,1.8 11.7,3 2.7,1.3 3.1,3.4 3.5,5.5 0.5,2.6 0.7,5.4 0.4,8.3 -0.9,9.1 -4.1,11.7 -5,14 -0.9,2.4 -2.9,10.9 -1.5,17.9 1.4,7 2,15.4 1.8,17.6 -0.2,2.2 -2.4,7.7 -14.7,8.3 -14.5,0.7 -26.8,-4.6 -26.8,-4.6 V 196 c 0,0 -0.7,1.3 -2.6,1.2 -1.9,-0.1 -4.6,-2.1 -4.6,-2.8 0,-0.7 0.2,-7.9 -0.1,-9.5 -0.3,-1.6 -1.2,-2.5 0,-6.6 1.2,-4.1 3.8,-17.8 4.5,-24.4 0.7,-6.5 0.9,-8.8 4.1,-12.6 3.2,-3.8 12.3,-10.2 12.3,-10.2 z"
   id="path67944"
   inkscape:connector-curvature="0"
   style="fill:#762c07" />
	<path
   d="m 106.5,196 c 0,0 2.1,-3.1 2.4,-5.1 0.3,-2 1,-9.3 1.6,-10.9 0.6,-1.7 0.8,-4.8 1.9,-7.1 1.1,-2.3 7.4,-16.2 7.4,-16.2 0,0 -0.9,6.4 -3,11.3 -0.8,1.9 -2.5,3.9 -2.5,9.6 0,5.6 -2.8,11.4 -3.4,12.7 -1.6,3.4 -1.5,7 -1.5,8 -1.8,-0.6 -2.9,-1.1 -2.9,-1.1 V 196 c 0,0 0,0.1 0,0 z"
   id="path67946"
   inkscape:connector-curvature="0"
   style="opacity:0.2" />
	<path
   d="m 136.5,123.2 c -1.4,-1.4 -3.5,3.4 -8.7,3.8 -5.3,0.4 -5.8,-0.4 -7.8,0.3 -2,0.7 -9,4.5 -2.8,8.1 6.2,3.6 10.3,5.8 17.9,2.8 7.6,-3 8.5,-10.6 7.1,-11.4 -1.4,-0.8 -5.4,-3.3 -5.7,-3.6 z"
   id="path67948"
   inkscape:connector-curvature="0"
   style="fill:#2d3134" />
</g>
</svg>