<?xml version="1.0" encoding="UTF-8" standalone="no"?>
<!-- Generator: Adobe Illustrator 18.1.0, SVG Export Plug-In . SVG Version: 6.00 Build 0)  -->

<svg
   xmlns:dc="http://purl.org/dc/elements/1.1/"
   xmlns:cc="http://creativecommons.org/ns#"
   xmlns:rdf="http://www.w3.org/1999/02/22-rdf-syntax-ns#"
   xmlns:svg="http://www.w3.org/2000/svg"
   xmlns="http://www.w3.org/2000/svg"
   xmlns:sodipodi="http://sodipodi.sourceforge.net/DTD/sodipodi-0.dtd"
   xmlns:inkscape="http://www.inkscape.org/namespaces/inkscape"
   version="1.1"
   id="Layer_1"
   x="0px"
   y="0px"
   viewBox="0 0 160 240"
   enable-background="new 0 0 160 240"
   xml:space="preserve"
   sodipodi:docname="winter-kid-07.svg"
   inkscape:export-filename="C:\ML\Projekte\Adventskalender\assets\images\Item9.png"
   inkscape:export-xdpi="96"
   inkscape:export-ydpi="96"
   inkscape:version="0.92.4 (5da689c313, 2019-01-14)"><metadata
   id="metadata71166"><rdf:RDF><cc:Work
       rdf:about=""><dc:format>image/svg+xml</dc:format><dc:type
         rdf:resource="http://purl.org/dc/dcmitype/StillImage" /><dc:title></dc:title></cc:Work></rdf:RDF></metadata><defs
   id="defs71164" /><sodipodi:namedview
   pagecolor="#ffffff"
   bordercolor="#666666"
   borderopacity="1"
   objecttolerance="10"
   gridtolerance="10"
   guidetolerance="10"
   inkscape:pageopacity="0"
   inkscape:pageshadow="2"
   inkscape:window-width="3440"
   inkscape:window-height="1377"
   id="namedview71162"
   showgrid="false"
   inkscape:zoom="0.98333333"
   inkscape:cx="80"
   inkscape:cy="120"
   inkscape:window-x="-8"
   inkscape:window-y="-8"
   inkscape:window-maximized="1"
   inkscape:current-layer="Layer_1" />
<g
   id="g71159"
   transform="matrix(0.2,0,0,0.2,51.968801,114.6399)">
	<path
   d="m 49.5,227.1 c 7.3,3.5 18.5,-2.7 32.6,-8.2 10.4,-4.1 43.3,-18 39.3,-21.2 -3.8,-3.1 -30.5,7.9 -45.1,13.1 -15.2,5.5 -32.9,13.4 -26.8,16.3 z"
   id="path71125"
   inkscape:connector-curvature="0"
   style="opacity:0.2" />
	<path
   d="m 49.7,129.6 c 0,0 -2.7,11.1 -3.3,18.2 -0.6,7.1 0.4,31 0.8,32.9 0.4,1.9 1.7,5.3 2.9,8.2 0.8,1.9 7.7,14.2 8.2,17.2 0.5,3 1,5.6 1,5.6 l 7.7,-3.1 c 0,0 -1.4,-7.2 -1.6,-10.5 -0.2,-3.3 -0.9,-8.8 -3,-12.6 -2.1,-3.8 -3.6,-6.2 -2.9,-11.3 0.7,-5.1 3.3,-22.9 3.3,-22.9 l 1.5,-0.3 c 0,0 7,25.7 7.7,28.2 0.7,2.5 3.8,4.4 6.8,5.1 3,0.7 8.9,2.8 12.8,3.8 3.9,1 9,2.5 11.6,3.8 2.3,1.1 3.8,2.5 3.8,2.5 l 0.9,-8.6 c 0,0 -6.3,-5.4 -10.5,-7.6 -4.1,-2.2 -13.6,-4.1 -13.6,-4.1 0,0 -2.8,-17.5 -2.6,-26.8 0.2,-9.3 0.3,-10.8 -1.7,-13.9 -2,-3.2 -5.4,-7 -5.4,-7 z"
   id="path71127"
   inkscape:connector-curvature="0"
   style="fill:#2d3134" />
	<path
   d="m 20.9,121.7 c 0,0 -1.3,0.4 -3,0 -1.7,-0.4 -6.4,0.3 -8.6,2.2 -2.1,1.9 -0.8,4.2 0.4,4.9 0.7,0.4 2.8,0.7 4.6,-0.3 1.8,-1 2.7,-2 4.1,-1.9 1.4,0.1 3.6,-0.9 3.6,-0.9 z"
   id="path71129"
   inkscape:connector-curvature="0"
   style="fill:#762c07" />
	<path
   d="m 18.9,121.8 c -0.6,0.7 1.6,4.4 3.2,4.4 1.5,0 17.5,-4.6 18.7,-4.9 1.2,-0.3 4.7,-0.8 5.8,-2.5 1.1,-1.7 12.7,-31.5 8.8,-30.8 -3.7,0.7 -6.3,1.8 -8.1,6.7 -1.8,4.9 -6.3,16.9 -7.2,17.5 -1,0.6 -7,2.1 -11.3,4.8 -4.4,2.7 -9.1,3.9 -9.9,4.8 z"
   id="path71131"
   inkscape:connector-curvature="0"
   style="fill:#baa794" />
	<path
   d="m 18.9,121.8 c -0.6,0.7 1.6,4.4 3.2,4.4 1.5,0 17.5,-4.6 18.7,-4.9 1.2,-0.3 4.7,-0.8 5.8,-2.5 1.1,-1.7 12.7,-31.5 8.8,-30.8 -3.7,0.7 -6.3,1.8 -8.1,6.7 -1.8,4.9 -6.3,16.9 -7.2,17.5 -1,0.6 -7,2.1 -11.3,4.8 -4.4,2.7 -9.1,3.9 -9.9,4.8 z"
   id="path71133"
   inkscape:connector-curvature="0"
   style="opacity:0.15" />
	<path
   d="m 67,202.5 c 0.1,0.5 1,5.2 1.5,6.1 1.3,2.4 3.2,5.8 2.6,7.6 -0.8,2.5 -1.9,2.9 -3.9,3.4 -2,0.5 -5.7,3.1 -7.4,4.2 -1.8,1.2 -7.7,3.6 -9.9,0.9 -2.2,-2.7 1.3,-5 3.3,-6.3 1.5,-1 4.8,-4.5 5.2,-6.9 0.2,-1.7 -0.6,-5.2 -0.6,-5.5 0.1,-0.4 1.8,-0.1 3.7,-0.8 2.5,-0.9 5.5,-2.7 5.5,-2.7 z"
   id="path71135"
   inkscape:connector-curvature="0"
   style="fill:#762c07" />
	<path
   d="m 104.7,181.9 c 0.5,-0.2 3.9,2.1 6.1,2.5 1.5,0.3 3.9,0.9 4.6,2 1.1,1.6 -0.9,6.1 -1.1,8.5 -0.2,2.4 0.6,4.2 -0.1,6 -1.1,2.7 -4.6,6.6 -6.7,5.2 -2.1,-1.4 -1.1,-4.5 -1.2,-7 -0.1,-1.2 -0.3,-3.3 -1.2,-4.9 -1.2,-2.2 -4.6,-2.6 -4.7,-3.1 -0.1,-0.5 1.6,-0.8 2.3,-2.6 0.7,-1.6 1.5,-6.4 2,-6.6 z"
   id="path71137"
   inkscape:connector-curvature="0"
   style="fill:#762c07" />
	<path
   d="m 49.2,223.3 c 0.1,0.4 0.3,0.9 0.7,1.4 2.3,2.8 8.1,0.4 9.9,-0.9 1.6,-1.1 5.3,-3.6 7.4,-4.2 2,-0.6 3.1,-0.9 3.9,-3.4 0.1,-0.3 0.1,-0.8 0.1,-1.2 -0.8,1.5 -3,2.4 -5.2,3.3 -2.8,1.1 -6.3,4.8 -10.3,6.3 -3.1,1.2 -5.8,0 -6.5,-1.3 z"
   id="path71139"
   inkscape:connector-curvature="0"
   style="opacity:0.5" />
	<path
   d="m 114.3,201 c 0.7,-1.8 0,-3.5 0.1,-6 0.1,-2.5 2.2,-6.9 1.1,-8.5 -0.3,-0.5 -1,-0.9 -1.7,-1.2 0.6,1.6 0.4,3.6 -0.3,5.6 -1,2.9 0.8,6.4 -0.8,10.4 -1,2.8 -3.4,4.1 -5.3,4.7 0.1,0.1 0.1,0.1 0.2,0.2 2.1,1.3 5.6,-2.6 6.7,-5.2 z"
   id="path71141"
   inkscape:connector-curvature="0"
   style="opacity:0.5" />
	<path
   d="m 46.3,148.8 c 1,1.1 15.2,1.4 21.7,0.7 6.5,-0.8 13.2,-1.4 13.9,-3.3 0.8,-1.8 0.9,-8.4 -0.7,-12.2 -2.1,-4.9 -5.4,-8.1 -5.9,-10.5 -0.5,-2.4 2.1,-14 2.1,-14 0,0 7.9,8.6 8.3,9.4 0.4,0.9 1.9,9.1 2,10.4 0.1,1.3 0.4,5.7 0.4,5.7 l 6.4,-1.8 c 0,0 1,-12.9 0.5,-14.8 -1,-4.1 -5.5,-9.5 -8.4,-13.6 -2.9,-4.1 -6.9,-10.5 -9.3,-11.7 -2.5,-1.3 -7.4,-3.7 -9,-4.2 -2.5,-0.7 -12.8,-2.4 -15.5,0 -2.7,2.4 -6.7,15.8 -6.8,18.5 -0.1,2.7 2.5,13 2.6,17.3 0.2,4.3 -4,22.1 -2.3,24.1 z"
   id="path71143"
   inkscape:connector-curvature="0"
   style="fill:#baa794" />
	<path
   d="m 82.3,142.2 c -0.8,1.9 -7.8,2.6 -14.7,3.4 -6.2,0.7 -19.2,0.5 -22.3,-0.4 -0.4,2.4 -0.6,4.3 0,5 1,1.2 16,1.5 22.9,0.7 6.9,-0.8 13.4,-1.5 14.7,-3.2 1.1,-1.6 1.3,-2.8 -0.2,-6.5 -0.1,0.3 -0.3,0.7 -0.4,1 z"
   id="path71145"
   inkscape:connector-curvature="0"
   style="fill:#ffffff" />
	<path
   d="m 58.7,62.7 c -2.4,1.4 -6.2,4.2 -6.4,11.2 -0.2,7 0.9,12.3 2.5,12.9 1.6,0.6 3,0.4 3,0.4 0,0 0.3,0.6 -0.3,2.1 -0.6,1.5 -2.7,2.9 -1.1,4.7 1.6,1.7 7.8,1.1 10.1,-0.4 2.2,-1.5 3.4,-3.3 3.4,-3.3 0,0 -1.5,-0.8 -1.5,-2.6 0,-1.8 0.6,-3.9 1.6,-5.7 1,-1.8 5.1,-4.5 5.5,-10.8 0.3,-6.4 -7.4,-13.7 -16.8,-8.5 z"
   id="path71147"
   inkscape:connector-curvature="0"
   style="fill:#fbd7c7" />
	<path
   d="m 57.8,87.2 c -0.8,0.3 -4.3,0.7 -4.5,4.2 -0.1,2.3 0.6,4.8 6,6.1 5.4,1.3 14.6,-3 14.7,-6.2 0.1,-2.2 -3.8,-7.4 -5,-6.7 -1.6,0.9 -2.9,2.8 -7.6,3.4 -4,0.5 -3.6,-0.8 -3.6,-0.8 z"
   id="path71149"
   inkscape:connector-curvature="0"
   style="fill:#ffffff" />
	<path
   d="m 56.2,67.8 c 0,0 3.5,-1 7.1,3 2.5,2.8 2.9,6.1 4.3,6.5 1.4,0.4 2.8,-1.8 3.8,-0.4 1,1.4 -3.2,5.1 -3.2,5.1 0,0 -0.2,3.8 3.5,3.1 6,-1.2 7.5,-12.7 5.8,-17.5 -3.3,-9.5 -10.8,-7.7 -11.6,-8 -0.8,-0.3 -4.2,-2.3 -8,-0.1 -3.8,2.1 -6.3,5.8 -6.4,10 -0.2,5.3 -0.2,8.9 -2.7,9.1 1,1.8 3.6,1.2 3.5,0.5 0,-1.5 -0.1,-5.9 0.3,-8 0.4,-2.2 1.2,-4 3.6,-3.3 z"
   id="path71151"
   inkscape:connector-curvature="0"
   style="fill:#825012" />
	<path
   d="m 88,135.1 c -1,-1 -1.4,-3.5 -0.6,-4.6 1.1,-1.6 6.9,-2.9 8.1,-0.7 1,1.8 0.1,3.8 -0.5,3.9 -0.6,0.1 -7,1.4 -7,1.4 z"
   id="path71153"
   inkscape:connector-curvature="0"
   style="fill:#ffffff" />
	<path
   d="m 88.1,134 c 0.6,-1.2 3.3,-3.5 7.7,-1.7 4.4,1.8 4.4,5.5 3.3,6.5 -1.1,1 -2.5,1.2 -3.8,0.3 -1.3,-0.9 -3.2,-2.7 -4.2,-1.9 -1,0.8 -0.1,1.9 -1.1,2.4 -1.1,0.5 -1.8,-1.1 -2.1,-2 -0.3,-1 -0.3,-2.7 0.2,-3.6 z"
   id="path71155"
   inkscape:connector-curvature="0"
   style="fill:#762c07" />
	<path
   d="m 21.9,120.1 c -0.5,-0.7 -3.6,0.3 -3.6,1.2 0,0.9 1.6,5.8 3.1,5.9 1.1,0 2.8,-0.6 2.8,-1.3 0.1,-2.4 -1.5,-4.7 -2.3,-5.8 z"
   id="path71157"
   inkscape:connector-curvature="0"
   style="fill:#ffffff" />
</g>
</svg>