<?xml version="1.0" encoding="UTF-8" standalone="no"?>
<!-- Generator: Adobe Illustrator 18.1.0, SVG Export Plug-In . SVG Version: 6.00 Build 0)  -->

<svg
   xmlns:dc="http://purl.org/dc/elements/1.1/"
   xmlns:cc="http://creativecommons.org/ns#"
   xmlns:rdf="http://www.w3.org/1999/02/22-rdf-syntax-ns#"
   xmlns:svg="http://www.w3.org/2000/svg"
   xmlns="http://www.w3.org/2000/svg"
   xmlns:sodipodi="http://sodipodi.sourceforge.net/DTD/sodipodi-0.dtd"
   xmlns:inkscape="http://www.inkscape.org/namespaces/inkscape"
   version="1.1"
   id="Layer_1"
   x="0px"
   y="0px"
   viewBox="0 0 160 240"
   enable-background="new 0 0 160 240"
   xml:space="preserve"
   sodipodi:docname="winter-man-03.svg"
   inkscape:export-filename="C:\ML\Projekte\Adventskalender\assets\images\Item7.png"
   inkscape:export-xdpi="96"
   inkscape:export-ydpi="96"
   inkscape:version="0.92.4 (5da689c313, 2019-01-14)"><metadata
   id="metadata74889"><rdf:RDF><cc:Work
       rdf:about=""><dc:format>image/svg+xml</dc:format><dc:type
         rdf:resource="http://purl.org/dc/dcmitype/StillImage" /><dc:title></dc:title></cc:Work></rdf:RDF></metadata><defs
   id="defs74887" /><sodipodi:namedview
   pagecolor="#ffffff"
   bordercolor="#666666"
   borderopacity="1"
   objecttolerance="10"
   gridtolerance="10"
   guidetolerance="10"
   inkscape:pageopacity="0"
   inkscape:pageshadow="2"
   inkscape:window-width="3440"
   inkscape:window-height="1377"
   id="namedview74885"
   showgrid="false"
   inkscape:zoom="0.98333333"
   inkscape:cx="80"
   inkscape:cy="120"
   inkscape:window-x="-8"
   inkscape:window-y="-8"
   inkscape:window-maximized="1"
   inkscape:current-layer="Layer_1" />
<g
   id="g74882"
   transform="matrix(0.2,0,0,0.2,64.045458,105.74596)">
	<path
   d="m 36,189.1 c 17.1,-9.5 32.9,2.5 50.8,13.5 17.9,11 51.6,21.3 37.8,28.7 C 110.9,238.6 84.8,225 70.7,217.6 56.6,210.2 20.7,197.7 36,189.1 Z"
   id="path74838"
   inkscape:connector-curvature="0"
   style="opacity:0.2" />
	<path
   d="m 96.8,98.7 c 2,5.8 4.6,14.5 5.4,16.5 0.8,2 2.2,4.5 1.6,7.5 -0.7,3 -1.7,5.1 -3.8,5.9 -2.1,0.8 -4.3,0.3 -4.3,0.3 z"
   id="path74840"
   inkscape:connector-curvature="0"
   style="fill:#06547a" />
	<path
   d="m 90.6,215 c 0.1,2.8 -1.1,5.3 3.5,6.6 3.6,1 7,1.9 11.9,5.4 2,1.4 4.9,3.1 8,3.5 1.5,0.2 3.7,-0.4 4.8,-0.9 3.1,-1.2 2.3,-3.7 2.2,-4.7 -0.1,-1.7 -1.8,-2.6 -5.1,-4 -3.3,-1.5 -5.8,-2.6 -7.8,-5.2 -2,-2.7 -6.1,-5.3 -6.1,-5.3 z"
   id="path74842"
   inkscape:connector-curvature="0"
   style="fill:#262626" />
	<path
   d="m 91.2,216.5 c 0,0 7.9,2.2 10.3,3.7 2.8,1.8 9.9,7.5 13.5,7.6 3.1,0.1 6,-1.4 5.6,-3.2 -0.4,-1.8 -2.8,-2.5 -5.9,-4 -3.1,-1.5 -5.8,-3.7 -7.1,-6.1 -1.2,-2.3 -16.4,2 -16.4,2 z"
   id="path74844"
   inkscape:connector-curvature="0"
   style="fill:#656565" />
	<path
   d="m 42.2,193.4 c 0,0 6.1,10.2 8.2,11.8 2.2,1.6 11.1,4.6 14.9,3.7 3.8,-0.9 3.7,-0.8 3.9,-2.7 0.2,-2 0.6,-2.2 -2.6,-3.7 -3.1,-1.6 -6.9,-5.3 -7.5,-7.4 -0.6,-2.1 -7.2,-6.4 -10.2,-6.3 -2.9,0.1 -6.7,4.6 -6.7,4.6 z"
   id="path74846"
   inkscape:connector-curvature="0"
   style="fill:#262626" />
	<path
   d="m 45,193.6 c 2.9,2.3 5.6,8.2 7.5,9.1 1.9,0.9 8.9,3.4 13,2.7 3.6,-0.6 3.9,-0.8 3,-1.7 -0.9,-0.9 -5,-2.3 -6.5,-4.6 -1.5,-2.4 -5.3,-7.9 -5.3,-7.9 z"
   id="path74848"
   inkscape:connector-curvature="0"
   style="fill:#656565" />
	<path
   d="m 97.4,125 c 1.2,3.7 5.7,16.4 7.9,23.6 2.2,7.2 5.4,18.1 5.7,20.6 0.3,2.2 -0.9,7.8 -1.6,11.3 -0.7,3.5 -2.6,19 -2.8,22.9 -0.2,3 -0.8,4.6 0.7,6.3 1.5,1.7 2.6,4.6 2,5.9 -0.7,1.3 -6.2,3.4 -10.5,3.7 -4.3,0.3 -8.8,-0.1 -9.3,-1.2 -0.5,-1.1 -0.8,-4.7 -0.4,-8.8 0.4,-4.1 3,-33.8 2.1,-37.4 -0.9,-3.7 -6.2,-16.8 -8,-21.1 -1.2,-2.9 -2.5,-5.4 -2.5,-5.4 L 83.6,128 Z"
   id="path74850"
   inkscape:connector-curvature="0"
   style="fill:#e5e5e5" />
	<path
   d="m 97.4,125 c 1.2,3.7 5.7,16.4 7.9,23.6 2.2,7.2 5.4,18.1 5.7,20.6 0.3,2.2 -0.9,7.8 -1.6,11.3 -0.7,3.5 -2.6,19 -2.8,22.9 -0.2,3 -0.8,4.6 0.7,6.3 1.5,1.7 2.6,4.6 2,5.9 -0.7,1.3 -6.2,3.4 -10.5,3.7 -4.3,0.3 -8.8,-0.1 -9.3,-1.2 -0.5,-1.1 -0.8,-4.7 -0.4,-8.8 0.4,-4.1 3,-33.8 2.1,-37.4 -0.9,-3.7 -6.2,-16.8 -8,-21.1 -1.2,-2.9 -2.5,-5.4 -2.5,-5.4 L 83.6,128 Z"
   id="path74852"
   inkscape:connector-curvature="0"
   style="opacity:0.2" />
	<path
   d="m 84.2,131.8 c 0,0 -2.7,11.7 -3.5,13.5 -0.8,1.8 -1.9,6.5 -3.1,10.7 -3.2,10.9 -5.2,13.7 -7.8,16.9 -2.2,2.7 -8.2,10.3 -9.5,12.2 -1.2,1.6 -2.1,3.4 -1.4,5.1 0.7,1.7 1.3,5.2 1.3,5.2 0,0 -6,2.7 -11.8,1.7 -5.8,-1 -8.2,-4.5 -8.2,-6.9 0,-2.4 2.1,-5.8 2.1,-5.8 0,0 -0.4,-4.1 1.6,-6.4 2,-2.4 4.3,-6.9 6.4,-9.7 1.7,-2.2 3.1,-3.8 3.5,-6.8 0.8,-4.9 1.6,-14.1 2.4,-19.6 0.8,-5.5 1.5,-10.5 4.6,-19.6 2.4,-6.9 5.1,-8.1 5.1,-8.1 z"
   id="path74854"
   inkscape:connector-curvature="0"
   style="fill:#e5e5e5" />
	<path
   d="m 78,56.1 c -0.2,2.3 0.2,4.2 -2.6,6.6 -2.8,2.4 -4.7,3.4 -4.7,3.4 0,0 7.1,12.7 15.7,11.3 C 95,76 94.7,63.9 94.7,63.9 l -8.1,-7.3 z"
   id="path74856"
   inkscape:connector-curvature="0"
   style="fill:#fbd7c7" />
	<path
   d="m 95,117.1 7.6,-3.3 c 0,0 -3.4,-17.6 -3.5,-19.4 C 99,92.6 98.4,88 98.4,88 Z"
   id="path74858"
   inkscape:connector-curvature="0"
   style="fill:#cc291f" />
	<path
   d="m 95,117.1 7.6,-3.3 c 0,0 -3.4,-17.6 -3.5,-19.4 C 99,92.6 98.4,88 98.4,88 Z"
   id="path74860"
   inkscape:connector-curvature="0"
   style="opacity:0.2" />
	<path
   d="m 91.5,61.5 c 0,0 4,-0.7 6.8,0.1 2.9,0.9 6.3,3.8 5.9,7.1 -0.4,3.3 -0.9,5.1 -0.7,8.2 0.2,3.1 0.4,9.9 -2.5,13.9 -2.8,4 -3.2,9.1 -3.4,12.8 -0.1,2 0,6.4 0.2,11 0,0.5 0,1 0.1,1.5 0.2,3.9 0.4,7.7 0.7,10.3 0.3,2.6 -4.8,5.7 -13.8,6.3 -7.4,0.6 -22.9,-5.6 -24,-10.9 -1.1,-5.3 4.8,-35.2 4.8,-35.2 0,0 -7,-0.1 -7.2,-1.2 -0.2,-1.1 -1.3,-8.6 0.6,-11.8 2.2,-3.7 5.5,-5.1 8.9,-6.6 2.6,-1.2 4,-2 4,-2 0,0 5.9,12.1 13.9,10.1 10.7,-2.4 5.7,-13.6 5.7,-13.6 z"
   id="path74862"
   inkscape:connector-curvature="0"
   style="fill:#cc291f" />
	<path
   d="M 71.4,115.3 C 70,111.1 69.1,107.5 69.2,106.4 69.3,105.3 71,95.6 72,84.5 73,73.4 67,77 64.4,76.9 c -2,-0.1 -4.7,-1.7 -6.5,3 0,2.7 0.4,5.1 0.5,5.7 0.2,1.1 7.2,1.2 7.2,1.2 0,0 -5.9,29.9 -4.8,35.2 0.8,3.8 9.1,8.1 16.5,10 -1.5,-3.4 -4.5,-12.7 -5.9,-16.7 z"
   id="path74864"
   inkscape:connector-curvature="0"
   style="opacity:0.2" />
	<path
   d="m 78.6,57.6 c -1.5,-1.2 -9.3,-0.3 -10.2,6.7 -0.9,7 3,2.5 6.3,6.8 3.3,4.3 11.8,6.7 15.8,4.7 4,-2 7.2,-5.5 4.8,-12.8 -2.4,-7.3 -16.7,-5.4 -16.7,-5.4 z"
   id="path74866"
   inkscape:connector-curvature="0"
   style="fill:#06547a" />
	<path
   d="m 89.5,71.3 c 0,0 3.7,7.7 1.4,27.3 -1.2,9.8 -3.9,18.8 -3.9,18.8 l -8.9,-4.5 c 0,0 4.2,-18 4.9,-24.8 0.7,-6.8 0.5,-17 0.5,-17 z"
   id="path74868"
   inkscape:connector-curvature="0"
   style="fill:#06547a" />
	<path
   d="m 92.4,70.4 c 0,0 2.8,2.2 5.5,7.9 3,6.3 5.2,16.7 5.2,16.7 l -8,7.3 c 0,0 -0.6,-12.1 -3.2,-19.3 -2.1,-5.9 -4.2,-9.8 -4.2,-9.8 z"
   id="path74870"
   inkscape:connector-curvature="0"
   style="fill:#06547a" />
	<path
   d="m 84.5,36.1 c -5.4,0.3 -8.4,3.5 -8.6,7.1 -0.2,3.6 0,6.2 0,6.2 0,0 -1,-0.4 -1.3,0.8 -0.3,1.3 0.7,4.6 2.5,6.2 1.8,1.6 2.7,4.7 4.8,6.9 2.1,2.3 6.7,5.4 9.9,5 C 95,67.9 97.5,55.8 97.3,51.9 97.1,48 97.2,35.4 84.5,36.1 Z"
   id="path74872"
   inkscape:connector-curvature="0"
   style="fill:#fbd7c7" />
	<path
   d="m 84.5,35.8 c -5.4,0.3 -8.4,3.6 -8.8,7.4 -0.3,2.8 -0.1,5.1 0.1,6.1 0.6,0.3 1.6,0.6 2.3,1.7 1,1.7 1,2.4 1,2.4 l 1.4,-0.5 c 0,0 1.5,-7.5 3.7,-8.3 2.2,-0.8 4.1,1.9 7,1.3 2.8,-0.6 2.5,-2.9 3.7,-3 0.2,0 0.6,0.1 1,0.3 -1.5,-4 -4.5,-7.8 -11.4,-7.4 z"
   id="path74874"
   inkscape:connector-curvature="0"
   style="fill:#825012" />
	<path
   d="M 97.7,43.9 C 95.9,34.5 86.7,27.3 71.3,33 c -3.7,1.4 -4.3,6.1 -1.2,8.6 2.5,2 2.1,4.8 2.4,8.7 0.3,6.1 26.4,-0.3 25.2,-6.4 z"
   id="path74876"
   inkscape:connector-curvature="0"
   style="fill:#06547a" />
	<path
   d="m 65.6,131.9 c 0.7,1.7 1.2,2.9 1.3,3.4 0.6,2.3 1.2,4.6 1.2,6.9 0.1,2.2 -0.1,2.5 1.3,3.9 1.4,1.4 2.9,1.8 4.6,2.3 1.6,0.5 6.3,-0.9 6.3,-0.9 0,0 1.7,-0.9 0.7,-2 -1,-1 -1.5,-2.8 -1.5,-2.8 0,0 0.8,-3.1 -0.4,-5.5 -1.2,-2.4 -1.6,-3 -3.4,-4.3 -1.8,-1.3 -1.9,-0.1 -3.3,-3.3 z"
   id="path74878"
   inkscape:connector-curvature="0"
   style="fill:#06547a" />
	<path
   d="m 74.1,131.1 c -1.4,-3.2 -4.1,-11.4 -5.6,-15.6 -1.4,-4.2 -2.3,-7.8 -2.2,-8.9 0.1,-1.1 4.7,-11 5.7,-22.1 1,-11.1 -4.6,-12.4 -7.2,-12.5 -2.6,-0.1 -7.2,0 -8.5,13.1 -0.5,5.3 -2.8,21.9 -0.6,27.6 0.9,2.5 7.3,16.1 9.6,21.9 z"
   id="path74880"
   inkscape:connector-curvature="0"
   style="fill:#cc291f" />
</g>
</svg>